<?xml version="1.0" encoding="UTF-8" standalone="no"?>
<!-- Created with Inkscape (http://www.inkscape.org/) -->
<svg
   xmlns:dc="http://purl.org/dc/elements/1.1/"
   xmlns:cc="http://creativecommons.org/ns#"
   xmlns:rdf="http://www.w3.org/1999/02/22-rdf-syntax-ns#"
   xmlns:svg="http://www.w3.org/2000/svg"
   xmlns="http://www.w3.org/2000/svg"
   xmlns:xlink="http://www.w3.org/1999/xlink"
   xmlns:sodipodi="http://sodipodi.sourceforge.net/DTD/sodipodi-0.dtd"
   xmlns:inkscape="http://www.inkscape.org/namespaces/inkscape"
   width="350"
   height="75"
   id="svg3606"
   sodipodi:version="0.32"
   inkscape:version="0.45+devel"
   version="1.0"
   sodipodi:docname="logo-template.svg"
   inkscape:output_extension="org.inkscape.output.svg.inkscape"
   inkscape:export-filename="/home/duffy/devel/Pulp/pulp/pulp/static/images/branding/logo-middleware.png"
   inkscape:export-xdpi="90"
   inkscape:export-ydpi="90">
  <defs
     id="defs3608">
    <linearGradient
       inkscape:collect="always"
       id="linearGradient3572">
      <stop
         style="stop-color:#ffffff;stop-opacity:1;"
         offset="0"
         id="stop3574" />
      <stop
         style="stop-color:#ffffff;stop-opacity:0;"
         offset="1"
         id="stop3576" />
    </linearGradient>
    <linearGradient
       inkscape:collect="always"
       xlink:href="#linearGradient3572"
       id="linearGradient3578"
       x1="135.29852"
       y1="39.800842"
       x2="135.29852"
       y2="49.800842"
       gradientUnits="userSpaceOnUse"
       gradientTransform="translate(180.70148,219.0198)" />
    <linearGradient
       inkscape:collect="always"
       xlink:href="#linearGradient3572"
       id="linearGradient3657"
       gradientUnits="userSpaceOnUse"
       gradientTransform="translate(180.70148,299.0198)"
       x1="135.29852"
       y1="39.800842"
       x2="135.29852"
       y2="49.800842" />
    <linearGradient
       inkscape:collect="always"
       xlink:href="#linearGradient3572"
       id="linearGradient3681"
       gradientUnits="userSpaceOnUse"
       gradientTransform="translate(180.70148,379.0198)"
       x1="135.29852"
       y1="39.800842"
       x2="135.29852"
       y2="49.800842" />
    <linearGradient
       inkscape:collect="always"
       xlink:href="#linearGradient3572"
       id="linearGradient3705"
       gradientUnits="userSpaceOnUse"
       gradientTransform="translate(180.70148,459.0198)"
       x1="135.29852"
       y1="39.800842"
       x2="135.29852"
       y2="49.800842" />
    <linearGradient
       inkscape:collect="always"
       xlink:href="#linearGradient3572"
       id="linearGradient3729"
       gradientUnits="userSpaceOnUse"
       gradientTransform="translate(180.70148,539.0198)"
       x1="135.29852"
       y1="39.800842"
       x2="135.29852"
       y2="49.800842" />
  </defs>
  <sodipodi:namedview
     id="base"
     pagecolor="#ffffff"
     bordercolor="#666666"
     borderopacity="1.0"
     gridtolerance="10000"
     guidetolerance="10"
     objecttolerance="10"
     inkscape:pageopacity="0.0"
     inkscape:pageshadow="2"
     inkscape:zoom="1"
     inkscape:cx="163.96253"
     inkscape:cy="144.85608"
     inkscape:document-units="px"
     inkscape:current-layer="layer1"
     showgrid="false"
     inkscape:window-width="1024"
     inkscape:window-height="699"
     inkscape:window-x="0"
     inkscape:window-y="25" />
  <metadata
     id="metadata3611">
    <rdf:RDF>
      <cc:Work
         rdf:about="">
        <dc:format>image/svg+xml</dc:format>
        <dc:type
           rdf:resource="http://purl.org/dc/dcmitype/StillImage" />
      </cc:Work>
    </rdf:RDF>
  </metadata>
  <g
     inkscape:label="Layer 1"
     inkscape:groupmode="layer"
     id="layer1"
     transform="translate(-200,-491.82065)">
    <text
       xml:space="preserve"
       style="font-size:22.21381187px;font-style:normal;font-weight:normal;line-height:-62375%;opacity:0.9;fill:#1a1a1a;fill-opacity:1;stroke:none;stroke-width:1px;stroke-linecap:butt;stroke-linejoin:miter;stroke-opacity:1;display:inline;font-family:Bitstream Vera Sans"
       x="249.79044"
       y="269.80328"
       id="text4099"
       sodipodi:linespacing="-62375%"><tspan
         sodipodi:role="line"
         id="tspan4101"
         x="249.79044"
         y="269.80328"
         style="font-size:20px;font-weight:bold;fill:#1a1a1a;font-family:Interstate-Black">MANAGEMENT PLATFORM</tspan></text>
    <text
       id="text4103"
       y="288.82062"
       x="250"
       style="font-size:17.61880302000000142px;font-style:normal;font-weight:normal;opacity:1;fill:#808080;fill-opacity:1;stroke:none;stroke-width:1px;stroke-linecap:butt;stroke-linejoin:miter;stroke-opacity:1;display:inline;font-family:Bitstream Vera Sans"
       xml:space="preserve"><tspan
         style="font-weight:bold;fill:#808080;fill-opacity:1;font-family:Interstate-Black"
         y="288.82062"
         x="250"
         id="tspan4105"
         sodipodi:role="line">PORTAL</tspan></text>
    <g
       style="opacity:0.9;display:inline"
       id="g5641"
       transform="matrix(0.4551898,0,0,0.4551898,20.43468,336.5794)">
      <path
         sodipodi:type="arc"
         style="fill:#ffffff"
         id="path4548"
         sodipodi:cx="35.433071"
         sodipodi:cy="68.503937"
         sodipodi:rx="20.251589"
         sodipodi:ry="20.251589"
         d="M 55.68466,68.503937 A 20.251589,20.251589 0 1 1 15.181482,68.503937 A 20.251589,20.251589 0 1 1 55.68466,68.503937 z"
         transform="matrix(1.9837414,0,0,1.9837414,367.91651,-279.94538)" />
      <path
         id="path632"
         d="M 472.05616,-122.05924 C 467.92533,-123.11085 463.82391,-122.58579 459.81464,-121.35105 C 459.32294,-121.27914 459.58933,-120.73404 459.50878,-120.51346 C 459.73465,-119.85704 459.36291,-119.14414 457.50892,-118.73711 C 454.76087,-118.13245 453.02452,-115.29735 452.03164,-114.35623 C 450.86466,-113.24807 447.57077,-112.56577 448.06721,-113.2269 C 448.45542,-113.74451 449.93767,-115.35381 450.83878,-117.09487 C 451.64579,-118.65006 452.36339,-119.09238 453.35155,-120.57464 C 453.6433,-121.0099 454.76558,-122.53686 455.09261,-123.74618 C 455.45965,-124.92728 455.3373,-126.40953 455.47847,-127.0189 C 455.68081,-127.89884 456.50899,-129.80695 456.57487,-130.88452 C 456.61016,-131.49625 454.02915,-130.01635 452.80336,-130.01635 C 451.57756,-130.01635 450.38705,-130.74806 449.29065,-130.79982 C 447.9378,-130.8657 447.06728,-129.75754 445.84383,-129.95047 C 445.1427,-130.06105 444.55451,-130.67748 443.33106,-130.72453 C 441.59,-130.78806 439.46309,-129.75754 435.46571,-129.88459 C 431.53892,-130.01164 427.90623,-134.85131 427.41214,-135.62067 C 426.83101,-136.52414 426.12282,-136.52414 425.35111,-135.81595 C 424.57704,-135.10776 423.62417,-135.66537 423.35359,-136.13828 C 422.83834,-137.0394 421.45961,-139.67922 419.32563,-140.22977 C 416.37289,-140.99677 414.87888,-138.59459 415.0718,-136.68648 C 415.26709,-134.74779 416.52112,-134.2043 417.10226,-133.17613 C 417.68339,-132.14561 417.97985,-131.47978 419.06918,-131.02334 C 419.84324,-130.70336 420.13264,-130.22339 419.90207,-129.59049 C 419.69973,-129.03524 418.89507,-128.90819 418.3657,-128.88466 C 416.17457,-128.86756 415.34019,-129.96572 414.08129,-131.52683 C 413.40604,-132.63734 412.34258,-133.11966 411.10266,-133.11966 C 410.51212,-133.11966 409.95921,-132.96438 409.46748,-132.71028 C 407.52408,-131.70094 405.21365,-131.10098 402.72676,-131.10098 L 399.9199,-131.10098 C 398.55528,-135.15247 397.81416,-139.48864 397.81416,-144.00128 C 397.81416,-166.29153 415.88116,-184.35853 438.17141,-184.35853 C 460.46166,-184.35853 478.52866,-166.28917 478.52866,-144.00128 C 478.53337,-135.91006 476.15236,-128.37646 472.05616,-122.05924 z M 447.06499,-125.76011 C 447.27204,-125.55777 447.62966,-124.87781 447.19205,-124.01199 C 446.94736,-123.5532 446.68149,-123.23087 446.21094,-122.85442 C 445.64156,-122.40033 444.5334,-121.87331 443.01115,-122.8403 C 442.19238,-123.36027 442.14298,-123.53438 441.01364,-123.3885 C 440.20664,-123.28263 439.88431,-124.09669 440.17605,-124.77429 C 440.46544,-125.44954 441.65595,-125.99774 443.14055,-125.12721 C 443.80875,-124.7343 444.84632,-123.90847 445.75685,-124.64254 C 446.13565,-124.94369 446.36151,-125.14603 446.88383,-125.7507 C 446.90736,-125.77893 446.9403,-125.79305 446.97794,-125.79305 C 447.01088,-125.79305 447.04147,-125.78128 447.06499,-125.76011 z" />
      <path
         id="path646"
         d="M 472.05624,-122.06153 C 476.15244,-128.37875 478.5311,-135.91001 478.5311,-143.99652 C 478.5311,-166.28678 460.46409,-184.35379 438.17383,-184.35379 C 415.88358,-184.35379 397.81657,-166.28442 397.81657,-143.99652 C 397.81657,-139.48389 398.55769,-135.14771 399.92231,-131.09857 C 405.30547,-115.13494 420.39857,-103.6416 438.17383,-103.6416 C 452.37522,-103.6416 464.86144,-110.97523 472.05624,-122.06153 z"
         style="fill:none" />
      <path
         id="path648"
         d="M 460.94868,-154.73466 C 460.54871,-153.39358 459.98169,-151.68075 457.45951,-150.38437 C 457.09248,-150.19615 456.95131,-150.50436 457.12071,-150.79375 C 458.07359,-152.41717 458.24534,-152.82185 458.52061,-153.46181 C 458.90882,-154.39586 459.11116,-155.72754 458.3418,-158.50382 C 456.82191,-163.96462 453.65741,-171.2653 451.35404,-173.63455 C 449.13537,-175.9191 445.10976,-176.56377 441.47236,-175.62971 C 440.13363,-175.28621 437.51028,-173.92159 432.64943,-175.01799 C 424.23824,-176.91198 422.99362,-172.7005 422.50895,-170.86533 C 422.02427,-169.03016 420.86671,-163.81404 420.86671,-163.81404 C 420.4785,-161.68948 419.975,-157.99562 433.03529,-155.50873 C 439.11958,-154.35116 439.43015,-152.77715 439.69836,-151.64546 C 440.18068,-149.61972 440.95475,-148.45744 441.82293,-147.88101 C 442.69346,-147.29988 441.82293,-146.81991 440.85829,-146.72109 C 438.26552,-146.45052 428.6897,-149.19857 423.02185,-152.41717 C 418.38687,-155.24992 418.30923,-157.80034 419.37034,-159.9649 C 412.36611,-160.72249 407.11235,-159.31082 406.15947,-155.9934 C 404.52194,-150.30438 418.66686,-140.58739 434.77164,-135.71008 C 451.67167,-130.59278 469.05402,-134.1643 470.988,-144.78711 C 471.87029,-149.61736 467.80469,-153.18653 460.94868,-154.73466 z M 435.03515,-165.13631 C 430.37429,-164.79986 429.88962,-164.29637 429.01674,-163.36702 C 427.78388,-162.05652 426.16282,-165.07043 426.16282,-165.07043 C 425.19112,-165.27512 424.01002,-166.84443 424.64763,-168.31021 C 425.27582,-169.75952 426.43339,-169.32426 426.79571,-168.87252 C 427.23804,-168.32433 428.1815,-167.42321 429.4026,-167.45615 C 430.62604,-167.48674 432.03771,-167.74554 434.00699,-167.74554 C 436.0045,-167.74554 437.34323,-166.99971 437.42087,-166.35976 C 437.48205,-165.81391 437.25853,-165.2963 435.03515,-165.13631 z M 439.93365,-172.84167 C 439.92658,-172.84167 439.91953,-172.83931 439.91247,-172.83931 C 439.83953,-172.83931 439.78307,-172.89343 439.78307,-172.96166 C 439.78307,-173.01107 439.8113,-173.05342 439.856,-173.07224 C 440.75947,-173.54985 442.10761,-173.92865 443.65104,-174.08629 C 444.11454,-174.1357 444.56627,-174.15922 445.00153,-174.16393 C 445.07917,-174.16393 445.15211,-174.16393 445.23211,-174.16158 C 447.82017,-174.10511 449.88826,-173.07694 449.85767,-171.86526 C 449.82709,-170.65593 447.70488,-169.72188 445.11917,-169.77834 C 444.28158,-169.79717 443.49575,-169.91951 442.81815,-170.11479 C 442.73816,-170.13597 442.67934,-170.2042 442.67934,-170.28419 C 442.67934,-170.36654 442.73816,-170.43477 442.82051,-170.45359 C 444.43451,-170.82769 445.52385,-171.43706 445.44856,-172.01584 C 445.34739,-172.7805 443.2346,-173.19458 440.73359,-172.94519 C 440.45831,-172.9146 440.1901,-172.87931 439.93365,-172.84167 z"
         style="fill:#cc0000" />
    </g>
    <text
       sodipodi:linespacing="-62375%"
       id="text3568"
       y="269.80328"
       x="249.79044"
       style="font-size:22.21381187px;font-style:normal;font-weight:normal;line-height:-62375%;opacity:0.3;fill:url(#linearGradient3578);fill-opacity:1;stroke:none;stroke-width:1px;stroke-linecap:butt;stroke-linejoin:miter;stroke-opacity:1;display:inline;font-family:Bitstream Vera Sans"
       xml:space="preserve"><tspan
         style="font-size:20px;font-weight:bold;fill:url(#linearGradient3578);fill-opacity:1;font-family:Interstate-Black"
         y="269.80328"
         x="249.79044"
         id="tspan3570"
         sodipodi:role="line">MANAGEMENT PLATFORM</tspan></text>
    <text
       sodipodi:linespacing="-62375%"
       id="text3635"
       y="349.80328"
       x="249.79044"
       style="font-size:22.21381187px;font-style:normal;font-weight:normal;line-height:-62375%;opacity:0.9;fill:#1a1a1a;fill-opacity:1;stroke:none;stroke-width:1px;stroke-linecap:butt;stroke-linejoin:miter;stroke-opacity:1;display:inline;font-family:Bitstream Vera Sans"
       xml:space="preserve"><tspan
         style="font-size:20px;font-weight:bold;fill:#1a1a1a;font-family:Interstate-Black"
         y="349.80328"
         x="249.79044"
         id="tspan3637"
         sodipodi:role="line">MANAGEMENT PLATFORM</tspan></text>
    <text
       xml:space="preserve"
       style="font-size:17.61880302000000142px;font-style:normal;font-weight:normal;opacity:1;fill:#829357;fill-opacity:1;stroke:none;stroke-width:1px;stroke-linecap:butt;stroke-linejoin:miter;stroke-opacity:1;display:inline;font-family:Bitstream Vera Sans"
       x="250"
       y="368.82062"
       id="text3639"><tspan
         sodipodi:role="line"
         id="tspan3641"
         x="250"
         y="368.82062"
         style="font-weight:bold;fill:#829357;fill-opacity:1;font-family:Interstate-Black">CONTENT MANAGEMENT</tspan></text>
    <g
       transform="matrix(0.4551898,0,0,0.4551898,20.43468,416.5794)"
       id="g3643"
       style="opacity:0.9;display:inline">
      <path
         transform="matrix(1.9837414,0,0,1.9837414,367.91651,-279.94538)"
         d="M 55.68466,68.503937 A 20.251589,20.251589 0 1 1 15.181482,68.503937 A 20.251589,20.251589 0 1 1 55.68466,68.503937 z"
         sodipodi:ry="20.251589"
         sodipodi:rx="20.251589"
         sodipodi:cy="68.503937"
         sodipodi:cx="35.433071"
         id="path3645"
         style="fill:#ffffff"
         sodipodi:type="arc" />
      <path
         d="M 472.05616,-122.05924 C 467.92533,-123.11085 463.82391,-122.58579 459.81464,-121.35105 C 459.32294,-121.27914 459.58933,-120.73404 459.50878,-120.51346 C 459.73465,-119.85704 459.36291,-119.14414 457.50892,-118.73711 C 454.76087,-118.13245 453.02452,-115.29735 452.03164,-114.35623 C 450.86466,-113.24807 447.57077,-112.56577 448.06721,-113.2269 C 448.45542,-113.74451 449.93767,-115.35381 450.83878,-117.09487 C 451.64579,-118.65006 452.36339,-119.09238 453.35155,-120.57464 C 453.6433,-121.0099 454.76558,-122.53686 455.09261,-123.74618 C 455.45965,-124.92728 455.3373,-126.40953 455.47847,-127.0189 C 455.68081,-127.89884 456.50899,-129.80695 456.57487,-130.88452 C 456.61016,-131.49625 454.02915,-130.01635 452.80336,-130.01635 C 451.57756,-130.01635 450.38705,-130.74806 449.29065,-130.79982 C 447.9378,-130.8657 447.06728,-129.75754 445.84383,-129.95047 C 445.1427,-130.06105 444.55451,-130.67748 443.33106,-130.72453 C 441.59,-130.78806 439.46309,-129.75754 435.46571,-129.88459 C 431.53892,-130.01164 427.90623,-134.85131 427.41214,-135.62067 C 426.83101,-136.52414 426.12282,-136.52414 425.35111,-135.81595 C 424.57704,-135.10776 423.62417,-135.66537 423.35359,-136.13828 C 422.83834,-137.0394 421.45961,-139.67922 419.32563,-140.22977 C 416.37289,-140.99677 414.87888,-138.59459 415.0718,-136.68648 C 415.26709,-134.74779 416.52112,-134.2043 417.10226,-133.17613 C 417.68339,-132.14561 417.97985,-131.47978 419.06918,-131.02334 C 419.84324,-130.70336 420.13264,-130.22339 419.90207,-129.59049 C 419.69973,-129.03524 418.89507,-128.90819 418.3657,-128.88466 C 416.17457,-128.86756 415.34019,-129.96572 414.08129,-131.52683 C 413.40604,-132.63734 412.34258,-133.11966 411.10266,-133.11966 C 410.51212,-133.11966 409.95921,-132.96438 409.46748,-132.71028 C 407.52408,-131.70094 405.21365,-131.10098 402.72676,-131.10098 L 399.9199,-131.10098 C 398.55528,-135.15247 397.81416,-139.48864 397.81416,-144.00128 C 397.81416,-166.29153 415.88116,-184.35853 438.17141,-184.35853 C 460.46166,-184.35853 478.52866,-166.28917 478.52866,-144.00128 C 478.53337,-135.91006 476.15236,-128.37646 472.05616,-122.05924 z M 447.06499,-125.76011 C 447.27204,-125.55777 447.62966,-124.87781 447.19205,-124.01199 C 446.94736,-123.5532 446.68149,-123.23087 446.21094,-122.85442 C 445.64156,-122.40033 444.5334,-121.87331 443.01115,-122.8403 C 442.19238,-123.36027 442.14298,-123.53438 441.01364,-123.3885 C 440.20664,-123.28263 439.88431,-124.09669 440.17605,-124.77429 C 440.46544,-125.44954 441.65595,-125.99774 443.14055,-125.12721 C 443.80875,-124.7343 444.84632,-123.90847 445.75685,-124.64254 C 446.13565,-124.94369 446.36151,-125.14603 446.88383,-125.7507 C 446.90736,-125.77893 446.9403,-125.79305 446.97794,-125.79305 C 447.01088,-125.79305 447.04147,-125.78128 447.06499,-125.76011 z"
         id="path3647" />
      <path
         style="fill:none"
         d="M 472.05624,-122.06153 C 476.15244,-128.37875 478.5311,-135.91001 478.5311,-143.99652 C 478.5311,-166.28678 460.46409,-184.35379 438.17383,-184.35379 C 415.88358,-184.35379 397.81657,-166.28442 397.81657,-143.99652 C 397.81657,-139.48389 398.55769,-135.14771 399.92231,-131.09857 C 405.30547,-115.13494 420.39857,-103.6416 438.17383,-103.6416 C 452.37522,-103.6416 464.86144,-110.97523 472.05624,-122.06153 z"
         id="path3649" />
      <path
         style="fill:#cc0000"
         d="M 460.94868,-154.73466 C 460.54871,-153.39358 459.98169,-151.68075 457.45951,-150.38437 C 457.09248,-150.19615 456.95131,-150.50436 457.12071,-150.79375 C 458.07359,-152.41717 458.24534,-152.82185 458.52061,-153.46181 C 458.90882,-154.39586 459.11116,-155.72754 458.3418,-158.50382 C 456.82191,-163.96462 453.65741,-171.2653 451.35404,-173.63455 C 449.13537,-175.9191 445.10976,-176.56377 441.47236,-175.62971 C 440.13363,-175.28621 437.51028,-173.92159 432.64943,-175.01799 C 424.23824,-176.91198 422.99362,-172.7005 422.50895,-170.86533 C 422.02427,-169.03016 420.86671,-163.81404 420.86671,-163.81404 C 420.4785,-161.68948 419.975,-157.99562 433.03529,-155.50873 C 439.11958,-154.35116 439.43015,-152.77715 439.69836,-151.64546 C 440.18068,-149.61972 440.95475,-148.45744 441.82293,-147.88101 C 442.69346,-147.29988 441.82293,-146.81991 440.85829,-146.72109 C 438.26552,-146.45052 428.6897,-149.19857 423.02185,-152.41717 C 418.38687,-155.24992 418.30923,-157.80034 419.37034,-159.9649 C 412.36611,-160.72249 407.11235,-159.31082 406.15947,-155.9934 C 404.52194,-150.30438 418.66686,-140.58739 434.77164,-135.71008 C 451.67167,-130.59278 469.05402,-134.1643 470.988,-144.78711 C 471.87029,-149.61736 467.80469,-153.18653 460.94868,-154.73466 z M 435.03515,-165.13631 C 430.37429,-164.79986 429.88962,-164.29637 429.01674,-163.36702 C 427.78388,-162.05652 426.16282,-165.07043 426.16282,-165.07043 C 425.19112,-165.27512 424.01002,-166.84443 424.64763,-168.31021 C 425.27582,-169.75952 426.43339,-169.32426 426.79571,-168.87252 C 427.23804,-168.32433 428.1815,-167.42321 429.4026,-167.45615 C 430.62604,-167.48674 432.03771,-167.74554 434.00699,-167.74554 C 436.0045,-167.74554 437.34323,-166.99971 437.42087,-166.35976 C 437.48205,-165.81391 437.25853,-165.2963 435.03515,-165.13631 z M 439.93365,-172.84167 C 439.92658,-172.84167 439.91953,-172.83931 439.91247,-172.83931 C 439.83953,-172.83931 439.78307,-172.89343 439.78307,-172.96166 C 439.78307,-173.01107 439.8113,-173.05342 439.856,-173.07224 C 440.75947,-173.54985 442.10761,-173.92865 443.65104,-174.08629 C 444.11454,-174.1357 444.56627,-174.15922 445.00153,-174.16393 C 445.07917,-174.16393 445.15211,-174.16393 445.23211,-174.16158 C 447.82017,-174.10511 449.88826,-173.07694 449.85767,-171.86526 C 449.82709,-170.65593 447.70488,-169.72188 445.11917,-169.77834 C 444.28158,-169.79717 443.49575,-169.91951 442.81815,-170.11479 C 442.73816,-170.13597 442.67934,-170.2042 442.67934,-170.28419 C 442.67934,-170.36654 442.73816,-170.43477 442.82051,-170.45359 C 444.43451,-170.82769 445.52385,-171.43706 445.44856,-172.01584 C 445.34739,-172.7805 443.2346,-173.19458 440.73359,-172.94519 C 440.45831,-172.9146 440.1901,-172.87931 439.93365,-172.84167 z"
         id="path3651" />
    </g>
    <text
       xml:space="preserve"
       style="font-size:22.21381187px;font-style:normal;font-weight:normal;line-height:-62375%;opacity:0.3;fill:url(#linearGradient3657);fill-opacity:1;stroke:none;stroke-width:1px;stroke-linecap:butt;stroke-linejoin:miter;stroke-opacity:1;display:inline;font-family:Bitstream Vera Sans"
       x="249.79044"
       y="349.80328"
       id="text3653"
       sodipodi:linespacing="-62375%"><tspan
         sodipodi:role="line"
         id="tspan3655"
         x="249.79044"
         y="349.80328"
         style="font-size:20px;font-weight:bold;fill:url(#linearGradient3657);fill-opacity:1;font-family:Interstate-Black">MANAGEMENT PLATFORM</tspan></text>
    <text
       xml:space="preserve"
       style="font-size:22.21381187px;font-style:normal;font-weight:normal;line-height:-62375%;opacity:0.9;fill:#1a1a1a;fill-opacity:1;stroke:none;stroke-width:1px;stroke-linecap:butt;stroke-linejoin:miter;stroke-opacity:1;display:inline;font-family:Bitstream Vera Sans"
       x="249.79044"
       y="429.80328"
       id="text3659"
       sodipodi:linespacing="-62375%"><tspan
         sodipodi:role="line"
         id="tspan3661"
         x="249.79044"
         y="429.80328"
         style="font-size:20px;font-weight:bold;fill:#1a1a1a;font-family:Interstate-Black">MANAGEMENT PLATFORM</tspan></text>
    <text
       id="text3663"
       y="448.82062"
       x="250"
       style="font-size:17.61880302000000142px;font-style:normal;font-weight:normal;opacity:1;fill:#576d93;fill-opacity:1;stroke:none;stroke-width:1px;stroke-linecap:butt;stroke-linejoin:miter;stroke-opacity:1;display:inline;font-family:Bitstream Vera Sans"
       xml:space="preserve"><tspan
         style="font-weight:bold;fill:#576d93;fill-opacity:1;font-family:Interstate-Black"
         y="448.82062"
         x="250"
         id="tspan3665"
         sodipodi:role="line">ADMINISTRATION</tspan></text>
    <g
       style="opacity:0.9;display:inline"
       id="g3667"
       transform="matrix(0.4551898,0,0,0.4551898,20.43468,496.5794)">
      <path
         sodipodi:type="arc"
         style="fill:#ffffff"
         id="path3669"
         sodipodi:cx="35.433071"
         sodipodi:cy="68.503937"
         sodipodi:rx="20.251589"
         sodipodi:ry="20.251589"
         d="M 55.68466,68.503937 A 20.251589,20.251589 0 1 1 15.181482,68.503937 A 20.251589,20.251589 0 1 1 55.68466,68.503937 z"
         transform="matrix(1.9837414,0,0,1.9837414,367.91651,-279.94538)" />
      <path
         id="path3671"
         d="M 472.05616,-122.05924 C 467.92533,-123.11085 463.82391,-122.58579 459.81464,-121.35105 C 459.32294,-121.27914 459.58933,-120.73404 459.50878,-120.51346 C 459.73465,-119.85704 459.36291,-119.14414 457.50892,-118.73711 C 454.76087,-118.13245 453.02452,-115.29735 452.03164,-114.35623 C 450.86466,-113.24807 447.57077,-112.56577 448.06721,-113.2269 C 448.45542,-113.74451 449.93767,-115.35381 450.83878,-117.09487 C 451.64579,-118.65006 452.36339,-119.09238 453.35155,-120.57464 C 453.6433,-121.0099 454.76558,-122.53686 455.09261,-123.74618 C 455.45965,-124.92728 455.3373,-126.40953 455.47847,-127.0189 C 455.68081,-127.89884 456.50899,-129.80695 456.57487,-130.88452 C 456.61016,-131.49625 454.02915,-130.01635 452.80336,-130.01635 C 451.57756,-130.01635 450.38705,-130.74806 449.29065,-130.79982 C 447.9378,-130.8657 447.06728,-129.75754 445.84383,-129.95047 C 445.1427,-130.06105 444.55451,-130.67748 443.33106,-130.72453 C 441.59,-130.78806 439.46309,-129.75754 435.46571,-129.88459 C 431.53892,-130.01164 427.90623,-134.85131 427.41214,-135.62067 C 426.83101,-136.52414 426.12282,-136.52414 425.35111,-135.81595 C 424.57704,-135.10776 423.62417,-135.66537 423.35359,-136.13828 C 422.83834,-137.0394 421.45961,-139.67922 419.32563,-140.22977 C 416.37289,-140.99677 414.87888,-138.59459 415.0718,-136.68648 C 415.26709,-134.74779 416.52112,-134.2043 417.10226,-133.17613 C 417.68339,-132.14561 417.97985,-131.47978 419.06918,-131.02334 C 419.84324,-130.70336 420.13264,-130.22339 419.90207,-129.59049 C 419.69973,-129.03524 418.89507,-128.90819 418.3657,-128.88466 C 416.17457,-128.86756 415.34019,-129.96572 414.08129,-131.52683 C 413.40604,-132.63734 412.34258,-133.11966 411.10266,-133.11966 C 410.51212,-133.11966 409.95921,-132.96438 409.46748,-132.71028 C 407.52408,-131.70094 405.21365,-131.10098 402.72676,-131.10098 L 399.9199,-131.10098 C 398.55528,-135.15247 397.81416,-139.48864 397.81416,-144.00128 C 397.81416,-166.29153 415.88116,-184.35853 438.17141,-184.35853 C 460.46166,-184.35853 478.52866,-166.28917 478.52866,-144.00128 C 478.53337,-135.91006 476.15236,-128.37646 472.05616,-122.05924 z M 447.06499,-125.76011 C 447.27204,-125.55777 447.62966,-124.87781 447.19205,-124.01199 C 446.94736,-123.5532 446.68149,-123.23087 446.21094,-122.85442 C 445.64156,-122.40033 444.5334,-121.87331 443.01115,-122.8403 C 442.19238,-123.36027 442.14298,-123.53438 441.01364,-123.3885 C 440.20664,-123.28263 439.88431,-124.09669 440.17605,-124.77429 C 440.46544,-125.44954 441.65595,-125.99774 443.14055,-125.12721 C 443.80875,-124.7343 444.84632,-123.90847 445.75685,-124.64254 C 446.13565,-124.94369 446.36151,-125.14603 446.88383,-125.7507 C 446.90736,-125.77893 446.9403,-125.79305 446.97794,-125.79305 C 447.01088,-125.79305 447.04147,-125.78128 447.06499,-125.76011 z" />
      <path
         id="path3673"
         d="M 472.05624,-122.06153 C 476.15244,-128.37875 478.5311,-135.91001 478.5311,-143.99652 C 478.5311,-166.28678 460.46409,-184.35379 438.17383,-184.35379 C 415.88358,-184.35379 397.81657,-166.28442 397.81657,-143.99652 C 397.81657,-139.48389 398.55769,-135.14771 399.92231,-131.09857 C 405.30547,-115.13494 420.39857,-103.6416 438.17383,-103.6416 C 452.37522,-103.6416 464.86144,-110.97523 472.05624,-122.06153 z"
         style="fill:none" />
      <path
         id="path3675"
         d="M 460.94868,-154.73466 C 460.54871,-153.39358 459.98169,-151.68075 457.45951,-150.38437 C 457.09248,-150.19615 456.95131,-150.50436 457.12071,-150.79375 C 458.07359,-152.41717 458.24534,-152.82185 458.52061,-153.46181 C 458.90882,-154.39586 459.11116,-155.72754 458.3418,-158.50382 C 456.82191,-163.96462 453.65741,-171.2653 451.35404,-173.63455 C 449.13537,-175.9191 445.10976,-176.56377 441.47236,-175.62971 C 440.13363,-175.28621 437.51028,-173.92159 432.64943,-175.01799 C 424.23824,-176.91198 422.99362,-172.7005 422.50895,-170.86533 C 422.02427,-169.03016 420.86671,-163.81404 420.86671,-163.81404 C 420.4785,-161.68948 419.975,-157.99562 433.03529,-155.50873 C 439.11958,-154.35116 439.43015,-152.77715 439.69836,-151.64546 C 440.18068,-149.61972 440.95475,-148.45744 441.82293,-147.88101 C 442.69346,-147.29988 441.82293,-146.81991 440.85829,-146.72109 C 438.26552,-146.45052 428.6897,-149.19857 423.02185,-152.41717 C 418.38687,-155.24992 418.30923,-157.80034 419.37034,-159.9649 C 412.36611,-160.72249 407.11235,-159.31082 406.15947,-155.9934 C 404.52194,-150.30438 418.66686,-140.58739 434.77164,-135.71008 C 451.67167,-130.59278 469.05402,-134.1643 470.988,-144.78711 C 471.87029,-149.61736 467.80469,-153.18653 460.94868,-154.73466 z M 435.03515,-165.13631 C 430.37429,-164.79986 429.88962,-164.29637 429.01674,-163.36702 C 427.78388,-162.05652 426.16282,-165.07043 426.16282,-165.07043 C 425.19112,-165.27512 424.01002,-166.84443 424.64763,-168.31021 C 425.27582,-169.75952 426.43339,-169.32426 426.79571,-168.87252 C 427.23804,-168.32433 428.1815,-167.42321 429.4026,-167.45615 C 430.62604,-167.48674 432.03771,-167.74554 434.00699,-167.74554 C 436.0045,-167.74554 437.34323,-166.99971 437.42087,-166.35976 C 437.48205,-165.81391 437.25853,-165.2963 435.03515,-165.13631 z M 439.93365,-172.84167 C 439.92658,-172.84167 439.91953,-172.83931 439.91247,-172.83931 C 439.83953,-172.83931 439.78307,-172.89343 439.78307,-172.96166 C 439.78307,-173.01107 439.8113,-173.05342 439.856,-173.07224 C 440.75947,-173.54985 442.10761,-173.92865 443.65104,-174.08629 C 444.11454,-174.1357 444.56627,-174.15922 445.00153,-174.16393 C 445.07917,-174.16393 445.15211,-174.16393 445.23211,-174.16158 C 447.82017,-174.10511 449.88826,-173.07694 449.85767,-171.86526 C 449.82709,-170.65593 447.70488,-169.72188 445.11917,-169.77834 C 444.28158,-169.79717 443.49575,-169.91951 442.81815,-170.11479 C 442.73816,-170.13597 442.67934,-170.2042 442.67934,-170.28419 C 442.67934,-170.36654 442.73816,-170.43477 442.82051,-170.45359 C 444.43451,-170.82769 445.52385,-171.43706 445.44856,-172.01584 C 445.34739,-172.7805 443.2346,-173.19458 440.73359,-172.94519 C 440.45831,-172.9146 440.1901,-172.87931 439.93365,-172.84167 z"
         style="fill:#cc0000" />
    </g>
    <text
       sodipodi:linespacing="-62375%"
       id="text3677"
       y="429.80328"
       x="249.79044"
       style="font-size:22.21381187px;font-style:normal;font-weight:normal;line-height:-62375%;opacity:0.3;fill:url(#linearGradient3681);fill-opacity:1;stroke:none;stroke-width:1px;stroke-linecap:butt;stroke-linejoin:miter;stroke-opacity:1;display:inline;font-family:Bitstream Vera Sans"
       xml:space="preserve"><tspan
         style="font-size:20px;font-weight:bold;fill:url(#linearGradient3681);fill-opacity:1;font-family:Interstate-Black"
         y="429.80328"
         x="249.79044"
         id="tspan3679"
         sodipodi:role="line">MANAGEMENT PLATFORM</tspan></text>
    <text
       sodipodi:linespacing="-62375%"
       id="text3683"
       y="509.80328"
       x="249.79044"
       style="font-size:22.21381187px;font-style:normal;font-weight:normal;line-height:-62375%;opacity:0.9;fill:#1a1a1a;fill-opacity:1;stroke:none;stroke-width:1px;stroke-linecap:butt;stroke-linejoin:miter;stroke-opacity:1;display:inline;font-family:Bitstream Vera Sans"
       xml:space="preserve"><tspan
         style="font-size:20px;font-weight:bold;fill:#1a1a1a;font-family:Interstate-Black"
         y="509.80328"
         x="249.79044"
         id="tspan3685"
         sodipodi:role="line">MANAGEMENT PLATFORM</tspan></text>
    <text
       xml:space="preserve"
       style="font-size:17.61880302000000142px;font-style:normal;font-weight:normal;opacity:1;fill:#9da248;fill-opacity:1;stroke:none;stroke-width:1px;stroke-linecap:butt;stroke-linejoin:miter;stroke-opacity:1;display:inline;font-family:Bitstream Vera Sans"
       x="250"
       y="528.82062"
       id="text3687"><tspan
         sodipodi:role="line"
         id="tspan3689"
         x="250"
         y="528.82062"
         style="font-weight:bold;fill:#9da248;fill-opacity:1;font-family:Interstate-Black">MIDDLEWARE</tspan></text>
    <g
       transform="matrix(0.4551898,0,0,0.4551898,20.43468,576.5794)"
       id="g3691"
       style="opacity:0.9;display:inline">
      <path
         transform="matrix(1.9837414,0,0,1.9837414,367.91651,-279.94538)"
         d="M 55.68466,68.503937 A 20.251589,20.251589 0 1 1 15.181482,68.503937 A 20.251589,20.251589 0 1 1 55.68466,68.503937 z"
         sodipodi:ry="20.251589"
         sodipodi:rx="20.251589"
         sodipodi:cy="68.503937"
         sodipodi:cx="35.433071"
         id="path3693"
         style="fill:#ffffff"
         sodipodi:type="arc" />
      <path
         d="M 472.05616,-122.05924 C 467.92533,-123.11085 463.82391,-122.58579 459.81464,-121.35105 C 459.32294,-121.27914 459.58933,-120.73404 459.50878,-120.51346 C 459.73465,-119.85704 459.36291,-119.14414 457.50892,-118.73711 C 454.76087,-118.13245 453.02452,-115.29735 452.03164,-114.35623 C 450.86466,-113.24807 447.57077,-112.56577 448.06721,-113.2269 C 448.45542,-113.74451 449.93767,-115.35381 450.83878,-117.09487 C 451.64579,-118.65006 452.36339,-119.09238 453.35155,-120.57464 C 453.6433,-121.0099 454.76558,-122.53686 455.09261,-123.74618 C 455.45965,-124.92728 455.3373,-126.40953 455.47847,-127.0189 C 455.68081,-127.89884 456.50899,-129.80695 456.57487,-130.88452 C 456.61016,-131.49625 454.02915,-130.01635 452.80336,-130.01635 C 451.57756,-130.01635 450.38705,-130.74806 449.29065,-130.79982 C 447.9378,-130.8657 447.06728,-129.75754 445.84383,-129.95047 C 445.1427,-130.06105 444.55451,-130.67748 443.33106,-130.72453 C 441.59,-130.78806 439.46309,-129.75754 435.46571,-129.88459 C 431.53892,-130.01164 427.90623,-134.85131 427.41214,-135.62067 C 426.83101,-136.52414 426.12282,-136.52414 425.35111,-135.81595 C 424.57704,-135.10776 423.62417,-135.66537 423.35359,-136.13828 C 422.83834,-137.0394 421.45961,-139.67922 419.32563,-140.22977 C 416.37289,-140.99677 414.87888,-138.59459 415.0718,-136.68648 C 415.26709,-134.74779 416.52112,-134.2043 417.10226,-133.17613 C 417.68339,-132.14561 417.97985,-131.47978 419.06918,-131.02334 C 419.84324,-130.70336 420.13264,-130.22339 419.90207,-129.59049 C 419.69973,-129.03524 418.89507,-128.90819 418.3657,-128.88466 C 416.17457,-128.86756 415.34019,-129.96572 414.08129,-131.52683 C 413.40604,-132.63734 412.34258,-133.11966 411.10266,-133.11966 C 410.51212,-133.11966 409.95921,-132.96438 409.46748,-132.71028 C 407.52408,-131.70094 405.21365,-131.10098 402.72676,-131.10098 L 399.9199,-131.10098 C 398.55528,-135.15247 397.81416,-139.48864 397.81416,-144.00128 C 397.81416,-166.29153 415.88116,-184.35853 438.17141,-184.35853 C 460.46166,-184.35853 478.52866,-166.28917 478.52866,-144.00128 C 478.53337,-135.91006 476.15236,-128.37646 472.05616,-122.05924 z M 447.06499,-125.76011 C 447.27204,-125.55777 447.62966,-124.87781 447.19205,-124.01199 C 446.94736,-123.5532 446.68149,-123.23087 446.21094,-122.85442 C 445.64156,-122.40033 444.5334,-121.87331 443.01115,-122.8403 C 442.19238,-123.36027 442.14298,-123.53438 441.01364,-123.3885 C 440.20664,-123.28263 439.88431,-124.09669 440.17605,-124.77429 C 440.46544,-125.44954 441.65595,-125.99774 443.14055,-125.12721 C 443.80875,-124.7343 444.84632,-123.90847 445.75685,-124.64254 C 446.13565,-124.94369 446.36151,-125.14603 446.88383,-125.7507 C 446.90736,-125.77893 446.9403,-125.79305 446.97794,-125.79305 C 447.01088,-125.79305 447.04147,-125.78128 447.06499,-125.76011 z"
         id="path3695" />
      <path
         style="fill:none"
         d="M 472.05624,-122.06153 C 476.15244,-128.37875 478.5311,-135.91001 478.5311,-143.99652 C 478.5311,-166.28678 460.46409,-184.35379 438.17383,-184.35379 C 415.88358,-184.35379 397.81657,-166.28442 397.81657,-143.99652 C 397.81657,-139.48389 398.55769,-135.14771 399.92231,-131.09857 C 405.30547,-115.13494 420.39857,-103.6416 438.17383,-103.6416 C 452.37522,-103.6416 464.86144,-110.97523 472.05624,-122.06153 z"
         id="path3697" />
      <path
         style="fill:#cc0000"
         d="M 460.94868,-154.73466 C 460.54871,-153.39358 459.98169,-151.68075 457.45951,-150.38437 C 457.09248,-150.19615 456.95131,-150.50436 457.12071,-150.79375 C 458.07359,-152.41717 458.24534,-152.82185 458.52061,-153.46181 C 458.90882,-154.39586 459.11116,-155.72754 458.3418,-158.50382 C 456.82191,-163.96462 453.65741,-171.2653 451.35404,-173.63455 C 449.13537,-175.9191 445.10976,-176.56377 441.47236,-175.62971 C 440.13363,-175.28621 437.51028,-173.92159 432.64943,-175.01799 C 424.23824,-176.91198 422.99362,-172.7005 422.50895,-170.86533 C 422.02427,-169.03016 420.86671,-163.81404 420.86671,-163.81404 C 420.4785,-161.68948 419.975,-157.99562 433.03529,-155.50873 C 439.11958,-154.35116 439.43015,-152.77715 439.69836,-151.64546 C 440.18068,-149.61972 440.95475,-148.45744 441.82293,-147.88101 C 442.69346,-147.29988 441.82293,-146.81991 440.85829,-146.72109 C 438.26552,-146.45052 428.6897,-149.19857 423.02185,-152.41717 C 418.38687,-155.24992 418.30923,-157.80034 419.37034,-159.9649 C 412.36611,-160.72249 407.11235,-159.31082 406.15947,-155.9934 C 404.52194,-150.30438 418.66686,-140.58739 434.77164,-135.71008 C 451.67167,-130.59278 469.05402,-134.1643 470.988,-144.78711 C 471.87029,-149.61736 467.80469,-153.18653 460.94868,-154.73466 z M 435.03515,-165.13631 C 430.37429,-164.79986 429.88962,-164.29637 429.01674,-163.36702 C 427.78388,-162.05652 426.16282,-165.07043 426.16282,-165.07043 C 425.19112,-165.27512 424.01002,-166.84443 424.64763,-168.31021 C 425.27582,-169.75952 426.43339,-169.32426 426.79571,-168.87252 C 427.23804,-168.32433 428.1815,-167.42321 429.4026,-167.45615 C 430.62604,-167.48674 432.03771,-167.74554 434.00699,-167.74554 C 436.0045,-167.74554 437.34323,-166.99971 437.42087,-166.35976 C 437.48205,-165.81391 437.25853,-165.2963 435.03515,-165.13631 z M 439.93365,-172.84167 C 439.92658,-172.84167 439.91953,-172.83931 439.91247,-172.83931 C 439.83953,-172.83931 439.78307,-172.89343 439.78307,-172.96166 C 439.78307,-173.01107 439.8113,-173.05342 439.856,-173.07224 C 440.75947,-173.54985 442.10761,-173.92865 443.65104,-174.08629 C 444.11454,-174.1357 444.56627,-174.15922 445.00153,-174.16393 C 445.07917,-174.16393 445.15211,-174.16393 445.23211,-174.16158 C 447.82017,-174.10511 449.88826,-173.07694 449.85767,-171.86526 C 449.82709,-170.65593 447.70488,-169.72188 445.11917,-169.77834 C 444.28158,-169.79717 443.49575,-169.91951 442.81815,-170.11479 C 442.73816,-170.13597 442.67934,-170.2042 442.67934,-170.28419 C 442.67934,-170.36654 442.73816,-170.43477 442.82051,-170.45359 C 444.43451,-170.82769 445.52385,-171.43706 445.44856,-172.01584 C 445.34739,-172.7805 443.2346,-173.19458 440.73359,-172.94519 C 440.45831,-172.9146 440.1901,-172.87931 439.93365,-172.84167 z"
         id="path3699" />
    </g>
    <text
       xml:space="preserve"
       style="font-size:22.21381187px;font-style:normal;font-weight:normal;line-height:-62375%;opacity:0.3;fill:url(#linearGradient3705);fill-opacity:1;stroke:none;stroke-width:1px;stroke-linecap:butt;stroke-linejoin:miter;stroke-opacity:1;display:inline;font-family:Bitstream Vera Sans"
       x="249.79044"
       y="509.80328"
       id="text3701"
       sodipodi:linespacing="-62375%"><tspan
         sodipodi:role="line"
         id="tspan3703"
         x="249.79044"
         y="509.80328"
         style="font-size:20px;font-weight:bold;fill:url(#linearGradient3705);fill-opacity:1;font-family:Interstate-Black">MANAGEMENT PLATFORM</tspan></text>
    <text
       xml:space="preserve"
       style="font-size:22.21381187px;font-style:normal;font-weight:normal;line-height:-62375%;opacity:0.9;fill:#1a1a1a;fill-opacity:1;stroke:none;stroke-width:1px;stroke-linecap:butt;stroke-linejoin:miter;stroke-opacity:1;display:inline;font-family:Bitstream Vera Sans"
       x="249.79044"
       y="589.80328"
       id="text3707"
       sodipodi:linespacing="-62375%"><tspan
         sodipodi:role="line"
         id="tspan3709"
         x="249.79044"
         y="589.80328"
         style="font-size:20px;font-weight:bold;fill:#1a1a1a;font-family:Interstate-Black">MANAGEMENT PLATFORM</tspan></text>
    <text
       id="text3711"
       y="608.82062"
       x="250"
       style="font-size:17.61880302000000142px;font-style:normal;font-weight:normal;opacity:1;fill:#865793;fill-opacity:1;stroke:none;stroke-width:1px;stroke-linecap:butt;stroke-linejoin:miter;stroke-opacity:1;display:inline;font-family:Bitstream Vera Sans"
       xml:space="preserve"><tspan
         style="font-weight:bold;fill:#865793;fill-opacity:1;font-family:Interstate-Black"
         y="608.82062"
         x="250"
         id="tspan3713"
         sodipodi:role="line">PORTAL</tspan></text>
    <g
       style="opacity:0.9;display:inline"
       id="g3715"
       transform="matrix(0.4551898,0,0,0.4551898,20.43468,656.5794)">
      <path
         sodipodi:type="arc"
         style="fill:#ffffff"
         id="path3717"
         sodipodi:cx="35.433071"
         sodipodi:cy="68.503937"
         sodipodi:rx="20.251589"
         sodipodi:ry="20.251589"
         d="M 55.68466,68.503937 A 20.251589,20.251589 0 1 1 15.181482,68.503937 A 20.251589,20.251589 0 1 1 55.68466,68.503937 z"
         transform="matrix(1.9837414,0,0,1.9837414,367.91651,-279.94538)" />
      <path
         id="path3719"
         d="M 472.05616,-122.05924 C 467.92533,-123.11085 463.82391,-122.58579 459.81464,-121.35105 C 459.32294,-121.27914 459.58933,-120.73404 459.50878,-120.51346 C 459.73465,-119.85704 459.36291,-119.14414 457.50892,-118.73711 C 454.76087,-118.13245 453.02452,-115.29735 452.03164,-114.35623 C 450.86466,-113.24807 447.57077,-112.56577 448.06721,-113.2269 C 448.45542,-113.74451 449.93767,-115.35381 450.83878,-117.09487 C 451.64579,-118.65006 452.36339,-119.09238 453.35155,-120.57464 C 453.6433,-121.0099 454.76558,-122.53686 455.09261,-123.74618 C 455.45965,-124.92728 455.3373,-126.40953 455.47847,-127.0189 C 455.68081,-127.89884 456.50899,-129.80695 456.57487,-130.88452 C 456.61016,-131.49625 454.02915,-130.01635 452.80336,-130.01635 C 451.57756,-130.01635 450.38705,-130.74806 449.29065,-130.79982 C 447.9378,-130.8657 447.06728,-129.75754 445.84383,-129.95047 C 445.1427,-130.06105 444.55451,-130.67748 443.33106,-130.72453 C 441.59,-130.78806 439.46309,-129.75754 435.46571,-129.88459 C 431.53892,-130.01164 427.90623,-134.85131 427.41214,-135.62067 C 426.83101,-136.52414 426.12282,-136.52414 425.35111,-135.81595 C 424.57704,-135.10776 423.62417,-135.66537 423.35359,-136.13828 C 422.83834,-137.0394 421.45961,-139.67922 419.32563,-140.22977 C 416.37289,-140.99677 414.87888,-138.59459 415.0718,-136.68648 C 415.26709,-134.74779 416.52112,-134.2043 417.10226,-133.17613 C 417.68339,-132.14561 417.97985,-131.47978 419.06918,-131.02334 C 419.84324,-130.70336 420.13264,-130.22339 419.90207,-129.59049 C 419.69973,-129.03524 418.89507,-128.90819 418.3657,-128.88466 C 416.17457,-128.86756 415.34019,-129.96572 414.08129,-131.52683 C 413.40604,-132.63734 412.34258,-133.11966 411.10266,-133.11966 C 410.51212,-133.11966 409.95921,-132.96438 409.46748,-132.71028 C 407.52408,-131.70094 405.21365,-131.10098 402.72676,-131.10098 L 399.9199,-131.10098 C 398.55528,-135.15247 397.81416,-139.48864 397.81416,-144.00128 C 397.81416,-166.29153 415.88116,-184.35853 438.17141,-184.35853 C 460.46166,-184.35853 478.52866,-166.28917 478.52866,-144.00128 C 478.53337,-135.91006 476.15236,-128.37646 472.05616,-122.05924 z M 447.06499,-125.76011 C 447.27204,-125.55777 447.62966,-124.87781 447.19205,-124.01199 C 446.94736,-123.5532 446.68149,-123.23087 446.21094,-122.85442 C 445.64156,-122.40033 444.5334,-121.87331 443.01115,-122.8403 C 442.19238,-123.36027 442.14298,-123.53438 441.01364,-123.3885 C 440.20664,-123.28263 439.88431,-124.09669 440.17605,-124.77429 C 440.46544,-125.44954 441.65595,-125.99774 443.14055,-125.12721 C 443.80875,-124.7343 444.84632,-123.90847 445.75685,-124.64254 C 446.13565,-124.94369 446.36151,-125.14603 446.88383,-125.7507 C 446.90736,-125.77893 446.9403,-125.79305 446.97794,-125.79305 C 447.01088,-125.79305 447.04147,-125.78128 447.06499,-125.76011 z" />
      <path
         id="path3721"
         d="M 472.05624,-122.06153 C 476.15244,-128.37875 478.5311,-135.91001 478.5311,-143.99652 C 478.5311,-166.28678 460.46409,-184.35379 438.17383,-184.35379 C 415.88358,-184.35379 397.81657,-166.28442 397.81657,-143.99652 C 397.81657,-139.48389 398.55769,-135.14771 399.92231,-131.09857 C 405.30547,-115.13494 420.39857,-103.6416 438.17383,-103.6416 C 452.37522,-103.6416 464.86144,-110.97523 472.05624,-122.06153 z"
         style="fill:none" />
      <path
         id="path3723"
         d="M 460.94868,-154.73466 C 460.54871,-153.39358 459.98169,-151.68075 457.45951,-150.38437 C 457.09248,-150.19615 456.95131,-150.50436 457.12071,-150.79375 C 458.07359,-152.41717 458.24534,-152.82185 458.52061,-153.46181 C 458.90882,-154.39586 459.11116,-155.72754 458.3418,-158.50382 C 456.82191,-163.96462 453.65741,-171.2653 451.35404,-173.63455 C 449.13537,-175.9191 445.10976,-176.56377 441.47236,-175.62971 C 440.13363,-175.28621 437.51028,-173.92159 432.64943,-175.01799 C 424.23824,-176.91198 422.99362,-172.7005 422.50895,-170.86533 C 422.02427,-169.03016 420.86671,-163.81404 420.86671,-163.81404 C 420.4785,-161.68948 419.975,-157.99562 433.03529,-155.50873 C 439.11958,-154.35116 439.43015,-152.77715 439.69836,-151.64546 C 440.18068,-149.61972 440.95475,-148.45744 441.82293,-147.88101 C 442.69346,-147.29988 441.82293,-146.81991 440.85829,-146.72109 C 438.26552,-146.45052 428.6897,-149.19857 423.02185,-152.41717 C 418.38687,-155.24992 418.30923,-157.80034 419.37034,-159.9649 C 412.36611,-160.72249 407.11235,-159.31082 406.15947,-155.9934 C 404.52194,-150.30438 418.66686,-140.58739 434.77164,-135.71008 C 451.67167,-130.59278 469.05402,-134.1643 470.988,-144.78711 C 471.87029,-149.61736 467.80469,-153.18653 460.94868,-154.73466 z M 435.03515,-165.13631 C 430.37429,-164.79986 429.88962,-164.29637 429.01674,-163.36702 C 427.78388,-162.05652 426.16282,-165.07043 426.16282,-165.07043 C 425.19112,-165.27512 424.01002,-166.84443 424.64763,-168.31021 C 425.27582,-169.75952 426.43339,-169.32426 426.79571,-168.87252 C 427.23804,-168.32433 428.1815,-167.42321 429.4026,-167.45615 C 430.62604,-167.48674 432.03771,-167.74554 434.00699,-167.74554 C 436.0045,-167.74554 437.34323,-166.99971 437.42087,-166.35976 C 437.48205,-165.81391 437.25853,-165.2963 435.03515,-165.13631 z M 439.93365,-172.84167 C 439.92658,-172.84167 439.91953,-172.83931 439.91247,-172.83931 C 439.83953,-172.83931 439.78307,-172.89343 439.78307,-172.96166 C 439.78307,-173.01107 439.8113,-173.05342 439.856,-173.07224 C 440.75947,-173.54985 442.10761,-173.92865 443.65104,-174.08629 C 444.11454,-174.1357 444.56627,-174.15922 445.00153,-174.16393 C 445.07917,-174.16393 445.15211,-174.16393 445.23211,-174.16158 C 447.82017,-174.10511 449.88826,-173.07694 449.85767,-171.86526 C 449.82709,-170.65593 447.70488,-169.72188 445.11917,-169.77834 C 444.28158,-169.79717 443.49575,-169.91951 442.81815,-170.11479 C 442.73816,-170.13597 442.67934,-170.2042 442.67934,-170.28419 C 442.67934,-170.36654 442.73816,-170.43477 442.82051,-170.45359 C 444.43451,-170.82769 445.52385,-171.43706 445.44856,-172.01584 C 445.34739,-172.7805 443.2346,-173.19458 440.73359,-172.94519 C 440.45831,-172.9146 440.1901,-172.87931 439.93365,-172.84167 z"
         style="fill:#cc0000" />
    </g>
    <text
       sodipodi:linespacing="-62375%"
       id="text3725"
       y="589.80328"
       x="249.79044"
       style="font-size:22.21381187px;font-style:normal;font-weight:normal;line-height:-62375%;opacity:0.3;fill:url(#linearGradient3729);fill-opacity:1;stroke:none;stroke-width:1px;stroke-linecap:butt;stroke-linejoin:miter;stroke-opacity:1;display:inline;font-family:Bitstream Vera Sans"
       xml:space="preserve"><tspan
         style="font-size:20px;font-weight:bold;fill:url(#linearGradient3729);fill-opacity:1;font-family:Interstate-Black"
         y="589.80328"
         x="249.79044"
         id="tspan3727"
         sodipodi:role="line">MANAGEMENT PLATFORM</tspan></text>
  </g>
</svg>
