<?xml version="1.0" encoding="UTF-8" standalone="no"?>
<!-- Created with Inkscape (http://www.inkscape.org/) -->
<svg
   xmlns:dc="http://purl.org/dc/elements/1.1/"
   xmlns:cc="http://creativecommons.org/ns#"
   xmlns:rdf="http://www.w3.org/1999/02/22-rdf-syntax-ns#"
   xmlns:svg="http://www.w3.org/2000/svg"
   xmlns="http://www.w3.org/2000/svg"
   xmlns:xlink="http://www.w3.org/1999/xlink"
   xmlns:sodipodi="http://sodipodi.sourceforge.net/DTD/sodipodi-0.dtd"
   xmlns:inkscape="http://www.inkscape.org/namespaces/inkscape"
   width="744.09448819"
   height="1052.3622047"
   id="svg4132"
   sodipodi:version="0.32"
   inkscape:version="0.45+devel"
   sodipodi:docname="object-icons.svg"
   inkscape:output_extension="org.inkscape.output.svg.inkscape">
  <defs
     id="defs4134">
    <linearGradient
       id="linearGradient7112">
      <stop
         offset="0"
         style="stop-color:#515151;stop-opacity:1;"
         id="stop7114" />
      <stop
         offset="1"
         style="stop-color:#e8e8e8;stop-opacity:1;"
         id="stop7116" />
    </linearGradient>
    <filter
       id="filter3386"
       inkscape:collect="always">
      <feGaussianBlur
         id="feGaussianBlur3388"
         stdDeviation="0.40485293"
         inkscape:collect="always" />
    </filter>
    <filter
       id="filter3370"
       inkscape:collect="always">
      <feGaussianBlur
         id="feGaussianBlur3372"
         stdDeviation="0.95226949"
         inkscape:collect="always" />
    </filter>
    <filter
       id="filter3342"
       inkscape:collect="always">
      <feGaussianBlur
         id="feGaussianBlur3344"
         stdDeviation="0.79970586"
         inkscape:collect="always" />
    </filter>
    <linearGradient
       gradientUnits="userSpaceOnUse"
       y2="371.36646"
       x2="328"
       y1="340.36218"
       x1="328"
       id="linearGradient14559"
       xlink:href="#linearGradient14553"
       inkscape:collect="always" />
    <filter
       id="filter14008"
       height="1.2573531"
       y="-0.12867656"
       width="1.0216852"
       x="-0.010842626"
       inkscape:collect="always">
      <feGaussianBlur
         id="feGaussianBlur14010"
         stdDeviation="1.5071252"
         inkscape:collect="always" />
    </filter>
    <clipPath
       id="clipPath8371"
       clipPathUnits="userSpaceOnUse">
      <rect
         style="fill:url(#linearGradient8375);fill-opacity:1;stroke:none;stroke-width:1;stroke-linecap:round;stroke-linejoin:round;stroke-miterlimit:4;stroke-dasharray:none;stroke-dashoffset:0;stroke-opacity:1"
         id="rect8373"
         width="38"
         height="38"
         x="-286"
         y="569.36218" />
    </clipPath>
    <linearGradient
       id="linearGradient8294">
      <stop
         id="stop8296"
         offset="0"
         style="stop-color:#363636;stop-opacity:1;" />
      <stop
         id="stop8298"
         offset="1"
         style="stop-color:#515151;stop-opacity:1;" />
    </linearGradient>
    <clipPath
       id="clipPath13330"
       clipPathUnits="userSpaceOnUse">
      <rect
         style="fill:url(#linearGradient13334);fill-opacity:1;stroke:none;stroke-width:1;stroke-linecap:round;stroke-linejoin:round;stroke-miterlimit:4;stroke-dasharray:none;stroke-dashoffset:0;stroke-opacity:1"
         id="rect13332"
         width="38"
         height="38"
         x="712"
         y="70" />
    </clipPath>
    <filter
       id="filter12351"
       inkscape:collect="always">
      <feGaussianBlur
         id="feGaussianBlur12353"
         stdDeviation="1.1120777"
         inkscape:collect="always" />
    </filter>
    <linearGradient
       id="linearGradient4632">
      <stop
         id="stop4634"
         offset="0"
         style="stop-color:#515151;stop-opacity:1;" />
      <stop
         id="stop4636"
         offset="1"
         style="stop-color:#e8e8e8;stop-opacity:1;" />
    </linearGradient>
    <clipPath
       id="clipPath12158"
       clipPathUnits="userSpaceOnUse">
      <rect
         transform="matrix(0.907923,0.419137,-0.419137,0.907923,0,0)"
         style="fill:#bc80bd;fill-opacity:1;stroke:none;stroke-width:0.99999994;stroke-linecap:round;stroke-linejoin:round;stroke-miterlimit:4;stroke-dasharray:none;stroke-dashoffset:0;stroke-opacity:1"
         id="rect12160"
         width="45.808178"
         height="45.808178"
         x="692.23199"
         y="-255.08562" />
    </clipPath>
    <linearGradient
       id="linearGradient11999">
      <stop
         id="stop12001"
         offset="0"
         style="stop-color:#343434;stop-opacity:1;" />
      <stop
         id="stop12003"
         offset="1"
         style="stop-color:#666666;stop-opacity:1;" />
    </linearGradient>
    <clipPath
       id="clipPath8204"
       clipPathUnits="userSpaceOnUse">
      <rect
         y="394.36218"
         x="38"
         height="38"
         width="38"
         id="rect8206"
         style="fill:url(#linearGradient8208);fill-opacity:1;stroke:none;stroke-width:1;stroke-linecap:round;stroke-linejoin:round;stroke-miterlimit:4;stroke-dasharray:none;stroke-dashoffset:0;stroke-opacity:1" />
    </clipPath>
    <linearGradient
       id="linearGradient13770">
      <stop
         id="stop13772"
         offset="0"
         style="stop-color:#333333;stop-opacity:1;" />
      <stop
         id="stop13774"
         offset="1"
         style="stop-color:#b0b0b0;stop-opacity:1;" />
    </linearGradient>
    <linearGradient
       id="linearGradient14553"
       inkscape:collect="always">
      <stop
         id="stop14555"
         offset="0"
         style="stop-color:#ffffff;stop-opacity:1;" />
      <stop
         id="stop14557"
         offset="1"
         style="stop-color:#ffffff;stop-opacity:0;" />
    </linearGradient>
    <linearGradient
       inkscape:collect="always"
       xlink:href="#linearGradient7112"
       id="linearGradient5029"
       gradientUnits="userSpaceOnUse"
       gradientTransform="translate(-256,269)"
       x1="57.000015"
       y1="385.86218"
       x2="57.000015"
       y2="350.36218" />
    <linearGradient
       inkscape:collect="always"
       xlink:href="#linearGradient7112"
       id="linearGradient5036"
       gradientUnits="userSpaceOnUse"
       gradientTransform="translate(67.999983,620.99998)"
       x1="57.000015"
       y1="408.36218"
       x2="57.000015"
       y2="350.36218" />
    <linearGradient
       inkscape:collect="always"
       xlink:href="#linearGradient7112"
       id="linearGradient5038"
       gradientUnits="userSpaceOnUse"
       gradientTransform="translate(160,70.999941)"
       x1="57.000015"
       y1="408.36218"
       x2="57.000015"
       y2="350.36218" />
    <linearGradient
       inkscape:collect="always"
       xlink:href="#linearGradient11999"
       id="linearGradient5040"
       gradientUnits="userSpaceOnUse"
       x1="749"
       y1="82.397659"
       x2="749"
       y2="107.18301" />
    <linearGradient
       inkscape:collect="always"
       xlink:href="#linearGradient7112"
       id="linearGradient5042"
       gradientUnits="userSpaceOnUse"
       gradientTransform="translate(-324.00002,225)"
       x1="57.000015"
       y1="408.36218"
       x2="57.000015"
       y2="350.36218" />
    <linearGradient
       inkscape:collect="always"
       xlink:href="#linearGradient8294"
       id="linearGradient5044"
       gradientUnits="userSpaceOnUse"
       x1="-245"
       y1="579.86218"
       x2="-163.75"
       y2="582.11218" />
    <linearGradient
       inkscape:collect="always"
       xlink:href="#linearGradient7112"
       id="linearGradient5046"
       gradientUnits="userSpaceOnUse"
       gradientTransform="translate(209.99998,-32.000059)"
       x1="57.000015"
       y1="408.36218"
       x2="57.000015"
       y2="350.36218" />
    <linearGradient
       inkscape:collect="always"
       xlink:href="#linearGradient8294"
       id="linearGradient5048"
       gradientUnits="userSpaceOnUse"
       x1="-245"
       y1="579.86218"
       x2="-163.75"
       y2="582.11218" />
    <linearGradient
       inkscape:collect="always"
       xlink:href="#linearGradient7112"
       id="linearGradient5050"
       gradientUnits="userSpaceOnUse"
       gradientTransform="translate(-324.00002,225)"
       x1="57.000015"
       y1="408.36218"
       x2="57.000015"
       y2="350.36218" />
    <linearGradient
       inkscape:collect="always"
       xlink:href="#linearGradient8294"
       id="linearGradient5052"
       gradientUnits="userSpaceOnUse"
       x1="-245"
       y1="579.86218"
       x2="-163.75"
       y2="582.11218" />
    <linearGradient
       inkscape:collect="always"
       xlink:href="#linearGradient7112"
       id="linearGradient5054"
       gradientUnits="userSpaceOnUse"
       x1="57.000015"
       y1="408.36218"
       x2="57.000015"
       y2="350.36218" />
    <linearGradient
       inkscape:collect="always"
       xlink:href="#linearGradient7112"
       id="linearGradient5100"
       gradientUnits="userSpaceOnUse"
       x1="57.000015"
       y1="408.36218"
       x2="57.000015"
       y2="350.36218" />
    <linearGradient
       inkscape:collect="always"
       xlink:href="#linearGradient7112"
       id="linearGradient5105"
       gradientUnits="userSpaceOnUse"
       x1="57.000015"
       y1="408.36218"
       x2="57.000015"
       y2="350.36218"
       gradientTransform="translate(176.99998,680)" />
  </defs>
  <sodipodi:namedview
     id="base"
     pagecolor="#ffffff"
     bordercolor="#666666"
     borderopacity="1.0"
     gridtolerance="10000"
     guidetolerance="10"
     objecttolerance="10"
     inkscape:pageopacity="0.0"
     inkscape:pageshadow="2"
     inkscape:zoom="2.8284271"
     inkscape:cx="263.14015"
     inkscape:cy="29.229401"
     inkscape:document-units="px"
     inkscape:current-layer="layer1"
     showgrid="false"
     inkscape:window-width="640"
     inkscape:window-height="689"
     inkscape:window-x="0"
     inkscape:window-y="25" />
  <metadata
     id="metadata4137">
    <rdf:RDF>
      <cc:Work
         rdf:about="">
        <dc:format>image/svg+xml</dc:format>
        <dc:type
           rdf:resource="http://purl.org/dc/dcmitype/StillImage" />
      </cc:Work>
    </rdf:RDF>
  </metadata>
  <g
     inkscape:label="Layer 1"
     inkscape:groupmode="layer"
     id="layer1">
    <g
       id="g5031"
       transform="translate(-10,-1)">
      <rect
         inkscape:export-ydpi="90"
         inkscape:export-xdpi="90"
         inkscape:export-filename="/home/duffy/Desktop/object-overview.png"
         height="39"
         x="105.5"
         y="964.86218"
         width="39"
         id="rect3781"
         style="fill:url(#linearGradient5036);fill-opacity:1;stroke:#7b7b7b;stroke-width:1;stroke-linecap:round;stroke-linejoin:round;stroke-miterlimit:4;stroke-dasharray:none;stroke-dashoffset:0;stroke-opacity:1;display:inline" />
      <rect
         inkscape:export-ydpi="90"
         inkscape:export-xdpi="90"
         inkscape:export-filename="/home/duffy/Desktop/object-overview.png"
         height="37"
         x="106.5"
         y="965.86218"
         width="37"
         id="rect3785"
         style="fill:none;fill-opacity:1;stroke:#ffffff;stroke-width:0.99999994;stroke-linecap:round;stroke-linejoin:round;stroke-miterlimit:4;stroke-dasharray:none;stroke-dashoffset:0;stroke-opacity:1;display:inline" />
      <path
         inkscape:export-ydpi="90"
         inkscape:export-xdpi="90"
         inkscape:export-filename="/home/duffy/Desktop/object-overview.png"
         transform="matrix(0.6303825,0.2654954,-0.2654954,0.6303825,-29.029591,777.41857)"
         d="M 343.73499,201.81665 L 327.72771,197.12653 L 320.50218,212.16057 L 320.01623,195.48741 L 303.4852,193.2613 L 319.19215,187.64684 L 316.20094,171.23699 L 326.39432,184.44022 L 341.07668,176.52449 L 331.66959,190.299 L 343.73499,201.81665 z"
         inkscape:randomized="0"
         inkscape:rounded="0"
         inkscape:flatsided="false"
         sodipodi:arg2="1.1519173"
         sodipodi:arg1="0.52359878"
         sodipodi:r2="6.7063255"
         sodipodi:r1="21.633308"
         sodipodi:cy="191"
         sodipodi:cx="325"
         sodipodi:sides="5"
         id="path6455"
         style="opacity:1;fill:#333333;fill-opacity:1;stroke:none;stroke-width:1;stroke-miterlimit:4;stroke-dasharray:6, 2;stroke-dashoffset:0;stroke-opacity:1;display:inline"
         sodipodi:type="star" />
    </g>
    <g
       transform="translate(560,395)"
       id="g8405">
      <rect
         style="fill:url(#linearGradient5050);fill-opacity:1;stroke:#7b7b7b;stroke-width:1;stroke-linecap:round;stroke-linejoin:round;stroke-miterlimit:4;stroke-dasharray:none;stroke-dashoffset:0;stroke-opacity:1"
         id="rect8407"
         width="39"
         height="39"
         x="-286.5"
         y="568.86218" />
      <g
         id="g8409"
         clip-path="url(#clipPath8371)">
        <path
           sodipodi:nodetypes="csssc"
           id="path8411"
           d="M -277.89297,609.00623 C -277.89297,609.00623 -281.4285,605.11714 -277.53941,599.46029 C -273.65032,593.80343 -266.2257,607.23846 -257.03332,599.46029 C -247.84093,591.68211 -267.28636,590.62145 -275.06454,591.32856 C -282.84271,592.03567 -271.17545,580.36841 -271.17545,580.36841"
           style="fill:none;fill-rule:evenodd;stroke:#000000;stroke-width:1px;stroke-linecap:butt;stroke-linejoin:miter;stroke-opacity:1" />
        <g
           id="g8413"
           transform="matrix(0.5023142,0,0,0.5023142,-166.22664,288.45208)">
          <path
             sodipodi:nodetypes="ccccc"
             id="path8415"
             d="M -305.7321,447.99483 L -260.73223,447.29905 L -263.80326,462.70441 L -305.11844,464.85902 L -305.7321,447.99483 z"
             style="fill:#363636;fill-opacity:1;stroke:none;stroke-width:0.99999994;stroke-linecap:round;stroke-linejoin:round;stroke-miterlimit:4;stroke-dasharray:0.99999994, 3.99999976;stroke-dashoffset:0;stroke-opacity:1"
             transform="matrix(0.8659831,-0.5000732,0.1424269,0.9898053,0,0)" />
          <path
             sodipodi:nodetypes="ccccc"
             id="path8417"
             d="M 314.67807,673.97502 L 360.25791,673.97502 L 360.6403,690.60469 L 314.79456,690.5454 L 314.67807,673.97502 z"
             style="fill:#2e2e2e;fill-opacity:1;stroke:none;stroke-width:0.99999994;stroke-linecap:round;stroke-linejoin:round;stroke-miterlimit:4;stroke-dasharray:0.99999994, 3.99999976;stroke-dashoffset:0;stroke-opacity:1"
             transform="matrix(-0.975459,-0.2201813,0.158104,0.9874225,0,0)" />
          <path
             sodipodi:nodetypes="ccccc"
             id="path8419"
             d="M -215,572.86218 L -162.00335,573.1055 L -200.5,596.86218 L -245,586.86218 L -215,572.86218 z"
             style="fill:url(#linearGradient5052);fill-opacity:1;stroke:none;stroke-width:0.99999994;stroke-linecap:round;stroke-linejoin:round;stroke-miterlimit:4;stroke-dasharray:0.99999994, 3.99999976;stroke-dashoffset:0;stroke-opacity:1" />
          <path
             transform="matrix(0.6818182,0,0,0.6818182,-66.772727,191.39365)"
             d="M -188.25,596.48718 A 1.375,1.25 0 1 1 -191,596.48718 A 1.375,1.25 0 1 1 -188.25,596.48718 z"
             sodipodi:ry="1.25"
             sodipodi:rx="1.375"
             sodipodi:cy="596.48718"
             sodipodi:cx="-189.625"
             id="path8421"
             style="opacity:1;fill:#ccebb9;fill-opacity:1;stroke:none;stroke-width:0.99999994;stroke-linecap:round;stroke-linejoin:round;stroke-miterlimit:4;stroke-dasharray:0.99999994, 3.99999976;stroke-dashoffset:0;stroke-opacity:1"
             sodipodi:type="arc" />
          <path
             sodipodi:type="arc"
             style="opacity:1;fill:#ccebb9;fill-opacity:1;stroke:none;stroke-width:0.99999994;stroke-linecap:round;stroke-linejoin:round;stroke-miterlimit:4;stroke-dasharray:0.99999994, 3.99999976;stroke-dashoffset:0;stroke-opacity:1"
             id="path8423"
             sodipodi:cx="-189.625"
             sodipodi:cy="596.48718"
             sodipodi:rx="1.375"
             sodipodi:ry="1.25"
             d="M -188.25,596.48718 A 1.375,1.25 0 1 1 -191,596.48718 A 1.375,1.25 0 1 1 -188.25,596.48718 z"
             transform="matrix(0.6818182,0,0,0.6818182,-62.772727,189.39365)" />
          <path
             transform="matrix(0.6818182,0,0,0.6818182,-59.147727,187.39365)"
             d="M -188.25,596.48718 A 1.375,1.25 0 1 1 -191,596.48718 A 1.375,1.25 0 1 1 -188.25,596.48718 z"
             sodipodi:ry="1.25"
             sodipodi:rx="1.375"
             sodipodi:cy="596.48718"
             sodipodi:cx="-189.625"
             id="path8425"
             style="opacity:1;fill:#ccebb9;fill-opacity:1;stroke:none;stroke-width:0.99999994;stroke-linecap:round;stroke-linejoin:round;stroke-miterlimit:4;stroke-dasharray:0.99999994, 3.99999976;stroke-dashoffset:0;stroke-opacity:1"
             sodipodi:type="arc" />
          <path
             sodipodi:nodetypes="ccccc"
             id="path8427"
             d="M -300.76169,539.41406 L -297.76523,538.02658 L -298.53986,549.34339 L -301.33204,549.75196 L -300.76169,539.41406 z"
             style="fill:#000000;fill-opacity:1;stroke:none;stroke-width:0.99999994;stroke-linecap:round;stroke-linejoin:round;stroke-miterlimit:4;stroke-dasharray:0.99999994, 3.99999976;stroke-dashoffset:0;stroke-opacity:1"
             transform="matrix(0.9789121,-0.204282,0.204282,0.9789121,0,0)" />
          <path
             style="fill:#000000;fill-opacity:1;stroke:none;stroke-width:0.99999994;stroke-linecap:round;stroke-linejoin:round;stroke-miterlimit:4;stroke-dasharray:0.99999994, 3.99999976;stroke-dashoffset:0;stroke-opacity:1"
             d="M -180.22667,587.22915 L -177.57684,585.25881 L -176.02331,596.49521 L -178.67315,597.46556 L -180.22667,587.22915 z"
             id="path8429"
             sodipodi:nodetypes="ccccc" />
          <path
             sodipodi:nodetypes="ccccc"
             id="path8431"
             d="M -176.60167,584.60415 L -173.95184,582.63381 L -172.39831,593.87021 L -175.04815,594.84056 L -176.60167,584.60415 z"
             style="fill:#000000;fill-opacity:1;stroke:none;stroke-width:0.99999994;stroke-linecap:round;stroke-linejoin:round;stroke-miterlimit:4;stroke-dasharray:0.99999994, 3.99999976;stroke-dashoffset:0;stroke-opacity:1" />
        </g>
      </g>
      <rect
         y="569.86218"
         x="-285.50003"
         height="37"
         width="37"
         id="rect8433"
         style="fill:none;fill-opacity:1;stroke:#ffffff;stroke-width:0.99999994;stroke-linecap:round;stroke-linejoin:round;stroke-miterlimit:4;stroke-dasharray:none;stroke-dashoffset:0;stroke-opacity:1" />
    </g>
    <g
       id="g13712"
       transform="translate(85.99998,652.00006)">
      <rect
         y="311.86212"
         x="247.50002"
         height="39"
         width="39"
         id="rect12170"
         style="fill:url(#linearGradient5046);fill-opacity:1;stroke:#7b7b7b;stroke-width:1;stroke-linecap:round;stroke-linejoin:round;stroke-miterlimit:4;stroke-dasharray:none;stroke-dashoffset:0;stroke-opacity:1" />
      <path
         transform="translate(-463.99999,242.36212)"
         clip-path="url(#clipPath13330)"
         id="path12220"
         d="M 723.78125,76.84375 L 709.25,83.625 L 708.78125,83.53125 L 708.8125,83.8125 L 708.71875,83.875 L 708.84375,83.90625 L 709.90625,91.75 L 732.3125,96.75 L 732.3125,96.84375 L 737.875,93.28125 C 737.97562,93.304493 738.0889,93.319564 738.1875,93.34375 C 740.47826,93.905636 742.17647,94.760722 742.6875,95.6875 C 742.94301,96.150889 742.97311,96.618785 742.6875,97.28125 C 742.40189,97.943715 741.76998,98.776362 740.65625,99.71875 C 738.43767,101.59601 736.37319,102.1668 734.4375,102.09375 C 732.50181,102.0207 730.66276,101.26737 728.9375,100.4375 C 727.21224,99.607625 725.62503,98.683025 724.125,98.3125 C 723.37498,98.127238 722.6454,98.086696 721.9375,98.3125 C 721.2296,98.538304 720.59585,99.036723 720.0625,99.8125 C 718.04758,102.74329 717.91769,105.29484 718.34375,107.09375 C 718.76981,108.89267 719.75,109.96875 719.75,109.96875 L 720.46875,109.3125 C 720.46875,109.3125 719.68194,108.43484 719.3125,106.875 C 718.94306,105.31516 719.00083,103.10106 720.875,100.375 C 721.31393,99.736563 721.74031,99.433859 722.21875,99.28125 C 722.69719,99.128641 723.26967,99.124008 723.90625,99.28125 C 725.17941,99.595734 726.73393,100.49425 728.5,101.34375 C 730.26607,102.19325 732.24294,103.01211 734.40625,103.09375 C 736.56956,103.17539 738.90364,102.48058 741.28125,100.46875 C 742.46562,99.466594 743.21368,98.569069 743.59375,97.6875 C 743.97382,96.805931 743.95885,95.937556 743.5625,95.21875 C 742.83553,93.900336 741.12174,93.107422 739,92.53125 L 750.125,85.40625 L 750.34375,77 L 750.40625,76.96875 L 723.78125,76.84375 z"
         style="opacity:1;fill:#f2f2f2;fill-opacity:1;fill-rule:evenodd;stroke:#ffffff;stroke-width:3;stroke-linecap:butt;stroke-linejoin:miter;stroke-miterlimit:4;stroke-dasharray:none;stroke-opacity:1;filter:url(#filter12351)" />
      <g
         style="opacity:0.56216215"
         transform="translate(534,-257.00006)"
         clip-path="url(#clipPath8371)"
         id="g12172">
        <path
           style="fill:none;fill-rule:evenodd;stroke:#000000;stroke-width:1px;stroke-linecap:butt;stroke-linejoin:miter;stroke-opacity:1"
           d="M -277.89297,609.00623 C -277.89297,609.00623 -281.4285,605.11714 -277.53941,599.46029 C -273.65032,593.80343 -266.2257,607.23846 -257.03332,599.46029 C -247.84093,591.68211 -267.28636,590.62145 -275.06454,591.32856 C -282.84271,592.03567 -271.17545,580.36841 -271.17545,580.36841"
           id="path12174"
           sodipodi:nodetypes="csssc" />
        <g
           transform="matrix(0.5023142,0,0,0.5023142,-166.22664,288.45208)"
           id="g12176">
          <path
             transform="matrix(0.8659831,-0.5000732,0.1424269,0.9898053,0,0)"
             style="fill:#363636;fill-opacity:1;stroke:none;stroke-width:0.99999994;stroke-linecap:round;stroke-linejoin:round;stroke-miterlimit:4;stroke-dasharray:0.99999994, 3.99999976;stroke-dashoffset:0;stroke-opacity:1"
             d="M -305.7321,447.99483 L -260.73223,447.29905 L -263.80326,462.70441 L -305.11844,464.85902 L -305.7321,447.99483 z"
             id="path12178"
             sodipodi:nodetypes="ccccc" />
          <path
             transform="matrix(-0.975459,-0.2201813,0.158104,0.9874225,0,0)"
             style="fill:#2e2e2e;fill-opacity:1;stroke:none;stroke-width:0.99999994;stroke-linecap:round;stroke-linejoin:round;stroke-miterlimit:4;stroke-dasharray:0.99999994, 3.99999976;stroke-dashoffset:0;stroke-opacity:1"
             d="M 314.67807,673.97502 L 360.25791,673.97502 L 360.6403,690.60469 L 314.79456,690.5454 L 314.67807,673.97502 z"
             id="path12180"
             sodipodi:nodetypes="ccccc" />
          <path
             style="fill:url(#linearGradient5048);fill-opacity:1;stroke:none;stroke-width:0.99999994;stroke-linecap:round;stroke-linejoin:round;stroke-miterlimit:4;stroke-dasharray:0.99999994, 3.99999976;stroke-dashoffset:0;stroke-opacity:1"
             d="M -215,572.86218 L -162.00335,573.1055 L -200.5,596.86218 L -245,586.86218 L -215,572.86218 z"
             id="path12182"
             sodipodi:nodetypes="ccccc" />
          <path
             sodipodi:type="arc"
             style="opacity:1;fill:#ccebb9;fill-opacity:1;stroke:none;stroke-width:0.99999994;stroke-linecap:round;stroke-linejoin:round;stroke-miterlimit:4;stroke-dasharray:0.99999994, 3.99999976;stroke-dashoffset:0;stroke-opacity:1"
             id="path12184"
             sodipodi:cx="-189.625"
             sodipodi:cy="596.48718"
             sodipodi:rx="1.375"
             sodipodi:ry="1.25"
             d="M -188.25,596.48718 A 1.375,1.25 0 1 1 -191,596.48718 A 1.375,1.25 0 1 1 -188.25,596.48718 z"
             transform="matrix(0.6818182,0,0,0.6818182,-66.772727,191.39365)" />
          <path
             transform="matrix(0.6818182,0,0,0.6818182,-62.772727,189.39365)"
             d="M -188.25,596.48718 A 1.375,1.25 0 1 1 -191,596.48718 A 1.375,1.25 0 1 1 -188.25,596.48718 z"
             sodipodi:ry="1.25"
             sodipodi:rx="1.375"
             sodipodi:cy="596.48718"
             sodipodi:cx="-189.625"
             id="path12186"
             style="opacity:1;fill:#ccebb9;fill-opacity:1;stroke:none;stroke-width:0.99999994;stroke-linecap:round;stroke-linejoin:round;stroke-miterlimit:4;stroke-dasharray:0.99999994, 3.99999976;stroke-dashoffset:0;stroke-opacity:1"
             sodipodi:type="arc" />
          <path
             sodipodi:type="arc"
             style="opacity:1;fill:#ccebb9;fill-opacity:1;stroke:none;stroke-width:0.99999994;stroke-linecap:round;stroke-linejoin:round;stroke-miterlimit:4;stroke-dasharray:0.99999994, 3.99999976;stroke-dashoffset:0;stroke-opacity:1"
             id="path12188"
             sodipodi:cx="-189.625"
             sodipodi:cy="596.48718"
             sodipodi:rx="1.375"
             sodipodi:ry="1.25"
             d="M -188.25,596.48718 A 1.375,1.25 0 1 1 -191,596.48718 A 1.375,1.25 0 1 1 -188.25,596.48718 z"
             transform="matrix(0.6818182,0,0,0.6818182,-59.147727,187.39365)" />
          <path
             transform="matrix(0.9789121,-0.204282,0.204282,0.9789121,0,0)"
             style="fill:#000000;fill-opacity:1;stroke:none;stroke-width:0.99999994;stroke-linecap:round;stroke-linejoin:round;stroke-miterlimit:4;stroke-dasharray:0.99999994, 3.99999976;stroke-dashoffset:0;stroke-opacity:1"
             d="M -300.76169,539.41406 L -297.76523,538.02658 L -298.53986,549.34339 L -301.33204,549.75196 L -300.76169,539.41406 z"
             id="path12190"
             sodipodi:nodetypes="ccccc" />
          <path
             sodipodi:nodetypes="ccccc"
             id="path12192"
             d="M -180.22667,587.22915 L -177.57684,585.25881 L -176.02331,596.49521 L -178.67315,597.46556 L -180.22667,587.22915 z"
             style="fill:#000000;fill-opacity:1;stroke:none;stroke-width:0.99999994;stroke-linecap:round;stroke-linejoin:round;stroke-miterlimit:4;stroke-dasharray:0.99999994, 3.99999976;stroke-dashoffset:0;stroke-opacity:1" />
          <path
             style="fill:#000000;fill-opacity:1;stroke:none;stroke-width:0.99999994;stroke-linecap:round;stroke-linejoin:round;stroke-miterlimit:4;stroke-dasharray:0.99999994, 3.99999976;stroke-dashoffset:0;stroke-opacity:1"
             d="M -176.60167,584.60415 L -173.95184,582.63381 L -172.39831,593.87021 L -175.04815,594.84056 L -176.60167,584.60415 z"
             id="path12194"
             sodipodi:nodetypes="ccccc" />
        </g>
      </g>
      <rect
         style="fill:none;fill-opacity:1;stroke:#ffffff;stroke-width:0.99999994;stroke-linecap:round;stroke-linejoin:round;stroke-miterlimit:4;stroke-dasharray:none;stroke-dashoffset:0;stroke-opacity:1"
         id="rect12196"
         width="37"
         height="37"
         x="248.49995"
         y="312.86212" />
    </g>
    <g
       id="g13733"
       transform="translate(196,549)">
      <rect
         style="fill:url(#linearGradient5038);fill-opacity:1;stroke:#7b7b7b;stroke-width:1;stroke-linecap:round;stroke-linejoin:round;stroke-miterlimit:4;stroke-dasharray:none;stroke-dashoffset:0;stroke-opacity:1"
         id="rect11984"
         width="39"
         height="39"
         x="197.50002"
         y="414.86218" />
      <g
         clip-path="url(#clipPath12158)"
         transform="matrix(0.7531641,-0.3476935,0.3476935,0.7531641,-376.36675,627.40072)"
         id="g12099">
        <rect
           ry="4.5"
           y="76.5"
           x="727"
           height="27"
           width="39.5"
           id="rect12101"
           style="opacity:1;fill:url(#linearGradient5040);fill-opacity:1;stroke:none;stroke-width:2;stroke-miterlimit:4;stroke-dasharray:none;stroke-opacity:1" />
        <path
           id="path12103"
           d="M 750.5,86 L 762.5,86"
           style="fill:none;fill-rule:evenodd;stroke:#b3b3b3;stroke-width:1.20547831px;stroke-linecap:butt;stroke-linejoin:miter;stroke-opacity:1" />
        <path
           style="fill:none;fill-rule:evenodd;stroke:#b3b3b3;stroke-width:1.20547831px;stroke-linecap:butt;stroke-linejoin:miter;stroke-opacity:1"
           d="M 750.5,90 L 762.5,90"
           id="path12105" />
        <path
           id="path12107"
           d="M 750.5,94 L 762.5,94"
           style="fill:none;fill-rule:evenodd;stroke:#b3b3b3;stroke-width:1.20547831px;stroke-linecap:butt;stroke-linejoin:miter;stroke-opacity:1" />
        <g
           transform="matrix(0.3076796,0,0,0.3076796,818.65021,-91.526793)"
           id="g12109">
          <rect
             style="fill:url(#linearGradient5042);fill-opacity:1;stroke:#7b7b7b;stroke-width:3.91796541;stroke-linecap:round;stroke-linejoin:round;stroke-miterlimit:4;stroke-dasharray:none;stroke-dashoffset:0;stroke-opacity:1"
             id="rect12111"
             width="39"
             height="39"
             x="-286.5"
             y="568.86218" />
          <g
             id="g12113"
             clip-path="url(#clipPath8371)">
            <path
               sodipodi:nodetypes="csssc"
               id="path12115"
               d="M -277.89297,609.00623 C -277.89297,609.00623 -281.4285,605.11714 -277.53941,599.46029 C -273.65032,593.80343 -266.2257,607.23846 -257.03332,599.46029 C -247.84093,591.68211 -267.28636,590.62145 -275.06454,591.32856 C -282.84271,592.03567 -271.17545,580.36841 -271.17545,580.36841"
               style="fill:none;fill-rule:evenodd;stroke:#000000;stroke-width:3.91796541px;stroke-linecap:butt;stroke-linejoin:miter;stroke-opacity:1" />
            <g
               id="g12117"
               transform="matrix(0.5023142,0,0,0.5023142,-166.22664,288.45208)">
              <path
                 sodipodi:nodetypes="ccccc"
                 id="path12119"
                 d="M -305.7321,447.99483 L -260.73223,447.29905 L -263.80326,462.70441 L -305.11844,464.85902 L -305.7321,447.99483 z"
                 style="fill:#363636;fill-opacity:1;stroke:none;stroke-width:0.99999994;stroke-linecap:round;stroke-linejoin:round;stroke-miterlimit:4;stroke-dasharray:0.99999994, 3.99999976;stroke-dashoffset:0;stroke-opacity:1"
                 transform="matrix(0.8659831,-0.5000732,0.1424269,0.9898053,0,0)" />
              <path
                 sodipodi:nodetypes="ccccc"
                 id="path12121"
                 d="M 314.67807,673.97502 L 360.25791,673.97502 L 360.6403,690.60469 L 314.79456,690.5454 L 314.67807,673.97502 z"
                 style="fill:#2e2e2e;fill-opacity:1;stroke:none;stroke-width:0.99999994;stroke-linecap:round;stroke-linejoin:round;stroke-miterlimit:4;stroke-dasharray:0.99999994, 3.99999976;stroke-dashoffset:0;stroke-opacity:1"
                 transform="matrix(-0.975459,-0.2201813,0.158104,0.9874225,0,0)" />
              <path
                 sodipodi:nodetypes="ccccc"
                 id="path12123"
                 d="M -215,572.86218 L -162.00335,573.1055 L -200.5,596.86218 L -245,586.86218 L -215,572.86218 z"
                 style="fill:url(#linearGradient5044);fill-opacity:1;stroke:none;stroke-width:0.99999994;stroke-linecap:round;stroke-linejoin:round;stroke-miterlimit:4;stroke-dasharray:0.99999994, 3.99999976;stroke-dashoffset:0;stroke-opacity:1" />
              <path
                 transform="matrix(0.6818182,0,0,0.6818182,-66.772727,191.39365)"
                 d="M -188.25,596.48718 A 1.375,1.25 0 1 1 -191,596.48718 A 1.375,1.25 0 1 1 -188.25,596.48718 z"
                 sodipodi:ry="1.25"
                 sodipodi:rx="1.375"
                 sodipodi:cy="596.48718"
                 sodipodi:cx="-189.625"
                 id="path12125"
                 style="opacity:1;fill:#ccebb9;fill-opacity:1;stroke:none;stroke-width:0.99999994;stroke-linecap:round;stroke-linejoin:round;stroke-miterlimit:4;stroke-dasharray:0.99999994, 3.99999976;stroke-dashoffset:0;stroke-opacity:1"
                 sodipodi:type="arc" />
              <path
                 sodipodi:type="arc"
                 style="opacity:1;fill:#ccebb9;fill-opacity:1;stroke:none;stroke-width:0.99999994;stroke-linecap:round;stroke-linejoin:round;stroke-miterlimit:4;stroke-dasharray:0.99999994, 3.99999976;stroke-dashoffset:0;stroke-opacity:1"
                 id="path12127"
                 sodipodi:cx="-189.625"
                 sodipodi:cy="596.48718"
                 sodipodi:rx="1.375"
                 sodipodi:ry="1.25"
                 d="M -188.25,596.48718 A 1.375,1.25 0 1 1 -191,596.48718 A 1.375,1.25 0 1 1 -188.25,596.48718 z"
                 transform="matrix(0.6818182,0,0,0.6818182,-62.772727,189.39365)" />
              <path
                 transform="matrix(0.6818182,0,0,0.6818182,-59.147727,187.39365)"
                 d="M -188.25,596.48718 A 1.375,1.25 0 1 1 -191,596.48718 A 1.375,1.25 0 1 1 -188.25,596.48718 z"
                 sodipodi:ry="1.25"
                 sodipodi:rx="1.375"
                 sodipodi:cy="596.48718"
                 sodipodi:cx="-189.625"
                 id="path12129"
                 style="opacity:1;fill:#ccebb9;fill-opacity:1;stroke:none;stroke-width:0.99999994;stroke-linecap:round;stroke-linejoin:round;stroke-miterlimit:4;stroke-dasharray:0.99999994, 3.99999976;stroke-dashoffset:0;stroke-opacity:1"
                 sodipodi:type="arc" />
              <path
                 sodipodi:nodetypes="ccccc"
                 id="path12131"
                 d="M -300.76169,539.41406 L -297.76523,538.02658 L -298.53986,549.34339 L -301.33204,549.75196 L -300.76169,539.41406 z"
                 style="fill:#000000;fill-opacity:1;stroke:none;stroke-width:0.99999994;stroke-linecap:round;stroke-linejoin:round;stroke-miterlimit:4;stroke-dasharray:0.99999994, 3.99999976;stroke-dashoffset:0;stroke-opacity:1"
                 transform="matrix(0.9789121,-0.204282,0.204282,0.9789121,0,0)" />
              <path
                 style="fill:#000000;fill-opacity:1;stroke:none;stroke-width:0.99999994;stroke-linecap:round;stroke-linejoin:round;stroke-miterlimit:4;stroke-dasharray:0.99999994, 3.99999976;stroke-dashoffset:0;stroke-opacity:1"
                 d="M -180.22667,587.22915 L -177.57684,585.25881 L -176.02331,596.49521 L -178.67315,597.46556 L -180.22667,587.22915 z"
                 id="path12133"
                 sodipodi:nodetypes="ccccc" />
              <path
                 sodipodi:nodetypes="ccccc"
                 id="path12135"
                 d="M -176.60167,584.60415 L -173.95184,582.63381 L -172.39831,593.87021 L -175.04815,594.84056 L -176.60167,584.60415 z"
                 style="fill:#000000;fill-opacity:1;stroke:none;stroke-width:0.99999994;stroke-linecap:round;stroke-linejoin:round;stroke-miterlimit:4;stroke-dasharray:0.99999994, 3.99999976;stroke-dashoffset:0;stroke-opacity:1" />
            </g>
          </g>
          <rect
             y="569.86218"
             x="-285.50003"
             height="37"
             width="37"
             id="rect12137"
             style="fill:none;fill-opacity:1;stroke:#ffffff;stroke-width:3.91796541;stroke-linecap:round;stroke-linejoin:round;stroke-miterlimit:4;stroke-dasharray:none;stroke-dashoffset:0;stroke-opacity:1" />
        </g>
        <path
           transform="matrix(1,0,0,1.3333333,0,-25)"
           d="M 748,83.25 A 1,0.75 0 1 1 746,83.25 A 1,0.75 0 1 1 748,83.25 z"
           sodipodi:ry="0.75"
           sodipodi:rx="1"
           sodipodi:cy="83.25"
           sodipodi:cx="747"
           id="path12139"
           style="opacity:1;fill:#d8d8d8;fill-opacity:1;stroke:none;stroke-width:2;stroke-miterlimit:4;stroke-dasharray:none;stroke-opacity:1"
           sodipodi:type="arc" />
        <path
           sodipodi:type="arc"
           style="opacity:1;fill:#d8d8d8;fill-opacity:1;stroke:none;stroke-width:2;stroke-miterlimit:4;stroke-dasharray:none;stroke-opacity:1"
           id="path12141"
           sodipodi:cx="747"
           sodipodi:cy="83.25"
           sodipodi:rx="1"
           sodipodi:ry="0.75"
           d="M 748,83.25 A 1,0.75 0 1 1 746,83.25 A 1,0.75 0 1 1 748,83.25 z"
           transform="matrix(1,0,0,1.3333333,0,-21)" />
        <path
           transform="matrix(1,0,0,1.3333333,0,-17)"
           d="M 748,83.25 A 1,0.75 0 1 1 746,83.25 A 1,0.75 0 1 1 748,83.25 z"
           sodipodi:ry="0.75"
           sodipodi:rx="1"
           sodipodi:cy="83.25"
           sodipodi:cx="747"
           id="path12143"
           style="opacity:1;fill:#d8d8d8;fill-opacity:1;stroke:none;stroke-width:2;stroke-miterlimit:4;stroke-dasharray:none;stroke-opacity:1"
           sodipodi:type="arc" />
      </g>
      <rect
         y="415.86218"
         x="198.50002"
         height="37"
         width="37"
         id="rect11988"
         style="fill:none;fill-opacity:1;stroke:#ffffff;stroke-width:0.99999994;stroke-linecap:round;stroke-linejoin:round;stroke-miterlimit:4;stroke-dasharray:none;stroke-dashoffset:0;stroke-opacity:1" />
    </g>
    <g
       id="g7120"
       transform="translate(176.99998,620)">
      <rect
         y="343.86218"
         x="37.500015"
         height="39"
         width="39"
         id="rect2168"
         style="opacity:1;fill:url(#linearGradient5054);fill-opacity:1;stroke:#7b7b7b;stroke-width:1;stroke-linecap:round;stroke-linejoin:round;stroke-miterlimit:4;stroke-dasharray:none;stroke-dashoffset:0;stroke-opacity:1" />
      <path
         sodipodi:nodetypes="cccccccccccccccccccccccccc"
         id="path5116"
         d="M 56.3125,345.96875 C 54.080753,346.31381 51.732634,345.95235 49.58171,346.73761 C 47.415557,347.09924 48.527252,350.44864 48.633587,351.91198 C 49.42537,353.94672 49.295908,356.09019 48.78125,358.15625 C 49.280027,360.00835 50.912881,361.31562 52.156652,362.70668 C 53.640204,363.5203 53.489741,365.64092 53.291002,366.835 C 51.78326,366.52926 50.647603,367.2368 50.53762,368.80867 C 49.581426,370.02479 47.510635,368.6008 46.371785,370.0307 C 45.068479,371.07867 45.064605,373.1247 44.293732,374.57352 C 43.689583,376.54766 43.1447,378.56661 42.059508,380.34283 C 42.05095,381.25717 40.849645,382.59408 40.538422,382.40625 C 51.588114,382.40625 62.637807,382.40625 73.6875,382.40625 C 73.692683,380.87689 72.284447,379.75242 71.875,378.3125 C 70.950453,375.80027 70.741819,372.93477 68.992461,370.7951 C 67.992533,369.44949 66.697876,367.79293 64.841378,367.96917 C 63.334792,368.29187 62.5259,367.63142 62.009458,366.23394 C 60.6029,366.04886 58.585748,366.12429 59.1582,364.05989 C 58.450393,362.14688 60.648747,361.83742 61.274784,360.28049 C 61.697373,358.8639 60.8479,357.31964 60.8125,355.84375 C 59.857301,354.0967 61.369259,351.18798 60.59375,349.40625 C 60.176447,347.87101 59.37902,345.9533 57.486863,346.03262 C 57.096321,345.99928 56.704903,345.96426 56.3125,345.96875 z M 58.96875,362.46875 C 58.975496,363.56448 59.053371,364.6571 59.125,365.75 C 58.90134,365.35213 59.07368,364.55192 59.003443,363.99818 C 59.073156,363.51493 58.699515,362.81627 58.96875,362.46875 z"
         style="fill:#393939;fill-opacity:1;fill-rule:evenodd;stroke:none;stroke-width:1px;stroke-linecap:butt;stroke-linejoin:miter;stroke-opacity:1" />
      <rect
         style="opacity:1;fill:none;fill-opacity:1;stroke:#ffffff;stroke-width:0.99999994;stroke-linecap:round;stroke-linejoin:round;stroke-miterlimit:4;stroke-dasharray:none;stroke-dashoffset:0;stroke-opacity:1"
         id="rect6133"
         width="37"
         height="37"
         x="38.5"
         y="344.86218" />
    </g>
    <g
       id="g10010"
       transform="translate(373.99998,351)">
      <rect
         style="fill:url(#linearGradient5029);fill-opacity:1;stroke:#7b7b7b;stroke-width:1;stroke-linecap:round;stroke-linejoin:round;stroke-miterlimit:4;stroke-dasharray:none;stroke-dashoffset:0;stroke-opacity:1"
         id="rect7127"
         width="39"
         height="39"
         x="-218.49998"
         y="612.86218" />
      <g
         transform="translate(-256,219)"
         clip-path="url(#clipPath8204)"
         id="g8199">
        <path
           sodipodi:nodetypes="cccccccccccccccccccccccccc"
           id="path7129"
           d="M 71.540181,401.16724 C 69.663619,401.33786 67.725936,400.91939 65.894386,401.45745 C 64.071624,401.6451 64.82788,404.46642 64.842274,405.67966 C 65.398688,407.39955 65.182182,409.16205 64.648727,410.84097 C 64.970319,412.39515 66.264232,413.55765 67.229787,414.76941 C 68.424355,415.51686 68.191513,417.25943 67.965427,418.23481 C 66.724962,417.90532 65.74308,418.43117 65.571777,419.7229 C 64.713605,420.67772 63.060804,419.39647 62.039642,420.51837 C 60.900849,421.31664 60.793898,423.00517 60.078304,424.16152 C 59.474964,425.75997 58.91872,427.39846 57.924698,428.80896 C 57.871217,429.56318 56.802741,433.60515 56.553013,433.43418 C 65.75752,433.99954 74.962028,434.5649 84.166535,435.13025 C 84.248385,433.86826 83.132315,429.86811 82.864238,428.65871 C 82.221439,426.5379 82.192909,424.16217 80.844147,422.30667 C 80.079412,421.1449 79.08493,419.7114 77.529512,419.76187 C 76.258152,419.95112 75.617819,419.36463 75.258462,418.18478 C 74.096168,417.96007 72.412034,417.91911 72.993547,416.24452 C 72.500917,414.6294 74.347857,414.48646 74.948282,413.23346 C 75.372116,412.08589 74.742781,410.76785 74.788114,409.54791 C 74.080989,408.05708 75.487925,405.73371 74.932242,404.22345 C 74.662453,402.93499 74.095407,401.31139 72.515199,401.28005 C 72.191564,401.23254 71.867285,401.18361 71.540181,401.16724 z M 72.916397,414.92158 C 72.86647,415.82628 72.875949,416.73209 72.880212,417.63778 C 72.714069,417.29795 72.898198,416.64631 72.867761,416.18569 C 72.950332,415.7904 72.674503,415.19463 72.916397,414.92158 z"
           style="fill:#2e2e2e;fill-opacity:1;fill-rule:evenodd;stroke:none;stroke-width:1px;stroke-linecap:butt;stroke-linejoin:miter;stroke-opacity:1" />
        <path
           sodipodi:nodetypes="cccccccccccccscccccsscccc"
           id="path8172"
           d="M 44.7592,403.76048 C 44.544036,403.75208 44.318265,403.76619 44.103332,403.78572 C 42.912214,404.033 41.795786,404.81949 41.051028,405.77854 C 39.858811,407.70713 39.459155,410.07184 39.58794,412.31198 C 39.669574,412.59221 39.782359,412.91887 39.890648,413.24533 C 39.435278,414.56751 38.372063,417.05827 36.712215,417.65983 C 36.941417,419.62147 42.624011,419.03455 43.388417,418.73746 C 43.546947,419.55077 43.578348,420.10662 43.169983,420.58601 C 42.900993,420.65707 39.930072,420.56024 39.007749,420.66169 C 37.552895,420.63606 36.053222,421.38312 35.879767,422.95723 C 35.556007,424.2831 35.586536,425.66532 35.04732,426.94287 C 34.611954,428.15952 34.533411,432.54486 34.013069,433.72672 L 57.699967,433.72672 C 57.685833,433.70203 57.69032,433.67597 57.674742,433.65105 C 57.018955,432.37164 56.346491,428.05541 55.93417,426.64016 C 55.728006,425.1517 55.270522,423.68813 54.395405,422.45271 C 54.027918,421.3192 52.977715,420.29056 51.721485,420.40942 C 48.619463,420.89998 47.900455,420.65624 47.260531,420.03042 C 47.207537,419.5806 47.091765,418.97024 47.039344,418.58486 C 48.411758,418.9968 50.912238,418.62031 51.242197,418.39138 C 51.247816,418.39537 52.071157,417.57985 52.074644,417.58416 C 52.116321,417.55512 52.948333,416.69754 52.948333,416.69754 C 52.448218,416.72587 52.043162,416.24719 51.92329,415.64178 C 51.579859,412.4309 49.817323,407.11593 48.618729,405.77854 C 47.703727,404.56848 46.265337,403.81926 44.7592,403.76048 z"
           style="fill:#363636;fill-opacity:1;fill-rule:evenodd;stroke:none;stroke-width:1px;stroke-linecap:butt;stroke-linejoin:miter;stroke-opacity:1" />
        <path
           sodipodi:nodetypes="ccccccccccccccccccccccccccc"
           id="path8174"
           d="M 59.385937,398.87988 C 58.963444,399.45961 58.940715,400.25868 57.863939,399.60083 C 56.419449,400.74969 58.33729,400.49789 56.155029,400.40188 C 55.073905,399.87867 53.950596,399.07456 52.657105,399.36051 C 52.077067,399.32331 51.518766,399.60654 50.948195,399.70763 C 51.773924,399.99665 52.794775,400.1619 53.378051,400.7757 C 53.230684,401.76009 51.197944,401.16114 51.252134,402.60263 C 52.097343,403.50224 52.757785,404.53683 51.977796,405.75494 C 51.402654,407.06971 51.827737,408.42449 52.058517,409.74367 C 52.04405,411.17518 52.798235,412.48572 54.131723,413.01914 C 55.270011,413.30667 56.090407,414.16836 56.2742,415.32911 C 56.492642,416.02411 56.431386,417.02064 55.54089,416.236 C 53.79717,415.46368 53.191985,417.69704 52.741499,418.89703 C 52.431922,419.50806 53.159738,419.30032 52.287032,419.45973 C 51.133159,420.0289 49.168297,419.08353 48.710113,420.7313 C 48.683027,423.33943 48.035564,424.34579 47.686322,426.15825 C 47.634055,427.44129 46.824143,432.72917 46.809429,434.01408 C 53.431454,434.01408 63.471299,434.01408 70.093324,434.01408 C 70.818192,431.99473 69.082325,425.93378 68.635787,423.7712 C 68.715499,422.52418 67.827439,421.01118 66.773802,419.95966 C 65.959139,419.15388 63.824574,419.43597 63.738317,418.34543 C 63.516995,416.70456 61.911979,416.85876 60.726244,416.65698 C 59.326552,416.52033 60.203727,414.43276 60.847397,413.84495 C 61.731945,412.80759 63.044755,411.64513 62.750353,410.0946 C 62.92649,408.70038 62.195727,407.43029 62.049469,406.08408 C 62.321502,404.57356 62.291947,403.05155 61.931204,401.56582 C 61.443772,400.41967 60.427116,399.52691 59.385937,398.87988 z"
           style="fill:#4a4a4a;fill-opacity:1;fill-rule:evenodd;stroke:none;stroke-width:1px;stroke-linecap:butt;stroke-linejoin:miter;stroke-opacity:1" />
      </g>
      <rect
         y="613.86218"
         x="-217.5"
         height="37"
         width="37"
         id="rect7131"
         style="fill:none;fill-opacity:1;stroke:#ffffff;stroke-width:0.99999994;stroke-linecap:round;stroke-linejoin:round;stroke-miterlimit:4;stroke-dasharray:none;stroke-dashoffset:0;stroke-opacity:1" />
    </g>
    <rect
       y="1023.8622"
       x="214.5"
       height="39"
       width="39"
       id="rect5094"
       style="fill:url(#linearGradient5105);fill-opacity:1;stroke:#7b7b7b;stroke-width:1;stroke-linecap:round;stroke-linejoin:round;stroke-miterlimit:4;stroke-dasharray:none;stroke-dashoffset:0;stroke-opacity:1" />
    <path
       sodipodi:nodetypes="cccccccccccccccccccccccccc"
       id="path5096"
       d="M 233.31248,1025.9688 C 231.08073,1026.3138 228.73261,1025.9524 226.58169,1026.7376 C 224.41554,1027.0992 225.52723,1030.4486 225.63357,1031.912 C 226.42535,1033.9467 226.29589,1036.0902 225.78123,1038.1562 C 226.28001,1040.0084 227.91286,1041.3156 229.15663,1042.7067 C 230.64018,1043.5203 230.48972,1045.6409 230.29098,1046.835 C 228.78324,1046.5293 227.64758,1047.2368 227.5376,1048.8087 C 226.58141,1050.0248 224.51062,1048.6008 223.37176,1050.0307 C 222.06846,1051.0787 222.06458,1053.1247 221.29371,1054.5735 C 220.68956,1056.5477 220.14468,1058.5666 219.05949,1060.3428 C 219.05093,1061.2572 217.84963,1062.5941 217.5384,1062.4062 C 228.58809,1062.4062 239.63779,1062.4062 250.68748,1062.4062 C 250.69266,1060.8769 249.28443,1059.7524 248.87498,1058.3125 C 247.95043,1055.8003 247.7418,1052.9348 245.99244,1050.7951 C 244.99251,1049.4495 243.69786,1047.7929 241.84136,1047.9692 C 240.33477,1048.2919 239.52588,1047.6314 239.00944,1046.2339 C 237.60288,1046.0489 235.58573,1046.1243 236.15818,1044.0599 C 235.45037,1042.1469 237.64873,1041.8374 238.27476,1040.2805 C 238.69735,1038.8639 237.84788,1037.3196 237.81248,1035.8438 C 236.85728,1034.0967 238.36924,1031.188 237.59373,1029.4062 C 237.17643,1027.871 236.379,1025.9533 234.48684,1026.0326 C 234.0963,1025.9993 233.70488,1025.9643 233.31248,1025.9688 z M 235.96873,1042.4688 C 235.97548,1043.5645 236.05335,1044.6571 236.12498,1045.75 C 235.90132,1045.3521 236.07366,1044.5519 236.00342,1043.9982 C 236.07314,1043.5149 235.69949,1042.8163 235.96873,1042.4688 z"
       style="fill:#393939;fill-opacity:1;fill-rule:evenodd;stroke:none;stroke-width:1px;stroke-linecap:butt;stroke-linejoin:miter;stroke-opacity:1" />
    <rect
       style="fill:none;fill-opacity:1;stroke:#ffffff;stroke-width:0.99999994;stroke-linecap:round;stroke-linejoin:round;stroke-miterlimit:4;stroke-dasharray:none;stroke-dashoffset:0;stroke-opacity:1"
       id="rect5098"
       width="37"
       height="37"
       x="215.49998"
       y="1024.8622" />
  </g>
</svg>
