<?xml version="1.0" encoding="UTF-8" standalone="no"?>
<!-- Created with Inkscape (http://www.inkscape.org/) -->
<svg
   xmlns:dc="http://purl.org/dc/elements/1.1/"
   xmlns:cc="http://creativecommons.org/ns#"
   xmlns:rdf="http://www.w3.org/1999/02/22-rdf-syntax-ns#"
   xmlns:svg="http://www.w3.org/2000/svg"
   xmlns="http://www.w3.org/2000/svg"
   xmlns:xlink="http://www.w3.org/1999/xlink"
   xmlns:sodipodi="http://sodipodi.sourceforge.net/DTD/sodipodi-0.dtd"
   xmlns:inkscape="http://www.inkscape.org/namespaces/inkscape"
   width="488"
   height="262"
   id="svg5059"
   sodipodi:version="0.32"
   inkscape:version="0.45+devel"
   version="1.0"
   sodipodi:docname="pulp-project-logo.svg"
   inkscape:output_extension="org.inkscape.output.svg.inkscape">
  <defs
     id="defs5061">
    <linearGradient
       inkscape:collect="always"
       xlink:href="#linearGradient3105"
       id="linearGradient5037"
       gradientUnits="userSpaceOnUse"
       gradientTransform="translate(-706,-345)"
       x1="-105.5"
       y1="540.19336"
       x2="-104.5"
       y2="425.23615" />
    <linearGradient
       inkscape:collect="always"
       xlink:href="#linearGradient3093"
       id="linearGradient5035"
       gradientUnits="userSpaceOnUse"
       gradientTransform="translate(-706,-345)"
       x1="-138"
       y1="529.36218"
       x2="-138"
       y2="421.36218" />
    <filter
       inkscape:collect="always"
       id="filter3101">
      <feGaussianBlur
         inkscape:collect="always"
         stdDeviation="0.56271362"
         id="feGaussianBlur3103" />
    </filter>
    <linearGradient
       inkscape:collect="always"
       id="linearGradient3105">
      <stop
         style="stop-color:#786721;stop-opacity:1;"
         offset="0"
         id="stop3107" />
      <stop
         style="stop-color:#786721;stop-opacity:0;"
         offset="1"
         id="stop3109" />
    </linearGradient>
    <linearGradient
       inkscape:collect="always"
       xlink:href="#linearGradient3105"
       id="linearGradient4619"
       gradientUnits="userSpaceOnUse"
       gradientTransform="translate(-706,-345)"
       x1="-105.5"
       y1="540.19336"
       x2="-104.5"
       y2="425.23615" />
    <linearGradient
       inkscape:collect="always"
       id="linearGradient3093">
      <stop
         style="stop-color:#e9ddaf;stop-opacity:1;"
         offset="0"
         id="stop3095" />
      <stop
         style="stop-color:#e9ddaf;stop-opacity:0;"
         offset="1"
         id="stop3097" />
    </linearGradient>
    <linearGradient
       inkscape:collect="always"
       xlink:href="#linearGradient3093"
       id="linearGradient4617"
       gradientUnits="userSpaceOnUse"
       gradientTransform="translate(-706,-345)"
       x1="-138"
       y1="529.36218"
       x2="-138"
       y2="421.36218" />
    <filter
       inkscape:collect="always"
       id="filter3192"
       x="-0.078583144"
       width="1.1571662"
       y="-0.25372398"
       height="1.507448">
      <feGaussianBlur
         inkscape:collect="always"
         stdDeviation="4.0448358"
         id="feGaussianBlur3194" />
    </filter>
    <linearGradient
       inkscape:collect="always"
       xlink:href="#linearGradient4746"
       id="linearGradient4989"
       gradientUnits="userSpaceOnUse"
       x1="-201.11111"
       y1="47.166668"
       x2="-229.88889"
       y2="-17.277779" />
    <radialGradient
       inkscape:collect="always"
       xlink:href="#linearGradient3204"
       id="radialGradient4987"
       gradientUnits="userSpaceOnUse"
       gradientTransform="matrix(0.8204265,-2.2446689e-2,2.7349547e-2,0.9996259,-35.853947,-4.5219888)"
       cx="-201.27777"
       cy="-10.611111"
       fx="-201.27777"
       fy="-10.611111"
       r="49.5" />
    <linearGradient
       inkscape:collect="always"
       xlink:href="#linearGradient4813"
       id="linearGradient4985"
       gradientUnits="userSpaceOnUse"
       x1="-196.34467"
       y1="24.04546"
       x2="-145.15533"
       y2="24.04546" />
    <linearGradient
       inkscape:collect="always"
       xlink:href="#linearGradient4813"
       id="linearGradient4983"
       gradientUnits="userSpaceOnUse"
       x1="-196.34467"
       y1="24.04546"
       x2="-145.15533"
       y2="24.04546" />
    <linearGradient
       inkscape:collect="always"
       xlink:href="#linearGradient4813"
       id="linearGradient4981"
       gradientUnits="userSpaceOnUse"
       x1="-196.34467"
       y1="24.04546"
       x2="-145.15533"
       y2="24.04546" />
    <linearGradient
       inkscape:collect="always"
       xlink:href="#linearGradient4813"
       id="linearGradient4979"
       gradientUnits="userSpaceOnUse"
       x1="-196.34467"
       y1="24.04546"
       x2="-145.15533"
       y2="24.04546" />
    <linearGradient
       inkscape:collect="always"
       xlink:href="#linearGradient4813"
       id="linearGradient4977"
       gradientUnits="userSpaceOnUse"
       x1="-196.34467"
       y1="24.04546"
       x2="-145.15533"
       y2="24.04546" />
    <linearGradient
       inkscape:collect="always"
       xlink:href="#linearGradient4813"
       id="linearGradient4975"
       gradientUnits="userSpaceOnUse"
       x1="-196.34467"
       y1="24.04546"
       x2="-145.15533"
       y2="24.04546" />
    <linearGradient
       inkscape:collect="always"
       xlink:href="#linearGradient4746"
       id="linearGradient4973"
       gradientUnits="userSpaceOnUse"
       gradientTransform="matrix(0.9,0,0,0.9,-756.55,257.41218)"
       x1="-201.11111"
       y1="47.166668"
       x2="-229.88889"
       y2="-17.277779" />
    <radialGradient
       inkscape:collect="always"
       xlink:href="#linearGradient3204"
       id="radialGradient4971"
       gradientUnits="userSpaceOnUse"
       gradientTransform="matrix(0.7383838,-2.020202e-2,2.4614592e-2,0.8996633,-788.8186,253.34239)"
       cx="-201.27777"
       cy="-10.611111"
       fx="-201.27777"
       fy="-10.611111"
       r="49.5" />
    <linearGradient
       inkscape:collect="always"
       xlink:href="#linearGradient4746"
       id="linearGradient5015"
       gradientUnits="userSpaceOnUse"
       x1="-201.11111"
       y1="47.166668"
       x2="-229.88889"
       y2="-17.277779" />
    <radialGradient
       inkscape:collect="always"
       xlink:href="#linearGradient3204"
       id="radialGradient5013"
       gradientUnits="userSpaceOnUse"
       gradientTransform="matrix(0.8204265,-2.2446689e-2,2.7349547e-2,0.9996259,-35.853947,-4.5219888)"
       cx="-201.27777"
       cy="-10.611111"
       fx="-201.27777"
       fy="-10.611111"
       r="49.5" />
    <linearGradient
       inkscape:collect="always"
       xlink:href="#linearGradient4813"
       id="linearGradient5031"
       gradientUnits="userSpaceOnUse"
       x1="-196.34467"
       y1="24.04546"
       x2="-145.15533"
       y2="24.04546" />
    <linearGradient
       inkscape:collect="always"
       xlink:href="#linearGradient4813"
       id="linearGradient5029"
       gradientUnits="userSpaceOnUse"
       x1="-196.34467"
       y1="24.04546"
       x2="-145.15533"
       y2="24.04546" />
    <linearGradient
       inkscape:collect="always"
       xlink:href="#linearGradient4813"
       id="linearGradient5027"
       gradientUnits="userSpaceOnUse"
       x1="-196.34467"
       y1="24.04546"
       x2="-145.15533"
       y2="24.04546" />
    <linearGradient
       inkscape:collect="always"
       xlink:href="#linearGradient4813"
       id="linearGradient5025"
       gradientUnits="userSpaceOnUse"
       x1="-196.34467"
       y1="24.04546"
       x2="-145.15533"
       y2="24.04546" />
    <linearGradient
       inkscape:collect="always"
       xlink:href="#linearGradient4813"
       id="linearGradient5023"
       gradientUnits="userSpaceOnUse"
       x1="-196.34467"
       y1="24.04546"
       x2="-145.15533"
       y2="24.04546" />
    <linearGradient
       id="linearGradient4813">
      <stop
         style="stop-color:#decd86;stop-opacity:1;"
         offset="0"
         id="stop4815" />
      <stop
         style="stop-color:#c9ae39;stop-opacity:0;"
         offset="1"
         id="stop4817" />
    </linearGradient>
    <linearGradient
       inkscape:collect="always"
       xlink:href="#linearGradient4813"
       id="linearGradient5021"
       gradientUnits="userSpaceOnUse"
       x1="-196.34467"
       y1="24.04546"
       x2="-145.15533"
       y2="24.04546" />
    <filter
       inkscape:collect="always"
       id="filter3228">
      <feGaussianBlur
         inkscape:collect="always"
         stdDeviation="0.5"
         id="feGaussianBlur3230" />
    </filter>
    <linearGradient
       id="linearGradient4746">
      <stop
         style="stop-color:#0f0d04;stop-opacity:1;"
         offset="0"
         id="stop4748" />
      <stop
         style="stop-color:#63551a;stop-opacity:0;"
         offset="1"
         id="stop4750" />
    </linearGradient>
    <linearGradient
       inkscape:collect="always"
       xlink:href="#linearGradient4746"
       id="linearGradient5019"
       gradientUnits="userSpaceOnUse"
       gradientTransform="matrix(0.9,0,0,0.9,-756.55,257.41218)"
       x1="-201.11111"
       y1="47.166668"
       x2="-229.88889"
       y2="-17.277779" />
    <linearGradient
       id="linearGradient3204">
      <stop
         style="stop-color:#e3d28c;stop-opacity:1;"
         offset="0"
         id="stop3206" />
      <stop
         style="stop-color:#8d7926;stop-opacity:1;"
         offset="1"
         id="stop3208" />
    </linearGradient>
    <radialGradient
       inkscape:collect="always"
       xlink:href="#linearGradient3204"
       id="radialGradient5017"
       gradientUnits="userSpaceOnUse"
       gradientTransform="matrix(0.7383838,-2.020202e-2,2.4614592e-2,0.8996633,-788.8186,253.34239)"
       cx="-201.27777"
       cy="-10.611111"
       fx="-201.27777"
       fy="-10.611111"
       r="49.5" />
  </defs>
  <sodipodi:namedview
     id="base"
     pagecolor="#ffffff"
     bordercolor="#666666"
     borderopacity="1.0"
     gridtolerance="10000"
     guidetolerance="10"
     objecttolerance="10"
     inkscape:pageopacity="0.0"
     inkscape:pageshadow="2"
     inkscape:zoom="0.35"
     inkscape:cx="375"
     inkscape:cy="520"
     inkscape:document-units="px"
     inkscape:current-layer="layer1"
     showgrid="false"
     inkscape:window-width="1680"
     inkscape:window-height="977"
     inkscape:window-x="0"
     inkscape:window-y="25" />
  <metadata
     id="metadata5064">
    <rdf:RDF>
      <cc:Work
         rdf:about="">
        <dc:format>image/svg+xml</dc:format>
        <dc:type
           rdf:resource="http://purl.org/dc/dcmitype/StillImage" />
      </cc:Work>
    </rdf:RDF>
  </metadata>
  <g
     inkscape:label="Layer 1"
     inkscape:groupmode="layer"
     id="layer1"
     transform="translate(-160,-456.36218)">
    <path
       inkscape:export-ydpi="90"
       inkscape:export-xdpi="90"
       inkscape:export-filename="/home/duffy/Documents/Logos/pulp.png"
       transform="matrix(1.0238039,0,0,0.8814545,1201.7869,468.55381)"
       style="fill:url(#linearGradient5035);fill-opacity:1;fill-rule:evenodd;stroke:url(#linearGradient5037);stroke-width:1.19808018px;stroke-linecap:butt;stroke-linejoin:miter;stroke-opacity:1;filter:url(#filter3101)"
       d="M -912,173.36218 L -917.3125,147.23718 L -910.625,143.11218 L -915.9375,142.98718 L -917.25,132.86218 L -910.5,127.36218 L -915.75,123.86218 L -917,107.36218 C -917,107.36218 -913,115.36218 -909,111.36218 C -905,107.36218 -909,107.36218 -900,108.36218 C -891,109.36218 -887,111.36218 -884,107.36218 C -881,103.36218 -893,103.36218 -877,102.36218 C -861,101.36218 -870,102.36218 -859,103.36218 C -848,104.36218 -846,103.36218 -846,103.36218 C -846,103.36218 -844,100.36218 -840,101.36218 C -836,102.36218 -838,101.36218 -834,103.36218 C -834,103.36218 -830,109.36218 -825,108.36218 C -820,107.36218 -824,106.36218 -817,104.36218 C -810,102.36218 -817,98.36218 -809,102.36218 C -801,106.36218 -806,108.36218 -795,108.36218 C -784,108.36218 -780,108.36218 -780,108.36218 C -780,108.36218 -782,104.36218 -777,111.36218 C -772,118.36218 -771,120.36218 -771,120.36218 C -771,120.36218 -772.6875,146.67468 -773.65625,151.65905 C -774.625,156.64343 -775.875,151.29968 -783,151.98718 C -781.125,158.67468 -775.125,154.39343 -775.59375,159.5028 C -776.0625,164.61218 -779,174.11218 -778,174.36218 C -774,175.36218 -786,179.36218 -794,176.36218 C -802,173.36218 -814,176.36218 -814,176.36218 C -814,176.36218 -814,172.36218 -829,173.36218 C -844,174.36218 -845,170.36218 -851,173.36218 C -857,176.36218 -852,178.36218 -860,177.36218 C -868,176.36218 -867,179.36218 -875,176.36218 C -883,173.36218 -882,171.36218 -889,172.36218 C -896,173.36218 -893,172.36218 -900,174.36218 C -907,176.36218 -911.36985,176.46104 -912,173.36218 z"
       id="path5033"
       sodipodi:nodetypes="ccccccccssssscscsssscscscssscssssssz" />
    <g
       id="g5039"
       transform="matrix(0.8866333,0,0,0.8871953,36.449375,409.29226)"
       inkscape:export-filename="/home/duffy/Documents/Logos/pulp.png"
       inkscape:export-xdpi="90"
       inkscape:export-ydpi="90">
      <g
         id="g5041"
         style="fill:#504416;fill-opacity:1;filter:url(#filter3192)">
        <path
           style="font-size:45.54167175px;font-style:normal;font-weight:normal;line-height:1230149079061941934225568563200%;fill:#504416;fill-opacity:1;stroke:none;stroke-width:1px;stroke-linecap:butt;stroke-linejoin:miter;stroke-opacity:1;font-family:Bitstream Vera Sans"
           d="M 279.68264,197.97584 L 279.68264,200.43509 C 280.41131,200.61726 281.00335,200.43509 281.50431,200.89051 C 282.96164,202.16567 282.59731,204.53384 282.68839,206.90201 C 282.77948,208.99692 282.14189,210.18101 282.14189,212.27592 C 282.14189,214.91734 282.77948,216.83009 282.87056,219.01609 C 283.00719,221.74859 282.55177,223.84351 281.68648,225.93843 C 281.23106,227.07697 282.23298,227.35022 283.41706,226.84926 C 284.5556,226.3483 285.51198,226.3483 286.05848,225.30084 C 286.46835,224.48109 286.65052,224.02567 286.14956,223.02376 C 285.23873,221.20209 285.28427,220.01801 285.14764,218.01417 C 285.01102,216.14697 285.51198,215.05396 285.42089,213.18676 C 285.28427,210.18101 284.0091,207.03863 284.51006,203.16759 C 284.82885,200.70834 283.69031,199.43317 286.24064,197.06501 C 287.15148,196.24526 287.51581,195.60767 288.51773,194.87901 C 289.56519,194.1048 290.3394,193.96817 291.43239,193.33059 C 292.29769,192.82963 292.66202,192.28313 293.61839,191.96434 C 294.11935,191.78217 294.52923,191.82771 295.07573,191.69109 C 295.84994,191.50892 296.21427,191.3723 296.98848,191.23567 C 298.26364,191.05351 298.99231,191.05351 300.26748,191.14459 C 301.08723,191.19013 301.54265,191.23567 302.3624,191.41784 C 303.91081,191.78217 304.59394,192.55638 306.00573,193.23951 C 306.50669,193.46721 306.7344,193.87709 307.09873,194.33251 C 308.0551,195.47105 308.23727,196.51851 308.82931,197.70259 C 309.19365,198.43126 309.05702,201.02713 308.10065,202.80326 C 306.96211,204.89817 306.00573,205.80901 304.45731,207.35742 C 304.04744,207.7673 303.77419,207.99501 303.18215,208.17717 C 302.63565,208.3138 302.3624,208.13163 301.8159,208.17717 C 301.36048,208.22272 301.08723,208.40488 300.63181,208.45042 C 299.44773,208.63259 298.81014,208.35934 297.62606,208.26826 C 297.1251,208.22272 296.85185,208.3138 296.3509,208.17717 C 295.53115,207.99501 295.16681,207.67621 294.52923,207.17526 C 292.88973,205.90009 291.88781,204.57938 291.97889,202.53001 C 293.88689,200.37542 296.67966,197.32147 292.70756,197.52042 C 291.52348,198.43125 291.06806,199.11438 290.15723,200.25292 C 289.10977,201.57363 289.65627,202.48447 289.97506,203.62301 C 290.11169,204.07842 290.06614,204.35167 290.15723,204.80709 C 290.29385,205.80901 290.11169,206.53767 290.52156,207.35742 C 290.74927,207.85838 291.15915,207.90392 291.61456,208.26826 C 292.98081,209.31571 293.80056,209.99884 295.44006,210.36317 C 295.98656,210.4998 296.25981,210.4998 296.80631,210.54534 C 298.94677,210.72751 299.90315,210.59088 302.27131,210.27209 C 304.04744,210.04438 305.50477,209.72559 306.7344,208.35934 C 307.2809,207.7673 307.41752,207.26634 307.8274,206.62876 C 308.87485,204.98926 309.87677,204.26059 310.5599,202.43892 C 310.87869,201.57363 311.15194,201.07267 311.19748,200.16184 C 311.28856,199.15992 311.01531,198.61342 310.83315,197.61151 C 310.65098,196.47297 310.7876,195.83538 310.28665,194.78792 C 309.64906,193.46721 308.73823,193.10288 307.64523,192.14651 C 306.37006,191.05351 305.73248,190.2793 304.18406,189.59617 C 303.31877,189.23184 302.77227,189.00413 301.8159,188.8675 C 300.76844,188.73088 300.13085,189.00413 299.0834,188.95859 C 298.49135,188.95859 298.12702,188.82196 297.53498,188.8675 C 296.76077,188.91305 296.30535,189.14075 295.53115,189.23184 C 294.80248,189.32292 294.34706,189.27738 293.61839,189.414 C 291.38686,189.86942 290.52156,191.46338 288.60881,192.41976 C 285.9674,193.74046 285.19318,195.7443 282.50623,196.97392 C 281.45877,197.42934 280.77564,197.70259 279.68264,197.97584"
           id="path5043" />
        <path
           style="font-size:45.54167175px;font-style:normal;font-weight:normal;line-height:1230149079061941934225568563200%;fill:#504416;fill-opacity:1;stroke:none;stroke-width:1px;stroke-linecap:butt;stroke-linejoin:miter;stroke-opacity:1;font-family:Bitstream Vera Sans"
           d="M 314.30076,191.23567 C 313.11668,190.09713 312.29692,190.68917 311.65934,191.87326 C 311.0673,192.96625 311.47718,193.83155 312.20584,194.97009 C 313.11667,196.38188 313.16222,198.15801 313.20776,200.25292 C 313.20776,201.48255 312.93451,202.12013 312.93451,203.34976 C 312.93451,204.53384 313.16222,205.17142 313.11668,206.35551 C 313.11668,206.90201 313.02559,207.26634 313.02559,207.81284 C 313.02559,208.26826 313.11668,208.54151 313.11668,208.99692 C 313.11668,209.54342 313.02559,209.81667 313.02559,210.36317 C 313.02559,211.72942 312.98005,212.64026 313.48101,213.91542 C 313.70872,214.50747 313.98197,214.78072 314.20968,215.37276 C 314.39184,215.82817 314.3463,216.23805 314.57401,216.64792 C 315.75809,218.56067 316.89664,219.51705 318.85493,220.47343 C 319.62913,220.8833 320.22118,220.92884 321.13201,221.11101 C 322.27055,221.33872 322.90814,221.4298 324.04668,221.38426 C 324.63872,221.33872 325.00305,221.24763 325.59509,221.20209 C 326.46038,221.15655 326.9158,221.29318 327.78109,221.29318 C 328.32759,221.29318 328.69193,221.24763 329.23843,221.29318 C 329.60276,221.29318 329.78493,221.33872 330.14926,221.38426 C 331.46997,221.47534 332.97285,220.92884 334.61234,220.20017 C 335.61426,219.74476 336.2063,219.51705 337.0716,218.83392 C 338.16459,217.92309 338.66555,217.14888 339.43976,215.82817 C 340.80601,213.46001 341.03372,211.72942 341.17035,208.99692 C 341.30697,206.81093 340.5783,205.62684 340.62385,203.44084 C 340.62385,202.53001 340.80601,201.98351 340.80601,201.07267 C 340.80601,200.25292 340.5783,199.79751 340.62385,198.97776 C 340.66939,198.43126 340.8971,198.15801 340.8971,197.61151 C 340.8971,196.97392 340.66939,196.60959 340.62385,195.97201 C 340.5783,195.10671 340.62385,194.6513 340.80601,193.78601 C 340.98818,192.73855 341.89901,192.23759 341.62576,191.23567 C 341.39805,190.46146 341.03372,189.82388 340.25951,189.68725 C 339.43976,189.55063 338.89326,189.50509 337.98243,189.59617 C 337.25376,189.64171 336.7528,189.45955 336.16076,189.9605 C 335.61426,190.41592 335.38655,190.96242 335.79643,191.60001 C 336.38847,192.51084 336.88943,192.82963 337.34485,193.78601 C 337.89134,194.92455 337.98243,195.69876 338.1646,196.97392 C 338.34676,198.24909 338.43785,198.97776 338.34676,200.25292 C 338.30122,200.57171 338.21014,200.75388 338.25568,201.07267 C 338.52893,202.57555 338.57447,203.3953 338.62001,204.89817 C 338.7111,207.2208 338.34676,208.54151 338.25568,210.90967 C 338.1646,213.09567 337.70918,214.50747 336.16076,216.10142 C 335.93305,216.32913 335.97859,216.64792 335.70534,216.83009 C 333.65597,218.1508 332.51743,218.24188 330.33143,218.56067 C 330.01264,218.60622 329.83047,218.65176 329.51168,218.65176 C 329.05626,218.65176 328.78301,218.60622 328.32759,218.56067 C 326.1416,218.42405 324.86642,219.06163 322.77151,218.46959 C 322.31609,218.33297 322.13393,218.19634 321.67851,218.10526 C 321.08647,217.96863 320.58551,218.24188 320.13009,217.92309 C 319.12818,217.19443 318.49059,216.92117 317.57976,216.01034 C 316.98772,215.4183 317.0788,214.82626 316.66893,214.09759 C 316.44122,213.64217 316.25905,213.46001 316.03134,213.00459 C 315.30268,211.41063 315.71255,210.22655 315.57593,208.45042 C 315.4393,206.90201 315.21159,206.08226 315.30268,204.53384 C 315.34822,203.85072 315.4393,203.48638 315.48484,202.80326 C 315.53038,201.57363 314.98388,200.84496 315.21159,199.61534 C 315.48484,198.24909 314.39185,195.42551 316.94218,196.60959 C 317.6253,196.92838 317.85301,197.70259 318.58168,197.52042 C 319.12818,197.3838 319.44697,197.06501 319.58359,196.51851 C 319.76576,195.69876 319.03709,195.24334 318.39951,194.78792 C 316.71447,193.60384 315.53038,192.41975 314.30076,191.23567"
           id="path5045" />
        <path
           style="font-size:45.54167175px;font-style:normal;font-weight:normal;line-height:1230149079061941934225568563200%;fill:#504416;fill-opacity:1;stroke:none;stroke-width:1px;stroke-linecap:butt;stroke-linejoin:miter;stroke-opacity:1;font-family:Bitstream Vera Sans"
           d="M 345.65268,201.43701 C 345.88039,203.623 345.10618,204.80709 345.10618,206.99309 C 345.10618,209.77113 345.83485,212.54918 345.92593,214.09759 C 345.97148,214.78072 345.51606,215.32722 345.42497,215.78263 C 345.19727,217.10334 344.92402,217.64984 344.10427,218.83392 C 343.83102,219.19826 343.51222,219.60813 343.19343,219.7903 C 342.46477,220.24572 342.46477,221.47534 343.9221,221.65751 C 344.42306,221.74859 344.74185,221.52088 345.28835,221.47534 C 346.79122,221.33872 347.61098,221.56643 349.11385,221.56643 C 351.80081,221.52088 353.62248,221.11101 355.9451,221.11101 C 357.31135,221.11101 358.1311,221.56643 359.49735,221.56643 C 360.8636,221.56643 361.59227,221.24763 362.95852,221.20209 C 364.00598,221.15655 364.64356,221.33872 365.69102,221.20209 C 366.28306,221.11101 366.64739,220.83776 367.23944,220.83776 C 367.87702,220.83776 368.24135,221.24763 368.87894,221.20209 C 370.29073,221.06547 371.2471,220.10909 371.2471,218.46959 C 371.2471,217.23997 371.01939,216.60238 371.06494,215.37276 C 371.11048,214.14313 370.01748,214.27976 369.6076,215.37276 C 369.24327,216.32913 369.0611,216.83009 368.33244,217.55876 C 368.05919,217.83201 367.74039,217.64984 367.33052,217.74092 C 366.69294,217.92309 366.41969,218.28742 365.7821,218.37851 C 365.19006,218.46959 364.82573,218.19634 364.23369,218.28742 C 363.73273,218.37851 363.55056,218.65176 363.0496,218.65176 C 362.54864,218.65176 362.36648,218.33297 361.86552,218.28742 C 360.40819,218.19634 359.58843,218.83392 358.1311,218.74284 C 357.5846,218.6973 357.22027,218.60622 356.67377,218.56067 C 355.35306,218.46959 354.62439,218.78838 353.30368,218.83392 C 352.39285,218.87947 351.80081,218.92501 350.93552,218.83392 C 348.8406,218.65176 348.47627,218.1508 348.11193,215.64601 C 347.88423,214.09759 347.7476,213.14121 347.7476,211.54726 C 347.7476,210.81859 347.83868,210.45426 347.83868,209.72559 C 347.83868,208.67813 347.7476,208.04055 347.7476,206.99309 C 347.7476,204.4883 348.2941,203.03096 348.20302,200.52617 C 348.15748,199.15992 347.79314,198.43125 347.83868,197.06501 C 347.88423,195.42551 347.83868,194.37805 348.56735,192.87517 C 348.8406,192.28313 349.3871,192.1465 349.3871,191.50892 C 349.34156,190.68917 348.52181,189.86942 347.83868,190.14267 C 346.29027,190.8258 345.65268,191.64555 344.19535,192.78409 C 343.19343,193.5583 342.8291,194.56021 343.73993,195.51659 C 345.42497,197.24717 345.42498,199.0233 345.65268,201.43701"
           id="path5047" />
        <path
           id="path5049"
           d="M 371.68264,197.97584 L 371.68264,200.43509 C 372.41131,200.61726 373.00335,200.43509 373.50431,200.89051 C 374.96164,202.16567 374.59731,204.53384 374.68839,206.90201 C 374.77948,208.99692 374.14189,210.18101 374.14189,212.27592 C 374.14189,214.91734 374.77948,216.83009 374.87056,219.01609 C 375.00719,221.74859 374.55177,223.84351 373.68648,225.93843 C 373.23106,227.07697 374.23298,227.35022 375.41706,226.84926 C 376.5556,226.3483 377.51198,226.3483 378.05848,225.30084 C 378.46835,224.48109 378.65052,224.02567 378.14956,223.02376 C 377.23873,221.20209 377.28427,220.01801 377.14764,218.01417 C 377.01102,216.14697 377.51198,215.05396 377.42089,213.18676 C 377.28427,210.18101 376.0091,207.03863 376.51006,203.16759 C 376.82885,200.70834 375.69031,199.43317 378.24064,197.06501 C 379.15148,196.24526 379.51581,195.60767 380.51773,194.87901 C 381.56519,194.1048 382.3394,193.96817 383.43239,193.33059 C 384.29769,192.82963 384.66202,192.28313 385.61839,191.96434 C 386.11935,191.78217 386.52923,191.82771 387.07573,191.69109 C 387.84994,191.50892 388.21427,191.3723 388.98848,191.23567 C 390.26364,191.05351 390.99231,191.05351 392.26748,191.14459 C 393.08723,191.19013 393.54265,191.23567 394.3624,191.41784 C 395.91081,191.78217 396.59394,192.55638 398.00573,193.23951 C 398.50669,193.46721 398.7344,193.87709 399.09873,194.33251 C 400.0551,195.47105 400.23727,196.51851 400.82931,197.70259 C 401.19365,198.43126 401.05702,201.02713 400.10065,202.80326 C 398.96211,204.89817 398.00573,205.80901 396.45731,207.35742 C 396.04744,207.7673 395.77419,207.99501 395.18215,208.17717 C 394.63565,208.3138 394.3624,208.13163 393.8159,208.17717 C 393.36048,208.22272 393.08723,208.40488 392.63181,208.45042 C 391.44773,208.63259 390.81014,208.35934 389.62606,208.26826 C 389.1251,208.22272 388.85185,208.3138 388.3509,208.17717 C 387.53115,207.99501 387.16681,207.67621 386.52923,207.17526 C 384.88973,205.90009 383.88781,204.57938 383.97889,202.53001 C 385.88689,200.37542 388.67966,197.32147 384.70756,197.52042 C 383.52348,198.43125 383.06806,199.11438 382.15723,200.25292 C 381.10977,201.57363 381.65627,202.48447 381.97506,203.62301 C 382.11169,204.07842 382.06614,204.35167 382.15723,204.80709 C 382.29385,205.80901 382.11169,206.53767 382.52156,207.35742 C 382.74927,207.85838 383.15915,207.90392 383.61456,208.26826 C 384.98081,209.31571 385.80056,209.99884 387.44006,210.36317 C 387.98656,210.4998 388.25981,210.4998 388.80631,210.54534 C 390.94677,210.72751 391.90315,210.59088 394.27131,210.27209 C 396.04744,210.04438 397.50477,209.72559 398.7344,208.35934 C 399.2809,207.7673 399.41752,207.26634 399.8274,206.62876 C 400.87485,204.98926 401.87677,204.26059 402.5599,202.43892 C 402.87869,201.57363 403.15194,201.07267 403.19748,200.16184 C 403.28856,199.15992 403.01531,198.61342 402.83315,197.61151 C 402.65098,196.47297 402.7876,195.83538 402.28665,194.78792 C 401.64906,193.46721 400.73823,193.10288 399.64523,192.14651 C 398.37006,191.05351 397.73248,190.2793 396.18406,189.59617 C 395.31877,189.23184 394.77227,189.00413 393.8159,188.8675 C 392.76844,188.73088 392.13085,189.00413 391.0834,188.95859 C 390.49135,188.95859 390.12702,188.82196 389.53498,188.8675 C 388.76077,188.91305 388.30535,189.14075 387.53115,189.23184 C 386.80248,189.32292 386.34706,189.27738 385.61839,189.414 C 383.38686,189.86942 382.52156,191.46338 380.60881,192.41976 C 377.9674,193.74046 377.19318,195.7443 374.50623,196.97392 C 373.45877,197.42934 372.77564,197.70259 371.68264,197.97584"
           style="font-size:45.54167175px;font-style:normal;font-weight:normal;line-height:1230149079061941934225568563200%;fill:#504416;fill-opacity:1;stroke:none;stroke-width:1px;stroke-linecap:butt;stroke-linejoin:miter;stroke-opacity:1;font-family:Bitstream Vera Sans" />
      </g>
      <path
         style="font-size:45.54167175px;font-style:normal;font-weight:normal;line-height:1230149079061941934225568563200%;fill:#6c5c1d;fill-opacity:1;stroke:none;stroke-width:1px;stroke-linecap:butt;stroke-linejoin:miter;stroke-opacity:1;font-family:Bitstream Vera Sans"
         d="M 279.68264,197.97584 L 279.68264,200.43509 C 280.41131,200.61726 281.00335,200.43509 281.50431,200.89051 C 282.96164,202.16567 282.59731,204.53384 282.68839,206.90201 C 282.77948,208.99692 282.14189,210.18101 282.14189,212.27592 C 282.14189,214.91734 282.77948,216.83009 282.87056,219.01609 C 283.00719,221.74859 282.55177,223.84351 281.68648,225.93843 C 281.23106,227.07697 282.23298,227.35022 283.41706,226.84926 C 284.5556,226.3483 285.51198,226.3483 286.05848,225.30084 C 286.46835,224.48109 286.65052,224.02567 286.14956,223.02376 C 285.23873,221.20209 285.28427,220.01801 285.14764,218.01417 C 285.01102,216.14697 285.51198,215.05396 285.42089,213.18676 C 285.28427,210.18101 284.0091,207.03863 284.51006,203.16759 C 284.82885,200.70834 283.69031,199.43317 286.24064,197.06501 C 287.15148,196.24526 287.51581,195.60767 288.51773,194.87901 C 289.56519,194.1048 290.3394,193.96817 291.43239,193.33059 C 292.29769,192.82963 292.66202,192.28313 293.61839,191.96434 C 294.11935,191.78217 294.52923,191.82771 295.07573,191.69109 C 295.84994,191.50892 296.21427,191.3723 296.98848,191.23567 C 298.26364,191.05351 298.99231,191.05351 300.26748,191.14459 C 301.08723,191.19013 301.54265,191.23567 302.3624,191.41784 C 303.91081,191.78217 304.59394,192.55638 306.00573,193.23951 C 306.50669,193.46721 306.7344,193.87709 307.09873,194.33251 C 308.0551,195.47105 308.23727,196.51851 308.82931,197.70259 C 309.19365,198.43126 309.05702,201.02713 308.10065,202.80326 C 306.96211,204.89817 306.00573,205.80901 304.45731,207.35742 C 304.04744,207.7673 303.77419,207.99501 303.18215,208.17717 C 302.63565,208.3138 302.3624,208.13163 301.8159,208.17717 C 301.36048,208.22272 301.08723,208.40488 300.63181,208.45042 C 299.44773,208.63259 298.81014,208.35934 297.62606,208.26826 C 297.1251,208.22272 296.85185,208.3138 296.3509,208.17717 C 295.53115,207.99501 295.16681,207.67621 294.52923,207.17526 C 292.88973,205.90009 291.88781,204.57938 291.97889,202.53001 C 293.88689,200.37542 296.67966,197.32147 292.70756,197.52042 C 291.52348,198.43125 291.06806,199.11438 290.15723,200.25292 C 289.10977,201.57363 289.65627,202.48447 289.97506,203.62301 C 290.11169,204.07842 290.06614,204.35167 290.15723,204.80709 C 290.29385,205.80901 290.11169,206.53767 290.52156,207.35742 C 290.74927,207.85838 291.15915,207.90392 291.61456,208.26826 C 292.98081,209.31571 293.80056,209.99884 295.44006,210.36317 C 295.98656,210.4998 296.25981,210.4998 296.80631,210.54534 C 298.94677,210.72751 299.90315,210.59088 302.27131,210.27209 C 304.04744,210.04438 305.50477,209.72559 306.7344,208.35934 C 307.2809,207.7673 307.41752,207.26634 307.8274,206.62876 C 308.87485,204.98926 309.87677,204.26059 310.5599,202.43892 C 310.87869,201.57363 311.15194,201.07267 311.19748,200.16184 C 311.28856,199.15992 311.01531,198.61342 310.83315,197.61151 C 310.65098,196.47297 310.7876,195.83538 310.28665,194.78792 C 309.64906,193.46721 308.73823,193.10288 307.64523,192.14651 C 306.37006,191.05351 305.73248,190.2793 304.18406,189.59617 C 303.31877,189.23184 302.77227,189.00413 301.8159,188.8675 C 300.76844,188.73088 300.13085,189.00413 299.0834,188.95859 C 298.49135,188.95859 298.12702,188.82196 297.53498,188.8675 C 296.76077,188.91305 296.30535,189.14075 295.53115,189.23184 C 294.80248,189.32292 294.34706,189.27738 293.61839,189.414 C 291.38686,189.86942 290.52156,191.46338 288.60881,192.41976 C 285.9674,193.74046 285.19318,195.7443 282.50623,196.97392 C 281.45877,197.42934 280.77564,197.70259 279.68264,197.97584"
         id="path5051" />
      <path
         style="font-size:45.54167175px;font-style:normal;font-weight:normal;line-height:1230149079061941934225568563200%;fill:#6c5c1d;fill-opacity:1;stroke:none;stroke-width:1px;stroke-linecap:butt;stroke-linejoin:miter;stroke-opacity:1;font-family:Bitstream Vera Sans"
         d="M 314.30076,191.23567 C 313.11668,190.09713 312.29692,190.68917 311.65934,191.87326 C 311.0673,192.96625 311.47718,193.83155 312.20584,194.97009 C 313.11667,196.38188 313.16222,198.15801 313.20776,200.25292 C 313.20776,201.48255 312.93451,202.12013 312.93451,203.34976 C 312.93451,204.53384 313.16222,205.17142 313.11668,206.35551 C 313.11668,206.90201 313.02559,207.26634 313.02559,207.81284 C 313.02559,208.26826 313.11668,208.54151 313.11668,208.99692 C 313.11668,209.54342 313.02559,209.81667 313.02559,210.36317 C 313.02559,211.72942 312.98005,212.64026 313.48101,213.91542 C 313.70872,214.50747 313.98197,214.78072 314.20968,215.37276 C 314.39184,215.82817 314.3463,216.23805 314.57401,216.64792 C 315.75809,218.56067 316.89664,219.51705 318.85493,220.47343 C 319.62913,220.8833 320.22118,220.92884 321.13201,221.11101 C 322.27055,221.33872 322.90814,221.4298 324.04668,221.38426 C 324.63872,221.33872 325.00305,221.24763 325.59509,221.20209 C 326.46038,221.15655 326.9158,221.29318 327.78109,221.29318 C 328.32759,221.29318 328.69193,221.24763 329.23843,221.29318 C 329.60276,221.29318 329.78493,221.33872 330.14926,221.38426 C 331.46997,221.47534 332.97285,220.92884 334.61234,220.20017 C 335.61426,219.74476 336.2063,219.51705 337.0716,218.83392 C 338.16459,217.92309 338.66555,217.14888 339.43976,215.82817 C 340.80601,213.46001 341.03372,211.72942 341.17035,208.99692 C 341.30697,206.81093 340.5783,205.62684 340.62385,203.44084 C 340.62385,202.53001 340.80601,201.98351 340.80601,201.07267 C 340.80601,200.25292 340.5783,199.79751 340.62385,198.97776 C 340.66939,198.43126 340.8971,198.15801 340.8971,197.61151 C 340.8971,196.97392 340.66939,196.60959 340.62385,195.97201 C 340.5783,195.10671 340.62385,194.6513 340.80601,193.78601 C 340.98818,192.73855 341.89901,192.23759 341.62576,191.23567 C 341.39805,190.46146 341.03372,189.82388 340.25951,189.68725 C 339.43976,189.55063 338.89326,189.50509 337.98243,189.59617 C 337.25376,189.64171 336.7528,189.45955 336.16076,189.9605 C 335.61426,190.41592 335.38655,190.96242 335.79643,191.60001 C 336.38847,192.51084 336.88943,192.82963 337.34485,193.78601 C 337.89134,194.92455 337.98243,195.69876 338.1646,196.97392 C 338.34676,198.24909 338.43785,198.97776 338.34676,200.25292 C 338.30122,200.57171 338.21014,200.75388 338.25568,201.07267 C 338.52893,202.57555 338.57447,203.3953 338.62001,204.89817 C 338.7111,207.2208 338.34676,208.54151 338.25568,210.90967 C 338.1646,213.09567 337.70918,214.50747 336.16076,216.10142 C 335.93305,216.32913 335.97859,216.64792 335.70534,216.83009 C 333.65597,218.1508 332.51743,218.24188 330.33143,218.56067 C 330.01264,218.60622 329.83047,218.65176 329.51168,218.65176 C 329.05626,218.65176 328.78301,218.60622 328.32759,218.56067 C 326.1416,218.42405 324.86642,219.06163 322.77151,218.46959 C 322.31609,218.33297 322.13393,218.19634 321.67851,218.10526 C 321.08647,217.96863 320.58551,218.24188 320.13009,217.92309 C 319.12818,217.19443 318.49059,216.92117 317.57976,216.01034 C 316.98772,215.4183 317.0788,214.82626 316.66893,214.09759 C 316.44122,213.64217 316.25905,213.46001 316.03134,213.00459 C 315.30268,211.41063 315.71255,210.22655 315.57593,208.45042 C 315.4393,206.90201 315.21159,206.08226 315.30268,204.53384 C 315.34822,203.85072 315.4393,203.48638 315.48484,202.80326 C 315.53038,201.57363 314.98388,200.84496 315.21159,199.61534 C 315.48484,198.24909 314.39185,195.42551 316.94218,196.60959 C 317.6253,196.92838 317.85301,197.70259 318.58168,197.52042 C 319.12818,197.3838 319.44697,197.06501 319.58359,196.51851 C 319.76576,195.69876 319.03709,195.24334 318.39951,194.78792 C 316.71447,193.60384 315.53038,192.41975 314.30076,191.23567"
         id="path5053" />
      <path
         style="font-size:45.54167175px;font-style:normal;font-weight:normal;line-height:1230149079061941934225568563200%;fill:#6c5c1d;fill-opacity:1;stroke:none;stroke-width:1px;stroke-linecap:butt;stroke-linejoin:miter;stroke-opacity:1;font-family:Bitstream Vera Sans"
         d="M 345.65268,201.43701 C 345.88039,203.623 345.10618,204.80709 345.10618,206.99309 C 345.10618,209.77113 345.83485,212.54918 345.92593,214.09759 C 345.97148,214.78072 345.51606,215.32722 345.42497,215.78263 C 345.19727,217.10334 344.92402,217.64984 344.10427,218.83392 C 343.83102,219.19826 343.51222,219.60813 343.19343,219.7903 C 342.46477,220.24572 342.46477,221.47534 343.9221,221.65751 C 344.42306,221.74859 344.74185,221.52088 345.28835,221.47534 C 346.79122,221.33872 347.61098,221.56643 349.11385,221.56643 C 351.80081,221.52088 353.62248,221.11101 355.9451,221.11101 C 357.31135,221.11101 358.1311,221.56643 359.49735,221.56643 C 360.8636,221.56643 361.59227,221.24763 362.95852,221.20209 C 364.00598,221.15655 364.64356,221.33872 365.69102,221.20209 C 366.28306,221.11101 366.64739,220.83776 367.23944,220.83776 C 367.87702,220.83776 368.24135,221.24763 368.87894,221.20209 C 370.29073,221.06547 371.2471,220.10909 371.2471,218.46959 C 371.2471,217.23997 371.01939,216.60238 371.06494,215.37276 C 371.11048,214.14313 370.01748,214.27976 369.6076,215.37276 C 369.24327,216.32913 369.0611,216.83009 368.33244,217.55876 C 368.05919,217.83201 367.74039,217.64984 367.33052,217.74092 C 366.69294,217.92309 366.41969,218.28742 365.7821,218.37851 C 365.19006,218.46959 364.82573,218.19634 364.23369,218.28742 C 363.73273,218.37851 363.55056,218.65176 363.0496,218.65176 C 362.54864,218.65176 362.36648,218.33297 361.86552,218.28742 C 360.40819,218.19634 359.58843,218.83392 358.1311,218.74284 C 357.5846,218.6973 357.22027,218.60622 356.67377,218.56067 C 355.35306,218.46959 354.62439,218.78838 353.30368,218.83392 C 352.39285,218.87947 351.80081,218.92501 350.93552,218.83392 C 348.8406,218.65176 348.47627,218.1508 348.11193,215.64601 C 347.88423,214.09759 347.7476,213.14121 347.7476,211.54726 C 347.7476,210.81859 347.83868,210.45426 347.83868,209.72559 C 347.83868,208.67813 347.7476,208.04055 347.7476,206.99309 C 347.7476,204.4883 348.2941,203.03096 348.20302,200.52617 C 348.15748,199.15992 347.79314,198.43125 347.83868,197.06501 C 347.88423,195.42551 347.83868,194.37805 348.56735,192.87517 C 348.8406,192.28313 349.3871,192.1465 349.3871,191.50892 C 349.34156,190.68917 348.52181,189.86942 347.83868,190.14267 C 346.29027,190.8258 345.65268,191.64555 344.19535,192.78409 C 343.19343,193.5583 342.8291,194.56021 343.73993,195.51659 C 345.42497,197.24717 345.42498,199.0233 345.65268,201.43701"
         id="path5055" />
      <path
         id="path5057"
         d="M 371.68264,197.97584 L 371.68264,200.43509 C 372.41131,200.61726 373.00335,200.43509 373.50431,200.89051 C 374.96164,202.16567 374.59731,204.53384 374.68839,206.90201 C 374.77948,208.99692 374.14189,210.18101 374.14189,212.27592 C 374.14189,214.91734 374.77948,216.83009 374.87056,219.01609 C 375.00719,221.74859 374.55177,223.84351 373.68648,225.93843 C 373.23106,227.07697 374.23298,227.35022 375.41706,226.84926 C 376.5556,226.3483 377.51198,226.3483 378.05848,225.30084 C 378.46835,224.48109 378.65052,224.02567 378.14956,223.02376 C 377.23873,221.20209 377.28427,220.01801 377.14764,218.01417 C 377.01102,216.14697 377.51198,215.05396 377.42089,213.18676 C 377.28427,210.18101 376.0091,207.03863 376.51006,203.16759 C 376.82885,200.70834 375.69031,199.43317 378.24064,197.06501 C 379.15148,196.24526 379.51581,195.60767 380.51773,194.87901 C 381.56519,194.1048 382.3394,193.96817 383.43239,193.33059 C 384.29769,192.82963 384.66202,192.28313 385.61839,191.96434 C 386.11935,191.78217 386.52923,191.82771 387.07573,191.69109 C 387.84994,191.50892 388.21427,191.3723 388.98848,191.23567 C 390.26364,191.05351 390.99231,191.05351 392.26748,191.14459 C 393.08723,191.19013 393.54265,191.23567 394.3624,191.41784 C 395.91081,191.78217 396.59394,192.55638 398.00573,193.23951 C 398.50669,193.46721 398.7344,193.87709 399.09873,194.33251 C 400.0551,195.47105 400.23727,196.51851 400.82931,197.70259 C 401.19365,198.43126 401.05702,201.02713 400.10065,202.80326 C 398.96211,204.89817 398.00573,205.80901 396.45731,207.35742 C 396.04744,207.7673 395.77419,207.99501 395.18215,208.17717 C 394.63565,208.3138 394.3624,208.13163 393.8159,208.17717 C 393.36048,208.22272 393.08723,208.40488 392.63181,208.45042 C 391.44773,208.63259 390.81014,208.35934 389.62606,208.26826 C 389.1251,208.22272 388.85185,208.3138 388.3509,208.17717 C 387.53115,207.99501 387.16681,207.67621 386.52923,207.17526 C 384.88973,205.90009 383.88781,204.57938 383.97889,202.53001 C 385.88689,200.37542 388.67966,197.32147 384.70756,197.52042 C 383.52348,198.43125 383.06806,199.11438 382.15723,200.25292 C 381.10977,201.57363 381.65627,202.48447 381.97506,203.62301 C 382.11169,204.07842 382.06614,204.35167 382.15723,204.80709 C 382.29385,205.80901 382.11169,206.53767 382.52156,207.35742 C 382.74927,207.85838 383.15915,207.90392 383.61456,208.26826 C 384.98081,209.31571 385.80056,209.99884 387.44006,210.36317 C 387.98656,210.4998 388.25981,210.4998 388.80631,210.54534 C 390.94677,210.72751 391.90315,210.59088 394.27131,210.27209 C 396.04744,210.04438 397.50477,209.72559 398.7344,208.35934 C 399.2809,207.7673 399.41752,207.26634 399.8274,206.62876 C 400.87485,204.98926 401.87677,204.26059 402.5599,202.43892 C 402.87869,201.57363 403.15194,201.07267 403.19748,200.16184 C 403.28856,199.15992 403.01531,198.61342 402.83315,197.61151 C 402.65098,196.47297 402.7876,195.83538 402.28665,194.78792 C 401.64906,193.46721 400.73823,193.10288 399.64523,192.14651 C 398.37006,191.05351 397.73248,190.2793 396.18406,189.59617 C 395.31877,189.23184 394.77227,189.00413 393.8159,188.8675 C 392.76844,188.73088 392.13085,189.00413 391.0834,188.95859 C 390.49135,188.95859 390.12702,188.82196 389.53498,188.8675 C 388.76077,188.91305 388.30535,189.14075 387.53115,189.23184 C 386.80248,189.32292 386.34706,189.27738 385.61839,189.414 C 383.38686,189.86942 382.52156,191.46338 380.60881,192.41976 C 377.9674,193.74046 377.19318,195.7443 374.50623,196.97392 C 373.45877,197.42934 372.77564,197.70259 371.68264,197.97584"
         style="font-size:45.54167175px;font-style:normal;font-weight:normal;line-height:1230149079061941934225568563200%;fill:#6c5c1d;fill-opacity:1;stroke:none;stroke-width:1px;stroke-linecap:butt;stroke-linejoin:miter;stroke-opacity:1;font-family:Bitstream Vera Sans" />
    </g>
    <path
       sodipodi:nodetypes="ccccccccssssscscsssscscscssscssssssz"
       id="path4615"
       d="M -912,173.36218 L -917.3125,147.23718 L -910.625,143.11218 L -915.9375,142.98718 L -917.25,132.86218 L -910.5,127.36218 L -915.75,123.86218 L -917,107.36218 C -917,107.36218 -913,115.36218 -909,111.36218 C -905,107.36218 -909,107.36218 -900,108.36218 C -891,109.36218 -887,111.36218 -884,107.36218 C -881,103.36218 -893,103.36218 -877,102.36218 C -861,101.36218 -870,102.36218 -859,103.36218 C -848,104.36218 -846,103.36218 -846,103.36218 C -846,103.36218 -844,100.36218 -840,101.36218 C -836,102.36218 -838,101.36218 -834,103.36218 C -834,103.36218 -830,109.36218 -825,108.36218 C -820,107.36218 -824,106.36218 -817,104.36218 C -810,102.36218 -817,98.36218 -809,102.36218 C -801,106.36218 -806,108.36218 -795,108.36218 C -784,108.36218 -780,108.36218 -780,108.36218 C -780,108.36218 -782,104.36218 -777,111.36218 C -772,118.36218 -771,120.36218 -771,120.36218 C -771,120.36218 -772.6875,146.67468 -773.65625,151.65905 C -774.625,156.64343 -775.875,151.29968 -783,151.98718 C -781.125,158.67468 -775.125,154.39343 -775.59375,159.5028 C -776.0625,164.61218 -779,174.11218 -778,174.36218 C -774,175.36218 -786,179.36218 -794,176.36218 C -802,173.36218 -814,176.36218 -814,176.36218 C -814,176.36218 -814,172.36218 -829,173.36218 C -844,174.36218 -845,170.36218 -851,173.36218 C -857,176.36218 -852,178.36218 -860,177.36218 C -868,176.36218 -867,179.36218 -875,176.36218 C -883,173.36218 -882,171.36218 -889,172.36218 C -896,173.36218 -893,172.36218 -900,174.36218 C -907,176.36218 -911.36985,176.46104 -912,173.36218 z"
       style="fill:url(#linearGradient4617);fill-opacity:1;fill-rule:evenodd;stroke:url(#linearGradient4619);stroke-width:1.16605711px;stroke-linecap:butt;stroke-linejoin:miter;stroke-opacity:1;filter:url(#filter3101)"
       transform="matrix(0.8350235,0,0,1.1409068,1238.6162,409.43976)"
       inkscape:export-filename="/home/duffy/Documents/Logos/pulp-orange.png"
       inkscape:export-xdpi="90"
       inkscape:export-ydpi="90" />
    <g
       inkscape:export-ydpi="90"
       inkscape:export-xdpi="90"
       inkscape:export-filename="/home/duffy/Documents/Logos/pulp-orange.png"
       transform="matrix(0.8866699,0,0,0.8866699,231.57868,453.95305)"
       id="g4685">
      <g
         style="fill:#504416;fill-opacity:1;filter:url(#filter3192)"
         id="g4687">
        <path
           id="path4689"
           d="M 279.68264,197.97584 L 279.68264,200.43509 C 280.41131,200.61726 281.00335,200.43509 281.50431,200.89051 C 282.96164,202.16567 282.59731,204.53384 282.68839,206.90201 C 282.77948,208.99692 282.14189,210.18101 282.14189,212.27592 C 282.14189,214.91734 282.77948,216.83009 282.87056,219.01609 C 283.00719,221.74859 282.55177,223.84351 281.68648,225.93843 C 281.23106,227.07697 282.23298,227.35022 283.41706,226.84926 C 284.5556,226.3483 285.51198,226.3483 286.05848,225.30084 C 286.46835,224.48109 286.65052,224.02567 286.14956,223.02376 C 285.23873,221.20209 285.28427,220.01801 285.14764,218.01417 C 285.01102,216.14697 285.51198,215.05396 285.42089,213.18676 C 285.28427,210.18101 284.0091,207.03863 284.51006,203.16759 C 284.82885,200.70834 283.69031,199.43317 286.24064,197.06501 C 287.15148,196.24526 287.51581,195.60767 288.51773,194.87901 C 289.56519,194.1048 290.3394,193.96817 291.43239,193.33059 C 292.29769,192.82963 292.66202,192.28313 293.61839,191.96434 C 294.11935,191.78217 294.52923,191.82771 295.07573,191.69109 C 295.84994,191.50892 296.21427,191.3723 296.98848,191.23567 C 298.26364,191.05351 298.99231,191.05351 300.26748,191.14459 C 301.08723,191.19013 301.54265,191.23567 302.3624,191.41784 C 303.91081,191.78217 304.59394,192.55638 306.00573,193.23951 C 306.50669,193.46721 306.7344,193.87709 307.09873,194.33251 C 308.0551,195.47105 308.23727,196.51851 308.82931,197.70259 C 309.19365,198.43126 309.05702,201.02713 308.10065,202.80326 C 306.96211,204.89817 306.00573,205.80901 304.45731,207.35742 C 304.04744,207.7673 303.77419,207.99501 303.18215,208.17717 C 302.63565,208.3138 302.3624,208.13163 301.8159,208.17717 C 301.36048,208.22272 301.08723,208.40488 300.63181,208.45042 C 299.44773,208.63259 298.81014,208.35934 297.62606,208.26826 C 297.1251,208.22272 296.85185,208.3138 296.3509,208.17717 C 295.53115,207.99501 295.16681,207.67621 294.52923,207.17526 C 292.88973,205.90009 291.88781,204.57938 291.97889,202.53001 C 293.88689,200.37542 296.67966,197.32147 292.70756,197.52042 C 291.52348,198.43125 291.06806,199.11438 290.15723,200.25292 C 289.10977,201.57363 289.65627,202.48447 289.97506,203.62301 C 290.11169,204.07842 290.06614,204.35167 290.15723,204.80709 C 290.29385,205.80901 290.11169,206.53767 290.52156,207.35742 C 290.74927,207.85838 291.15915,207.90392 291.61456,208.26826 C 292.98081,209.31571 293.80056,209.99884 295.44006,210.36317 C 295.98656,210.4998 296.25981,210.4998 296.80631,210.54534 C 298.94677,210.72751 299.90315,210.59088 302.27131,210.27209 C 304.04744,210.04438 305.50477,209.72559 306.7344,208.35934 C 307.2809,207.7673 307.41752,207.26634 307.8274,206.62876 C 308.87485,204.98926 309.87677,204.26059 310.5599,202.43892 C 310.87869,201.57363 311.15194,201.07267 311.19748,200.16184 C 311.28856,199.15992 311.01531,198.61342 310.83315,197.61151 C 310.65098,196.47297 310.7876,195.83538 310.28665,194.78792 C 309.64906,193.46721 308.73823,193.10288 307.64523,192.14651 C 306.37006,191.05351 305.73248,190.2793 304.18406,189.59617 C 303.31877,189.23184 302.77227,189.00413 301.8159,188.8675 C 300.76844,188.73088 300.13085,189.00413 299.0834,188.95859 C 298.49135,188.95859 298.12702,188.82196 297.53498,188.8675 C 296.76077,188.91305 296.30535,189.14075 295.53115,189.23184 C 294.80248,189.32292 294.34706,189.27738 293.61839,189.414 C 291.38686,189.86942 290.52156,191.46338 288.60881,192.41976 C 285.9674,193.74046 285.19318,195.7443 282.50623,196.97392 C 281.45877,197.42934 280.77564,197.70259 279.68264,197.97584"
           style="font-size:45.54167175px;font-style:normal;font-weight:normal;line-height:1230149079061941934225568563200%;fill:#504416;fill-opacity:1;stroke:none;stroke-width:1px;stroke-linecap:butt;stroke-linejoin:miter;stroke-opacity:1;font-family:Bitstream Vera Sans" />
        <path
           id="path4691"
           d="M 314.30076,191.23567 C 313.11668,190.09713 312.29692,190.68917 311.65934,191.87326 C 311.0673,192.96625 311.47718,193.83155 312.20584,194.97009 C 313.11667,196.38188 313.16222,198.15801 313.20776,200.25292 C 313.20776,201.48255 312.93451,202.12013 312.93451,203.34976 C 312.93451,204.53384 313.16222,205.17142 313.11668,206.35551 C 313.11668,206.90201 313.02559,207.26634 313.02559,207.81284 C 313.02559,208.26826 313.11668,208.54151 313.11668,208.99692 C 313.11668,209.54342 313.02559,209.81667 313.02559,210.36317 C 313.02559,211.72942 312.98005,212.64026 313.48101,213.91542 C 313.70872,214.50747 313.98197,214.78072 314.20968,215.37276 C 314.39184,215.82817 314.3463,216.23805 314.57401,216.64792 C 315.75809,218.56067 316.89664,219.51705 318.85493,220.47343 C 319.62913,220.8833 320.22118,220.92884 321.13201,221.11101 C 322.27055,221.33872 322.90814,221.4298 324.04668,221.38426 C 324.63872,221.33872 325.00305,221.24763 325.59509,221.20209 C 326.46038,221.15655 326.9158,221.29318 327.78109,221.29318 C 328.32759,221.29318 328.69193,221.24763 329.23843,221.29318 C 329.60276,221.29318 329.78493,221.33872 330.14926,221.38426 C 331.46997,221.47534 332.97285,220.92884 334.61234,220.20017 C 335.61426,219.74476 336.2063,219.51705 337.0716,218.83392 C 338.16459,217.92309 338.66555,217.14888 339.43976,215.82817 C 340.80601,213.46001 341.03372,211.72942 341.17035,208.99692 C 341.30697,206.81093 340.5783,205.62684 340.62385,203.44084 C 340.62385,202.53001 340.80601,201.98351 340.80601,201.07267 C 340.80601,200.25292 340.5783,199.79751 340.62385,198.97776 C 340.66939,198.43126 340.8971,198.15801 340.8971,197.61151 C 340.8971,196.97392 340.66939,196.60959 340.62385,195.97201 C 340.5783,195.10671 340.62385,194.6513 340.80601,193.78601 C 340.98818,192.73855 341.89901,192.23759 341.62576,191.23567 C 341.39805,190.46146 341.03372,189.82388 340.25951,189.68725 C 339.43976,189.55063 338.89326,189.50509 337.98243,189.59617 C 337.25376,189.64171 336.7528,189.45955 336.16076,189.9605 C 335.61426,190.41592 335.38655,190.96242 335.79643,191.60001 C 336.38847,192.51084 336.88943,192.82963 337.34485,193.78601 C 337.89134,194.92455 337.98243,195.69876 338.1646,196.97392 C 338.34676,198.24909 338.43785,198.97776 338.34676,200.25292 C 338.30122,200.57171 338.21014,200.75388 338.25568,201.07267 C 338.52893,202.57555 338.57447,203.3953 338.62001,204.89817 C 338.7111,207.2208 338.34676,208.54151 338.25568,210.90967 C 338.1646,213.09567 337.70918,214.50747 336.16076,216.10142 C 335.93305,216.32913 335.97859,216.64792 335.70534,216.83009 C 333.65597,218.1508 332.51743,218.24188 330.33143,218.56067 C 330.01264,218.60622 329.83047,218.65176 329.51168,218.65176 C 329.05626,218.65176 328.78301,218.60622 328.32759,218.56067 C 326.1416,218.42405 324.86642,219.06163 322.77151,218.46959 C 322.31609,218.33297 322.13393,218.19634 321.67851,218.10526 C 321.08647,217.96863 320.58551,218.24188 320.13009,217.92309 C 319.12818,217.19443 318.49059,216.92117 317.57976,216.01034 C 316.98772,215.4183 317.0788,214.82626 316.66893,214.09759 C 316.44122,213.64217 316.25905,213.46001 316.03134,213.00459 C 315.30268,211.41063 315.71255,210.22655 315.57593,208.45042 C 315.4393,206.90201 315.21159,206.08226 315.30268,204.53384 C 315.34822,203.85072 315.4393,203.48638 315.48484,202.80326 C 315.53038,201.57363 314.98388,200.84496 315.21159,199.61534 C 315.48484,198.24909 314.39185,195.42551 316.94218,196.60959 C 317.6253,196.92838 317.85301,197.70259 318.58168,197.52042 C 319.12818,197.3838 319.44697,197.06501 319.58359,196.51851 C 319.76576,195.69876 319.03709,195.24334 318.39951,194.78792 C 316.71447,193.60384 315.53038,192.41975 314.30076,191.23567"
           style="font-size:45.54167175px;font-style:normal;font-weight:normal;line-height:1230149079061941934225568563200%;fill:#504416;fill-opacity:1;stroke:none;stroke-width:1px;stroke-linecap:butt;stroke-linejoin:miter;stroke-opacity:1;font-family:Bitstream Vera Sans" />
        <path
           id="path4693"
           d="M 345.65268,201.43701 C 345.88039,203.623 345.10618,204.80709 345.10618,206.99309 C 345.10618,209.77113 345.83485,212.54918 345.92593,214.09759 C 345.97148,214.78072 345.51606,215.32722 345.42497,215.78263 C 345.19727,217.10334 344.92402,217.64984 344.10427,218.83392 C 343.83102,219.19826 343.51222,219.60813 343.19343,219.7903 C 342.46477,220.24572 342.46477,221.47534 343.9221,221.65751 C 344.42306,221.74859 344.74185,221.52088 345.28835,221.47534 C 346.79122,221.33872 347.61098,221.56643 349.11385,221.56643 C 351.80081,221.52088 353.62248,221.11101 355.9451,221.11101 C 357.31135,221.11101 358.1311,221.56643 359.49735,221.56643 C 360.8636,221.56643 361.59227,221.24763 362.95852,221.20209 C 364.00598,221.15655 364.64356,221.33872 365.69102,221.20209 C 366.28306,221.11101 366.64739,220.83776 367.23944,220.83776 C 367.87702,220.83776 368.24135,221.24763 368.87894,221.20209 C 370.29073,221.06547 371.2471,220.10909 371.2471,218.46959 C 371.2471,217.23997 371.01939,216.60238 371.06494,215.37276 C 371.11048,214.14313 370.01748,214.27976 369.6076,215.37276 C 369.24327,216.32913 369.0611,216.83009 368.33244,217.55876 C 368.05919,217.83201 367.74039,217.64984 367.33052,217.74092 C 366.69294,217.92309 366.41969,218.28742 365.7821,218.37851 C 365.19006,218.46959 364.82573,218.19634 364.23369,218.28742 C 363.73273,218.37851 363.55056,218.65176 363.0496,218.65176 C 362.54864,218.65176 362.36648,218.33297 361.86552,218.28742 C 360.40819,218.19634 359.58843,218.83392 358.1311,218.74284 C 357.5846,218.6973 357.22027,218.60622 356.67377,218.56067 C 355.35306,218.46959 354.62439,218.78838 353.30368,218.83392 C 352.39285,218.87947 351.80081,218.92501 350.93552,218.83392 C 348.8406,218.65176 348.47627,218.1508 348.11193,215.64601 C 347.88423,214.09759 347.7476,213.14121 347.7476,211.54726 C 347.7476,210.81859 347.83868,210.45426 347.83868,209.72559 C 347.83868,208.67813 347.7476,208.04055 347.7476,206.99309 C 347.7476,204.4883 348.2941,203.03096 348.20302,200.52617 C 348.15748,199.15992 347.79314,198.43125 347.83868,197.06501 C 347.88423,195.42551 347.83868,194.37805 348.56735,192.87517 C 348.8406,192.28313 349.3871,192.1465 349.3871,191.50892 C 349.34156,190.68917 348.52181,189.86942 347.83868,190.14267 C 346.29027,190.8258 345.65268,191.64555 344.19535,192.78409 C 343.19343,193.5583 342.8291,194.56021 343.73993,195.51659 C 345.42497,197.24717 345.42498,199.0233 345.65268,201.43701"
           style="font-size:45.54167175px;font-style:normal;font-weight:normal;line-height:1230149079061941934225568563200%;fill:#504416;fill-opacity:1;stroke:none;stroke-width:1px;stroke-linecap:butt;stroke-linejoin:miter;stroke-opacity:1;font-family:Bitstream Vera Sans" />
        <path
           style="font-size:45.54167175px;font-style:normal;font-weight:normal;line-height:1230149079061941934225568563200%;fill:#504416;fill-opacity:1;stroke:none;stroke-width:1px;stroke-linecap:butt;stroke-linejoin:miter;stroke-opacity:1;font-family:Bitstream Vera Sans"
           d="M 371.68264,197.97584 L 371.68264,200.43509 C 372.41131,200.61726 373.00335,200.43509 373.50431,200.89051 C 374.96164,202.16567 374.59731,204.53384 374.68839,206.90201 C 374.77948,208.99692 374.14189,210.18101 374.14189,212.27592 C 374.14189,214.91734 374.77948,216.83009 374.87056,219.01609 C 375.00719,221.74859 374.55177,223.84351 373.68648,225.93843 C 373.23106,227.07697 374.23298,227.35022 375.41706,226.84926 C 376.5556,226.3483 377.51198,226.3483 378.05848,225.30084 C 378.46835,224.48109 378.65052,224.02567 378.14956,223.02376 C 377.23873,221.20209 377.28427,220.01801 377.14764,218.01417 C 377.01102,216.14697 377.51198,215.05396 377.42089,213.18676 C 377.28427,210.18101 376.0091,207.03863 376.51006,203.16759 C 376.82885,200.70834 375.69031,199.43317 378.24064,197.06501 C 379.15148,196.24526 379.51581,195.60767 380.51773,194.87901 C 381.56519,194.1048 382.3394,193.96817 383.43239,193.33059 C 384.29769,192.82963 384.66202,192.28313 385.61839,191.96434 C 386.11935,191.78217 386.52923,191.82771 387.07573,191.69109 C 387.84994,191.50892 388.21427,191.3723 388.98848,191.23567 C 390.26364,191.05351 390.99231,191.05351 392.26748,191.14459 C 393.08723,191.19013 393.54265,191.23567 394.3624,191.41784 C 395.91081,191.78217 396.59394,192.55638 398.00573,193.23951 C 398.50669,193.46721 398.7344,193.87709 399.09873,194.33251 C 400.0551,195.47105 400.23727,196.51851 400.82931,197.70259 C 401.19365,198.43126 401.05702,201.02713 400.10065,202.80326 C 398.96211,204.89817 398.00573,205.80901 396.45731,207.35742 C 396.04744,207.7673 395.77419,207.99501 395.18215,208.17717 C 394.63565,208.3138 394.3624,208.13163 393.8159,208.17717 C 393.36048,208.22272 393.08723,208.40488 392.63181,208.45042 C 391.44773,208.63259 390.81014,208.35934 389.62606,208.26826 C 389.1251,208.22272 388.85185,208.3138 388.3509,208.17717 C 387.53115,207.99501 387.16681,207.67621 386.52923,207.17526 C 384.88973,205.90009 383.88781,204.57938 383.97889,202.53001 C 385.88689,200.37542 388.67966,197.32147 384.70756,197.52042 C 383.52348,198.43125 383.06806,199.11438 382.15723,200.25292 C 381.10977,201.57363 381.65627,202.48447 381.97506,203.62301 C 382.11169,204.07842 382.06614,204.35167 382.15723,204.80709 C 382.29385,205.80901 382.11169,206.53767 382.52156,207.35742 C 382.74927,207.85838 383.15915,207.90392 383.61456,208.26826 C 384.98081,209.31571 385.80056,209.99884 387.44006,210.36317 C 387.98656,210.4998 388.25981,210.4998 388.80631,210.54534 C 390.94677,210.72751 391.90315,210.59088 394.27131,210.27209 C 396.04744,210.04438 397.50477,209.72559 398.7344,208.35934 C 399.2809,207.7673 399.41752,207.26634 399.8274,206.62876 C 400.87485,204.98926 401.87677,204.26059 402.5599,202.43892 C 402.87869,201.57363 403.15194,201.07267 403.19748,200.16184 C 403.28856,199.15992 403.01531,198.61342 402.83315,197.61151 C 402.65098,196.47297 402.7876,195.83538 402.28665,194.78792 C 401.64906,193.46721 400.73823,193.10288 399.64523,192.14651 C 398.37006,191.05351 397.73248,190.2793 396.18406,189.59617 C 395.31877,189.23184 394.77227,189.00413 393.8159,188.8675 C 392.76844,188.73088 392.13085,189.00413 391.0834,188.95859 C 390.49135,188.95859 390.12702,188.82196 389.53498,188.8675 C 388.76077,188.91305 388.30535,189.14075 387.53115,189.23184 C 386.80248,189.32292 386.34706,189.27738 385.61839,189.414 C 383.38686,189.86942 382.52156,191.46338 380.60881,192.41976 C 377.9674,193.74046 377.19318,195.7443 374.50623,196.97392 C 373.45877,197.42934 372.77564,197.70259 371.68264,197.97584"
           id="path4695" />
      </g>
      <path
         id="path4697"
         d="M 279.68264,197.97584 L 279.68264,200.43509 C 280.41131,200.61726 281.00335,200.43509 281.50431,200.89051 C 282.96164,202.16567 282.59731,204.53384 282.68839,206.90201 C 282.77948,208.99692 282.14189,210.18101 282.14189,212.27592 C 282.14189,214.91734 282.77948,216.83009 282.87056,219.01609 C 283.00719,221.74859 282.55177,223.84351 281.68648,225.93843 C 281.23106,227.07697 282.23298,227.35022 283.41706,226.84926 C 284.5556,226.3483 285.51198,226.3483 286.05848,225.30084 C 286.46835,224.48109 286.65052,224.02567 286.14956,223.02376 C 285.23873,221.20209 285.28427,220.01801 285.14764,218.01417 C 285.01102,216.14697 285.51198,215.05396 285.42089,213.18676 C 285.28427,210.18101 284.0091,207.03863 284.51006,203.16759 C 284.82885,200.70834 283.69031,199.43317 286.24064,197.06501 C 287.15148,196.24526 287.51581,195.60767 288.51773,194.87901 C 289.56519,194.1048 290.3394,193.96817 291.43239,193.33059 C 292.29769,192.82963 292.66202,192.28313 293.61839,191.96434 C 294.11935,191.78217 294.52923,191.82771 295.07573,191.69109 C 295.84994,191.50892 296.21427,191.3723 296.98848,191.23567 C 298.26364,191.05351 298.99231,191.05351 300.26748,191.14459 C 301.08723,191.19013 301.54265,191.23567 302.3624,191.41784 C 303.91081,191.78217 304.59394,192.55638 306.00573,193.23951 C 306.50669,193.46721 306.7344,193.87709 307.09873,194.33251 C 308.0551,195.47105 308.23727,196.51851 308.82931,197.70259 C 309.19365,198.43126 309.05702,201.02713 308.10065,202.80326 C 306.96211,204.89817 306.00573,205.80901 304.45731,207.35742 C 304.04744,207.7673 303.77419,207.99501 303.18215,208.17717 C 302.63565,208.3138 302.3624,208.13163 301.8159,208.17717 C 301.36048,208.22272 301.08723,208.40488 300.63181,208.45042 C 299.44773,208.63259 298.81014,208.35934 297.62606,208.26826 C 297.1251,208.22272 296.85185,208.3138 296.3509,208.17717 C 295.53115,207.99501 295.16681,207.67621 294.52923,207.17526 C 292.88973,205.90009 291.88781,204.57938 291.97889,202.53001 C 293.88689,200.37542 296.67966,197.32147 292.70756,197.52042 C 291.52348,198.43125 291.06806,199.11438 290.15723,200.25292 C 289.10977,201.57363 289.65627,202.48447 289.97506,203.62301 C 290.11169,204.07842 290.06614,204.35167 290.15723,204.80709 C 290.29385,205.80901 290.11169,206.53767 290.52156,207.35742 C 290.74927,207.85838 291.15915,207.90392 291.61456,208.26826 C 292.98081,209.31571 293.80056,209.99884 295.44006,210.36317 C 295.98656,210.4998 296.25981,210.4998 296.80631,210.54534 C 298.94677,210.72751 299.90315,210.59088 302.27131,210.27209 C 304.04744,210.04438 305.50477,209.72559 306.7344,208.35934 C 307.2809,207.7673 307.41752,207.26634 307.8274,206.62876 C 308.87485,204.98926 309.87677,204.26059 310.5599,202.43892 C 310.87869,201.57363 311.15194,201.07267 311.19748,200.16184 C 311.28856,199.15992 311.01531,198.61342 310.83315,197.61151 C 310.65098,196.47297 310.7876,195.83538 310.28665,194.78792 C 309.64906,193.46721 308.73823,193.10288 307.64523,192.14651 C 306.37006,191.05351 305.73248,190.2793 304.18406,189.59617 C 303.31877,189.23184 302.77227,189.00413 301.8159,188.8675 C 300.76844,188.73088 300.13085,189.00413 299.0834,188.95859 C 298.49135,188.95859 298.12702,188.82196 297.53498,188.8675 C 296.76077,188.91305 296.30535,189.14075 295.53115,189.23184 C 294.80248,189.32292 294.34706,189.27738 293.61839,189.414 C 291.38686,189.86942 290.52156,191.46338 288.60881,192.41976 C 285.9674,193.74046 285.19318,195.7443 282.50623,196.97392 C 281.45877,197.42934 280.77564,197.70259 279.68264,197.97584"
         style="font-size:45.54167175px;font-style:normal;font-weight:normal;line-height:1230149079061941934225568563200%;fill:#6c5c1d;fill-opacity:1;stroke:none;stroke-width:1px;stroke-linecap:butt;stroke-linejoin:miter;stroke-opacity:1;font-family:Bitstream Vera Sans" />
      <path
         id="path4699"
         d="M 314.30076,191.23567 C 313.11668,190.09713 312.29692,190.68917 311.65934,191.87326 C 311.0673,192.96625 311.47718,193.83155 312.20584,194.97009 C 313.11667,196.38188 313.16222,198.15801 313.20776,200.25292 C 313.20776,201.48255 312.93451,202.12013 312.93451,203.34976 C 312.93451,204.53384 313.16222,205.17142 313.11668,206.35551 C 313.11668,206.90201 313.02559,207.26634 313.02559,207.81284 C 313.02559,208.26826 313.11668,208.54151 313.11668,208.99692 C 313.11668,209.54342 313.02559,209.81667 313.02559,210.36317 C 313.02559,211.72942 312.98005,212.64026 313.48101,213.91542 C 313.70872,214.50747 313.98197,214.78072 314.20968,215.37276 C 314.39184,215.82817 314.3463,216.23805 314.57401,216.64792 C 315.75809,218.56067 316.89664,219.51705 318.85493,220.47343 C 319.62913,220.8833 320.22118,220.92884 321.13201,221.11101 C 322.27055,221.33872 322.90814,221.4298 324.04668,221.38426 C 324.63872,221.33872 325.00305,221.24763 325.59509,221.20209 C 326.46038,221.15655 326.9158,221.29318 327.78109,221.29318 C 328.32759,221.29318 328.69193,221.24763 329.23843,221.29318 C 329.60276,221.29318 329.78493,221.33872 330.14926,221.38426 C 331.46997,221.47534 332.97285,220.92884 334.61234,220.20017 C 335.61426,219.74476 336.2063,219.51705 337.0716,218.83392 C 338.16459,217.92309 338.66555,217.14888 339.43976,215.82817 C 340.80601,213.46001 341.03372,211.72942 341.17035,208.99692 C 341.30697,206.81093 340.5783,205.62684 340.62385,203.44084 C 340.62385,202.53001 340.80601,201.98351 340.80601,201.07267 C 340.80601,200.25292 340.5783,199.79751 340.62385,198.97776 C 340.66939,198.43126 340.8971,198.15801 340.8971,197.61151 C 340.8971,196.97392 340.66939,196.60959 340.62385,195.97201 C 340.5783,195.10671 340.62385,194.6513 340.80601,193.78601 C 340.98818,192.73855 341.89901,192.23759 341.62576,191.23567 C 341.39805,190.46146 341.03372,189.82388 340.25951,189.68725 C 339.43976,189.55063 338.89326,189.50509 337.98243,189.59617 C 337.25376,189.64171 336.7528,189.45955 336.16076,189.9605 C 335.61426,190.41592 335.38655,190.96242 335.79643,191.60001 C 336.38847,192.51084 336.88943,192.82963 337.34485,193.78601 C 337.89134,194.92455 337.98243,195.69876 338.1646,196.97392 C 338.34676,198.24909 338.43785,198.97776 338.34676,200.25292 C 338.30122,200.57171 338.21014,200.75388 338.25568,201.07267 C 338.52893,202.57555 338.57447,203.3953 338.62001,204.89817 C 338.7111,207.2208 338.34676,208.54151 338.25568,210.90967 C 338.1646,213.09567 337.70918,214.50747 336.16076,216.10142 C 335.93305,216.32913 335.97859,216.64792 335.70534,216.83009 C 333.65597,218.1508 332.51743,218.24188 330.33143,218.56067 C 330.01264,218.60622 329.83047,218.65176 329.51168,218.65176 C 329.05626,218.65176 328.78301,218.60622 328.32759,218.56067 C 326.1416,218.42405 324.86642,219.06163 322.77151,218.46959 C 322.31609,218.33297 322.13393,218.19634 321.67851,218.10526 C 321.08647,217.96863 320.58551,218.24188 320.13009,217.92309 C 319.12818,217.19443 318.49059,216.92117 317.57976,216.01034 C 316.98772,215.4183 317.0788,214.82626 316.66893,214.09759 C 316.44122,213.64217 316.25905,213.46001 316.03134,213.00459 C 315.30268,211.41063 315.71255,210.22655 315.57593,208.45042 C 315.4393,206.90201 315.21159,206.08226 315.30268,204.53384 C 315.34822,203.85072 315.4393,203.48638 315.48484,202.80326 C 315.53038,201.57363 314.98388,200.84496 315.21159,199.61534 C 315.48484,198.24909 314.39185,195.42551 316.94218,196.60959 C 317.6253,196.92838 317.85301,197.70259 318.58168,197.52042 C 319.12818,197.3838 319.44697,197.06501 319.58359,196.51851 C 319.76576,195.69876 319.03709,195.24334 318.39951,194.78792 C 316.71447,193.60384 315.53038,192.41975 314.30076,191.23567"
         style="font-size:45.54167175px;font-style:normal;font-weight:normal;line-height:1230149079061941934225568563200%;fill:#6c5c1d;fill-opacity:1;stroke:none;stroke-width:1px;stroke-linecap:butt;stroke-linejoin:miter;stroke-opacity:1;font-family:Bitstream Vera Sans" />
      <path
         id="path4701"
         d="M 345.65268,201.43701 C 345.88039,203.623 345.10618,204.80709 345.10618,206.99309 C 345.10618,209.77113 345.83485,212.54918 345.92593,214.09759 C 345.97148,214.78072 345.51606,215.32722 345.42497,215.78263 C 345.19727,217.10334 344.92402,217.64984 344.10427,218.83392 C 343.83102,219.19826 343.51222,219.60813 343.19343,219.7903 C 342.46477,220.24572 342.46477,221.47534 343.9221,221.65751 C 344.42306,221.74859 344.74185,221.52088 345.28835,221.47534 C 346.79122,221.33872 347.61098,221.56643 349.11385,221.56643 C 351.80081,221.52088 353.62248,221.11101 355.9451,221.11101 C 357.31135,221.11101 358.1311,221.56643 359.49735,221.56643 C 360.8636,221.56643 361.59227,221.24763 362.95852,221.20209 C 364.00598,221.15655 364.64356,221.33872 365.69102,221.20209 C 366.28306,221.11101 366.64739,220.83776 367.23944,220.83776 C 367.87702,220.83776 368.24135,221.24763 368.87894,221.20209 C 370.29073,221.06547 371.2471,220.10909 371.2471,218.46959 C 371.2471,217.23997 371.01939,216.60238 371.06494,215.37276 C 371.11048,214.14313 370.01748,214.27976 369.6076,215.37276 C 369.24327,216.32913 369.0611,216.83009 368.33244,217.55876 C 368.05919,217.83201 367.74039,217.64984 367.33052,217.74092 C 366.69294,217.92309 366.41969,218.28742 365.7821,218.37851 C 365.19006,218.46959 364.82573,218.19634 364.23369,218.28742 C 363.73273,218.37851 363.55056,218.65176 363.0496,218.65176 C 362.54864,218.65176 362.36648,218.33297 361.86552,218.28742 C 360.40819,218.19634 359.58843,218.83392 358.1311,218.74284 C 357.5846,218.6973 357.22027,218.60622 356.67377,218.56067 C 355.35306,218.46959 354.62439,218.78838 353.30368,218.83392 C 352.39285,218.87947 351.80081,218.92501 350.93552,218.83392 C 348.8406,218.65176 348.47627,218.1508 348.11193,215.64601 C 347.88423,214.09759 347.7476,213.14121 347.7476,211.54726 C 347.7476,210.81859 347.83868,210.45426 347.83868,209.72559 C 347.83868,208.67813 347.7476,208.04055 347.7476,206.99309 C 347.7476,204.4883 348.2941,203.03096 348.20302,200.52617 C 348.15748,199.15992 347.79314,198.43125 347.83868,197.06501 C 347.88423,195.42551 347.83868,194.37805 348.56735,192.87517 C 348.8406,192.28313 349.3871,192.1465 349.3871,191.50892 C 349.34156,190.68917 348.52181,189.86942 347.83868,190.14267 C 346.29027,190.8258 345.65268,191.64555 344.19535,192.78409 C 343.19343,193.5583 342.8291,194.56021 343.73993,195.51659 C 345.42497,197.24717 345.42498,199.0233 345.65268,201.43701"
         style="font-size:45.54167175px;font-style:normal;font-weight:normal;line-height:1230149079061941934225568563200%;fill:#6c5c1d;fill-opacity:1;stroke:none;stroke-width:1px;stroke-linecap:butt;stroke-linejoin:miter;stroke-opacity:1;font-family:Bitstream Vera Sans" />
      <path
         style="font-size:45.54167175px;font-style:normal;font-weight:normal;line-height:1230149079061941934225568563200%;fill:#6c5c1d;fill-opacity:1;stroke:none;stroke-width:1px;stroke-linecap:butt;stroke-linejoin:miter;stroke-opacity:1;font-family:Bitstream Vera Sans"
         d="M 371.68264,197.97584 L 371.68264,200.43509 C 372.41131,200.61726 373.00335,200.43509 373.50431,200.89051 C 374.96164,202.16567 374.59731,204.53384 374.68839,206.90201 C 374.77948,208.99692 374.14189,210.18101 374.14189,212.27592 C 374.14189,214.91734 374.77948,216.83009 374.87056,219.01609 C 375.00719,221.74859 374.55177,223.84351 373.68648,225.93843 C 373.23106,227.07697 374.23298,227.35022 375.41706,226.84926 C 376.5556,226.3483 377.51198,226.3483 378.05848,225.30084 C 378.46835,224.48109 378.65052,224.02567 378.14956,223.02376 C 377.23873,221.20209 377.28427,220.01801 377.14764,218.01417 C 377.01102,216.14697 377.51198,215.05396 377.42089,213.18676 C 377.28427,210.18101 376.0091,207.03863 376.51006,203.16759 C 376.82885,200.70834 375.69031,199.43317 378.24064,197.06501 C 379.15148,196.24526 379.51581,195.60767 380.51773,194.87901 C 381.56519,194.1048 382.3394,193.96817 383.43239,193.33059 C 384.29769,192.82963 384.66202,192.28313 385.61839,191.96434 C 386.11935,191.78217 386.52923,191.82771 387.07573,191.69109 C 387.84994,191.50892 388.21427,191.3723 388.98848,191.23567 C 390.26364,191.05351 390.99231,191.05351 392.26748,191.14459 C 393.08723,191.19013 393.54265,191.23567 394.3624,191.41784 C 395.91081,191.78217 396.59394,192.55638 398.00573,193.23951 C 398.50669,193.46721 398.7344,193.87709 399.09873,194.33251 C 400.0551,195.47105 400.23727,196.51851 400.82931,197.70259 C 401.19365,198.43126 401.05702,201.02713 400.10065,202.80326 C 398.96211,204.89817 398.00573,205.80901 396.45731,207.35742 C 396.04744,207.7673 395.77419,207.99501 395.18215,208.17717 C 394.63565,208.3138 394.3624,208.13163 393.8159,208.17717 C 393.36048,208.22272 393.08723,208.40488 392.63181,208.45042 C 391.44773,208.63259 390.81014,208.35934 389.62606,208.26826 C 389.1251,208.22272 388.85185,208.3138 388.3509,208.17717 C 387.53115,207.99501 387.16681,207.67621 386.52923,207.17526 C 384.88973,205.90009 383.88781,204.57938 383.97889,202.53001 C 385.88689,200.37542 388.67966,197.32147 384.70756,197.52042 C 383.52348,198.43125 383.06806,199.11438 382.15723,200.25292 C 381.10977,201.57363 381.65627,202.48447 381.97506,203.62301 C 382.11169,204.07842 382.06614,204.35167 382.15723,204.80709 C 382.29385,205.80901 382.11169,206.53767 382.52156,207.35742 C 382.74927,207.85838 383.15915,207.90392 383.61456,208.26826 C 384.98081,209.31571 385.80056,209.99884 387.44006,210.36317 C 387.98656,210.4998 388.25981,210.4998 388.80631,210.54534 C 390.94677,210.72751 391.90315,210.59088 394.27131,210.27209 C 396.04744,210.04438 397.50477,209.72559 398.7344,208.35934 C 399.2809,207.7673 399.41752,207.26634 399.8274,206.62876 C 400.87485,204.98926 401.87677,204.26059 402.5599,202.43892 C 402.87869,201.57363 403.15194,201.07267 403.19748,200.16184 C 403.28856,199.15992 403.01531,198.61342 402.83315,197.61151 C 402.65098,196.47297 402.7876,195.83538 402.28665,194.78792 C 401.64906,193.46721 400.73823,193.10288 399.64523,192.14651 C 398.37006,191.05351 397.73248,190.2793 396.18406,189.59617 C 395.31877,189.23184 394.77227,189.00413 393.8159,188.8675 C 392.76844,188.73088 392.13085,189.00413 391.0834,188.95859 C 390.49135,188.95859 390.12702,188.82196 389.53498,188.8675 C 388.76077,188.91305 388.30535,189.14075 387.53115,189.23184 C 386.80248,189.32292 386.34706,189.27738 385.61839,189.414 C 383.38686,189.86942 382.52156,191.46338 380.60881,192.41976 C 377.9674,193.74046 377.19318,195.7443 374.50623,196.97392 C 373.45877,197.42934 372.77564,197.70259 371.68264,197.97584"
         id="path4703" />
    </g>
    <path
       sodipodi:type="arc"
       style="fill:url(#radialGradient4987);fill-opacity:1;stroke:url(#linearGradient4989);stroke-width:1.70953274;stroke-miterlimit:4;stroke-dasharray:none;stroke-opacity:1;filter:url(#filter3228)"
       id="path4754"
       sodipodi:cx="-195.5"
       sodipodi:cy="10.5"
       sodipodi:rx="49.5"
       sodipodi:ry="49.5"
       d="M -146,10.5 A 49.5,49.5 0 1 1 -245,10.5 A 49.5,49.5 0 1 1 -146,10.5 z"
       transform="matrix(0.5851841,0,0,0.5847264,638.20228,561.66957)"
       inkscape:export-filename="/home/duffy/Documents/Logos/pulp-orange.png"
       inkscape:export-xdpi="90"
       inkscape:export-ydpi="90" />
    <g
       id="g4924"
       transform="matrix(0.6735162,0,0,0.6729894,1128.9666,369.28233)"
       inkscape:export-filename="/home/duffy/Documents/Logos/pulp-orange.png"
       inkscape:export-xdpi="90"
       inkscape:export-ydpi="90">
      <g
         transform="translate(65,28)"
         id="g4898">
        <path
           style="fill:url(#radialGradient4971);fill-opacity:1;stroke:url(#linearGradient4973);stroke-width:1.45130205;stroke-miterlimit:4;stroke-dasharray:none;stroke-opacity:1;filter:url(#filter3228)"
           d="M -895.25237,252.66831 C -907.03387,271.0064 -933.5279,282.28446 -969.8438,284.29968 C -971.0504,284.36664 -972.2414,284.41688 -973.4375,284.45593 C -966.6111,300.30689 -950.8446,311.42468 -932.5,311.42468 C -907.9084,311.42468 -889.89179,291.45378 -889.89179,270.77035 C -889.89179,264.70643 -893.05497,257.93902 -895.25237,252.66831 z"
           id="path4657"
           transform="matrix(1.0233918,0,0,1.0234962,21.770468,-6.8678752)"
           sodipodi:nodetypes="cscssc" />
        <path
           sodipodi:end="0.57912436"
           sodipodi:start="0"
           sodipodi:type="arc"
           style="fill:url(#linearGradient4975);fill-opacity:1;stroke:#ffffff;stroke-width:2.31968093;stroke-linejoin:miter;stroke-miterlimit:4;stroke-dasharray:none;stroke-opacity:0.50697674"
           id="path4779"
           sodipodi:cx="-195.5"
           sodipodi:cy="10.5"
           sodipodi:rx="49.5"
           sodipodi:ry="49.5"
           d="M -146,10.5 A 49.5,49.5 0 0 1 -154.07136,37.590919 L -195.5,10.5 z"
           transform="matrix(0.5994989,0.2961417,-0.3461208,0.5129325,-809.97717,327.63761)"
           inkscape:transform-center-x="-9.9810335"
           inkscape:transform-center-y="8.8747577" />
        <path
           inkscape:transform-center-y="15.359405"
           inkscape:transform-center-x="-5.7476121"
           transform="matrix(0.3076566,0.5301603,-0.6203861,0.2636031,-864.57397,376.19934)"
           d="M -146,10.5 A 49.5,49.5 0 0 1 -154.07136,37.590919 L -195.5,10.5 z"
           sodipodi:ry="49.5"
           sodipodi:rx="49.5"
           sodipodi:cy="10.5"
           sodipodi:cx="-195.5"
           id="path4821"
           style="fill:url(#linearGradient4977);fill-opacity:1;stroke:#ffffff;stroke-width:2.31968093;stroke-linejoin:miter;stroke-miterlimit:4;stroke-dasharray:none;stroke-opacity:0.50697674"
           sodipodi:type="arc"
           sodipodi:start="0"
           sodipodi:end="0.57912436" />
        <path
           sodipodi:end="0.57912436"
           sodipodi:start="0"
           sodipodi:type="arc"
           style="fill:url(#linearGradient4979);fill-opacity:1;stroke:#ffffff;stroke-width:2.31968093;stroke-linejoin:miter;stroke-miterlimit:4;stroke-dasharray:none;stroke-opacity:0.50697674"
           id="path4825"
           sodipodi:cx="-195.5"
           sodipodi:cy="10.5"
           sodipodi:rx="49.5"
           sodipodi:ry="49.5"
           d="M -146,10.5 A 49.5,49.5 0 0 1 -154.07136,37.590919 L -195.5,10.5 z"
           transform="matrix(-9.9339402e-2,0.5856587,-0.685761,-8.4371504e-2,-943.94508,390.6597)"
           inkscape:transform-center-x="11.672895"
           inkscape:transform-center-y="15.144878" />
        <path
           inkscape:transform-center-y="11.433422"
           inkscape:transform-center-x="17.192736"
           transform="matrix(-0.4551081,0.4460062,-0.5226115,-0.3887325,-1015.5712,366.29837)"
           d="M -146,10.5 A 49.5,49.5 0 0 1 -153.36199,36.473794 L -195.5,10.5 z"
           sodipodi:ry="49.5"
           sodipodi:rx="49.5"
           sodipodi:cy="10.5"
           sodipodi:cx="-195.5"
           id="path4829"
           style="fill:url(#linearGradient4981);fill-opacity:1;stroke:#ffffff;stroke-width:2.31968093;stroke-linejoin:miter;stroke-miterlimit:4;stroke-dasharray:none;stroke-opacity:0.50697674"
           sodipodi:type="arc"
           sodipodi:start="0"
           sodipodi:end="0.55238982" />
        <path
           sodipodi:end="0.57912436"
           sodipodi:start="0"
           sodipodi:type="arc"
           style="fill:url(#linearGradient4983);fill-opacity:1;stroke:#ffffff;stroke-width:2.31968093;stroke-linejoin:miter;stroke-miterlimit:4;stroke-dasharray:none;stroke-opacity:0.50697674"
           id="path4833"
           sodipodi:cx="-195.5"
           sodipodi:cy="10.5"
           sodipodi:rx="49.5"
           sodipodi:ry="49.5"
           d="M -146,10.5 A 49.5,49.5 0 0 1 -154.07136,37.590919 L -195.5,10.5 z"
           transform="matrix(0.6916733,-2.7804419e-2,3.3231625e-2,0.5914342,-795.71685,263.13226)"
           inkscape:transform-center-x="-17.950403"
           inkscape:transform-center-y="6.8975239" />
        <path
           inkscape:transform-center-y="-7.511608"
           inkscape:transform-center-x="-16.902459"
           transform="matrix(0.6439267,1.5122216e-2,9.5486749e-2,-0.5930851,-802.72114,283.12348)"
           d="M -146,10.5 A 49.5,49.5 0 0 1 -154.07136,37.590919 L -195.5,10.5 z"
           sodipodi:ry="49.5"
           sodipodi:rx="49.5"
           sodipodi:cy="10.5"
           sodipodi:cx="-195.5"
           id="path4837"
           style="fill:url(#linearGradient4985);fill-opacity:1;stroke:#ffffff;stroke-width:2.39897466;stroke-linejoin:miter;stroke-miterlimit:4;stroke-dasharray:none;stroke-opacity:0.50697674"
           sodipodi:type="arc"
           sodipodi:start="0"
           sodipodi:end="0.57912436" />
        <path
           style="fill:none;fill-opacity:1;stroke:#ffffff;stroke-width:7.4266324;stroke-linejoin:miter;stroke-miterlimit:4;stroke-dasharray:none;stroke-opacity:0.74418604"
           d="M -963.93343,284.65416 C -965.5827,287.3948 -962.70618,289.89842 -960.96633,291.96927 C -958.7359,295.48952 -954.53158,297.64371 -952.26334,301.14453 C -942.41113,305.93912 -933.45247,307.23219 -922.42238,304.39243 C -904.22939,299.25027 -892.16251,283.79909 -895.36953,265.46098 C -895.91235,263.72012 -895.70813,257.85572 -896.93674,257.12708"
           id="path4874"
           sodipodi:nodetypes="cccccc" />
      </g>
    </g>
    <path
       inkscape:export-ydpi="90"
       inkscape:export-xdpi="90"
       inkscape:export-filename="/home/duffy/Documents/Logos/pulp.png"
       transform="matrix(0.5851841,0,0,0.5847264,354.20228,592.66957)"
       d="M -146,10.5 A 49.5,49.5 0 1 1 -245,10.5 A 49.5,49.5 0 1 1 -146,10.5 z"
       sodipodi:ry="49.5"
       sodipodi:rx="49.5"
       sodipodi:cy="10.5"
       sodipodi:cx="-195.5"
       id="path4991"
       style="fill:url(#radialGradient5013);fill-opacity:1;stroke:url(#linearGradient5015);stroke-width:1.70953274;stroke-miterlimit:4;stroke-dasharray:none;stroke-opacity:1;filter:url(#filter3228)"
       sodipodi:type="arc" />
    <g
       inkscape:export-ydpi="90"
       inkscape:export-xdpi="90"
       inkscape:export-filename="/home/duffy/Documents/Logos/pulp.png"
       transform="matrix(0.6139035,0,0,0.6134234,789.71218,426.90471)"
       id="g4993">
      <g
         id="g4995"
         transform="translate(65,28)">
        <path
           sodipodi:nodetypes="cscssc"
           transform="matrix(1.0233918,0,0,1.0234962,21.770468,-6.8678752)"
           id="path4997"
           d="M -895.25237,252.66831 C -907.03387,271.0064 -933.5279,282.28446 -969.8438,284.29968 C -971.0504,284.36664 -972.2414,284.41688 -973.4375,284.45593 C -966.6111,300.30689 -950.8446,311.42468 -932.5,311.42468 C -907.9084,311.42468 -889.89179,291.45378 -889.89179,270.77035 C -889.89179,264.70643 -893.05497,257.93902 -895.25237,252.66831 z"
           style="fill:url(#radialGradient5017);fill-opacity:1;stroke:url(#linearGradient5019);stroke-width:1.59222972;stroke-miterlimit:4;stroke-dasharray:none;stroke-opacity:1;filter:url(#filter3228)" />
        <path
           inkscape:transform-center-y="8.8747577"
           inkscape:transform-center-x="-9.9810335"
           transform="matrix(0.5994989,0.2961417,-0.3461208,0.5129325,-809.97717,327.63761)"
           d="M -146,10.5 A 49.5,49.5 0 0 1 -154.07136,37.590919 L -195.5,10.5 z"
           sodipodi:ry="49.5"
           sodipodi:rx="49.5"
           sodipodi:cy="10.5"
           sodipodi:cx="-195.5"
           id="path4999"
           style="fill:url(#linearGradient5021);fill-opacity:1;stroke:#ffffff;stroke-width:2.54493165;stroke-linejoin:miter;stroke-miterlimit:4;stroke-dasharray:none;stroke-opacity:0.50697674"
           sodipodi:type="arc"
           sodipodi:start="0"
           sodipodi:end="0.57912436" />
        <path
           sodipodi:end="0.57912436"
           sodipodi:start="0"
           sodipodi:type="arc"
           style="fill:url(#linearGradient5023);fill-opacity:1;stroke:#ffffff;stroke-width:2.54493165;stroke-linejoin:miter;stroke-miterlimit:4;stroke-dasharray:none;stroke-opacity:0.50697674"
           id="path5001"
           sodipodi:cx="-195.5"
           sodipodi:cy="10.5"
           sodipodi:rx="49.5"
           sodipodi:ry="49.5"
           d="M -146,10.5 A 49.5,49.5 0 0 1 -154.07136,37.590919 L -195.5,10.5 z"
           transform="matrix(0.3076566,0.5301603,-0.6203861,0.2636031,-864.57397,376.19934)"
           inkscape:transform-center-x="-5.7476121"
           inkscape:transform-center-y="15.359405" />
        <path
           inkscape:transform-center-y="15.144878"
           inkscape:transform-center-x="11.672895"
           transform="matrix(-9.9339402e-2,0.5856587,-0.685761,-8.4371504e-2,-943.94508,390.6597)"
           d="M -146,10.5 A 49.5,49.5 0 0 1 -154.07136,37.590919 L -195.5,10.5 z"
           sodipodi:ry="49.5"
           sodipodi:rx="49.5"
           sodipodi:cy="10.5"
           sodipodi:cx="-195.5"
           id="path5003"
           style="fill:url(#linearGradient5025);fill-opacity:1;stroke:#ffffff;stroke-width:2.54493165;stroke-linejoin:miter;stroke-miterlimit:4;stroke-dasharray:none;stroke-opacity:0.50697674"
           sodipodi:type="arc"
           sodipodi:start="0"
           sodipodi:end="0.57912436" />
        <path
           sodipodi:end="0.55238982"
           sodipodi:start="0"
           sodipodi:type="arc"
           style="fill:url(#linearGradient5027);fill-opacity:1;stroke:#ffffff;stroke-width:2.54493165;stroke-linejoin:miter;stroke-miterlimit:4;stroke-dasharray:none;stroke-opacity:0.50697674"
           id="path5005"
           sodipodi:cx="-195.5"
           sodipodi:cy="10.5"
           sodipodi:rx="49.5"
           sodipodi:ry="49.5"
           d="M -146,10.5 A 49.5,49.5 0 0 1 -153.36199,36.473794 L -195.5,10.5 z"
           transform="matrix(-0.4551081,0.4460062,-0.5226115,-0.3887325,-1015.5712,366.29837)"
           inkscape:transform-center-x="17.192736"
           inkscape:transform-center-y="11.433422" />
        <path
           inkscape:transform-center-y="6.8975239"
           inkscape:transform-center-x="-17.950403"
           transform="matrix(0.6916733,-2.7804419e-2,3.3231625e-2,0.5914342,-795.71685,263.13226)"
           d="M -146,10.5 A 49.5,49.5 0 0 1 -154.07136,37.590919 L -195.5,10.5 z"
           sodipodi:ry="49.5"
           sodipodi:rx="49.5"
           sodipodi:cy="10.5"
           sodipodi:cx="-195.5"
           id="path5007"
           style="fill:url(#linearGradient5029);fill-opacity:1;stroke:#ffffff;stroke-width:2.54493165;stroke-linejoin:miter;stroke-miterlimit:4;stroke-dasharray:none;stroke-opacity:0.50697674"
           sodipodi:type="arc"
           sodipodi:start="0"
           sodipodi:end="0.57912436" />
        <path
           sodipodi:end="0.57912436"
           sodipodi:start="0"
           sodipodi:type="arc"
           style="fill:url(#linearGradient5031);fill-opacity:1;stroke:#ffffff;stroke-width:2.63192511;stroke-linejoin:miter;stroke-miterlimit:4;stroke-dasharray:none;stroke-opacity:0.50697674"
           id="path5009"
           sodipodi:cx="-195.5"
           sodipodi:cy="10.5"
           sodipodi:rx="49.5"
           sodipodi:ry="49.5"
           d="M -146,10.5 A 49.5,49.5 0 0 1 -154.07136,37.590919 L -195.5,10.5 z"
           transform="matrix(0.6439267,1.5122216e-2,9.5486749e-2,-0.5930851,-802.72114,283.12348)"
           inkscape:transform-center-x="-16.902459"
           inkscape:transform-center-y="-7.511608" />
        <path
           sodipodi:nodetypes="cccccc"
           id="path5011"
           d="M -963.93343,284.65416 C -965.5827,287.3948 -962.70618,289.89842 -960.96633,291.96927 C -958.7359,295.48952 -954.53158,297.64371 -952.26334,301.14453 C -942.41113,305.93912 -933.45247,307.23219 -922.42238,304.39243 C -904.22939,299.25027 -892.16251,283.79909 -895.36953,265.46098 C -895.91235,263.72012 -895.70813,257.85572 -896.93674,257.12708"
           style="fill:none;fill-opacity:1;stroke:#ffffff;stroke-width:8.14778996;stroke-linejoin:miter;stroke-miterlimit:4;stroke-dasharray:none;stroke-opacity:0.74418604" />
      </g>
    </g>
  </g>
</svg>
